<svg width="560" height="614" viewBox="0 0 560 614" fill="none" xmlns="http://www.w3.org/2000/svg">
<rect width="560" height="614" fill="#7C6B5B"/>
<g opacity="0.25">
<rect x="23.3308" y="91.2133" width="96" height="36" rx="8" transform="rotate(-45 23.3308 91.2133)" fill="#A2A2A2" fill-opacity="0.1"/>
<path fill-rule="evenodd" clip-rule="evenodd" d="M61.9723 65.7438C62.1078 65.6083 62.3088 65.5622 62.4898 65.6249L68.0286 67.5466L67.7331 65.2064C67.7149 65.0627 67.76 64.9182 67.8567 64.8103C67.9533 64.7023 68.092 64.6416 68.2368 64.6439L74.2928 64.737L75.1717 63.8582C75.3669 63.6629 75.6835 63.6629 75.8788 63.8582C76.074 64.0534 76.074 64.37 75.8788 64.5653L64.565 75.879C64.3698 76.0742 64.0532 76.0742 63.8579 75.879C63.6627 75.6837 63.6627 75.3671 63.8579 75.1719L64.665 74.3648L61.8535 66.2612C61.7907 66.0802 61.8369 65.8792 61.9723 65.7438ZM65.4508 73.579L69.8076 69.2222L63.1363 66.9077L65.4508 73.579ZM70.5934 68.4364L73.3078 65.722L68.7974 65.6526L69.0827 67.9123L70.5934 68.4364Z" fill="#A2A2A2"/>
<path fill-rule="evenodd" clip-rule="evenodd" d="M67.747 62.0904C68.3327 61.5046 68.3327 60.5549 67.747 59.9691C67.1612 59.3833 66.2114 59.3833 65.6256 59.9691C65.0398 60.5549 65.0398 61.5046 65.6256 62.0904C66.2114 62.6762 67.1612 62.6762 67.747 62.0904ZM68.4541 62.7975C69.4304 61.8212 69.4304 60.2383 68.4541 59.262C67.4777 58.2856 65.8948 58.2856 64.9185 59.262C63.9422 60.2383 63.9422 61.8212 64.9185 62.7975C65.8948 63.7738 67.4777 63.7738 68.4541 62.7975Z" fill="#A2A2A2"/>
<path d="M58.8534 81.5906L64.7931 87.5303L65.5313 86.7921L59.5916 80.8524L58.8534 81.5906Z" fill="#A2A2A2"/>
<path d="M68.6679 75.8151C68.057 75.8151 67.5139 76.0527 67.0303 76.5363C66.3345 77.2321 66.1139 78.0128 66.3515 78.8613C65.9611 78.7086 65.5708 78.6916 65.1975 78.7934C64.8241 78.8952 64.4677 79.0989 64.1623 79.4044C63.6277 79.9389 63.424 80.5838 63.5428 81.3135L62.8555 80.8129L62.2531 81.4154L66.5806 85.7429L67.2764 85.0471L64.9938 82.7645C64.5611 82.3318 64.315 81.8821 64.2471 81.4069C64.1792 80.9317 64.3235 80.5159 64.6799 80.1595C65.0108 79.8286 65.3757 79.6844 65.783 79.7183C66.1818 79.7607 66.5975 79.9898 67.0133 80.4056L69.4656 82.8579L70.1614 82.1621L67.8449 79.8456C67.4036 79.4044 67.1576 78.9546 67.1067 78.4964C67.0557 78.0382 67.217 77.6224 67.5818 77.2576C67.9043 76.9351 68.2691 76.7909 68.6679 76.8333C69.0668 76.8757 69.4825 77.1048 69.8983 77.5206L72.3506 79.9729L73.0464 79.2771L70.5517 76.7824C69.9068 76.1375 69.2789 75.8151 68.6679 75.8151Z" fill="#A2A2A2"/>
<path d="M77.35 73.7007L77.1378 73.9128C76.9427 74.1079 76.7475 74.0995 76.5354 73.8873L74.6686 72.0206C74.168 71.5199 73.6334 71.2908 73.0564 71.3248C72.4794 71.3587 71.9194 71.6472 71.3679 72.1988C70.8418 72.7248 70.5363 73.2679 70.4514 73.8279C70.3666 74.388 70.5108 74.9056 70.8842 75.3807L71.58 74.6849C71.4018 74.4219 71.3509 74.1334 71.4103 73.8025C71.4697 73.4715 71.6479 73.1576 71.9533 72.8521C72.2928 72.5127 72.6406 72.3345 72.9801 72.3006C73.328 72.2751 73.6504 72.3939 73.9304 72.6739L74.2274 72.9709L72.9546 74.2437C72.3861 74.8122 72.0721 75.3638 72.0043 75.8899C71.9449 76.4244 72.1315 76.8996 72.5643 77.3324C72.9546 77.7227 73.4128 77.8924 73.9219 77.8245C74.4395 77.7651 74.9402 77.4851 75.4238 77.0014C76.0517 76.3735 76.2978 75.6523 76.1536 74.8292C76.3742 75.0498 76.6118 75.1516 76.8409 75.1431C77.0785 75.1431 77.3245 74.9989 77.6045 74.7189L77.9864 74.337L77.35 73.7007ZM74.8129 73.5564L75.025 73.7685C75.3984 74.1419 75.5681 74.5662 75.5511 75.0244C75.5256 75.491 75.305 75.9323 74.8808 76.3565C74.5923 76.645 74.3038 76.8148 73.9983 76.8487C73.7013 76.8911 73.4468 76.8063 73.2261 76.5856C72.751 76.1105 72.8273 75.542 73.4722 74.8971L74.8129 73.5564Z" fill="#A2A2A2"/>
<path d="M78.3007 65.3678L77.6982 65.9702L78.3516 66.8103C77.9528 66.7 77.5624 66.7 77.1806 66.8103C76.7903 66.9291 76.4169 67.1497 76.069 67.4976C75.6702 67.8964 75.4072 68.3461 75.2799 68.8467C75.1441 69.3559 75.1611 69.865 75.3138 70.3741C75.4751 70.8917 75.772 71.3584 76.2048 71.7911C76.663 72.2493 77.1467 72.5633 77.6558 72.716C78.1734 72.8772 78.674 72.8857 79.1577 72.7415C79.6498 72.6057 80.0911 72.3342 80.4984 71.9269C81.1772 71.2481 81.4063 70.4929 81.1857 69.6444L81.6948 70.1535C82.6112 71.0699 82.5942 71.9863 81.6608 72.9197C81.296 73.2845 80.9311 73.5136 80.5493 73.59C80.1674 73.6833 79.811 73.6155 79.4886 73.3948L78.7758 74.1076C79.3019 74.5319 79.862 74.6846 80.4729 74.5828C81.0838 74.481 81.6693 74.15 82.2293 73.59C83.6549 72.1645 83.7228 70.7899 82.416 69.4831L78.3007 65.3678ZM80.4899 70.3062C80.405 70.6626 80.2183 70.9681 79.9468 71.2396C79.5141 71.6723 79.0219 71.876 78.4619 71.842C77.9019 71.8081 77.3927 71.5535 76.9176 71.0784C76.4509 70.6117 76.1963 70.1026 76.1624 69.5425C76.1284 68.9825 76.3236 68.4819 76.7563 68.0491C77.0279 67.7776 77.3418 67.5994 77.6982 67.5146C78.0546 67.4297 78.4195 67.4552 78.7843 67.5824C79.1492 67.7097 79.4886 67.9303 79.7941 68.2358C80.0995 68.5413 80.3202 68.8807 80.439 69.2371C80.5577 69.5934 80.5747 69.9498 80.4899 70.3062Z" fill="#A2A2A2"/>
<path d="M80.3516 65.3194C80.5213 65.8285 80.8183 66.2952 81.2595 66.7364C81.7007 67.1777 82.1674 67.4746 82.685 67.6359C83.2026 67.7971 83.7118 67.7971 84.2209 67.6613C84.73 67.5256 85.1882 67.2371 85.6209 66.8043C86.1131 66.3122 86.3931 65.7606 86.4525 65.1412C86.5119 64.5218 86.3592 63.9448 86.0028 63.4187L85.2985 64.123C85.5021 64.4793 85.5785 64.8442 85.5106 65.2176C85.4428 65.5909 85.2561 65.9303 84.9506 66.2358C84.5433 66.6431 84.0936 66.8382 83.593 66.8298C83.0838 66.8298 82.6172 66.6176 82.1844 66.2018L82.125 66.1425L85.4852 62.7823C85.3579 62.638 85.273 62.5362 85.2052 62.4683C84.7724 62.0695 84.3142 61.798 83.8305 61.6537C83.3469 61.5265 82.8717 61.5265 82.3965 61.6622C81.9298 61.8065 81.4886 62.078 81.0983 62.4683C80.691 62.8756 80.428 63.3253 80.3092 63.8175C80.1819 64.3181 80.1904 64.8187 80.3516 65.3194ZM84.2039 62.9096L81.5904 65.523C81.285 65.1497 81.1407 64.7339 81.1747 64.2587C81.2086 63.8005 81.3868 63.4017 81.7177 63.0708C82.0826 62.7059 82.4899 62.5023 82.9311 62.4683C83.3723 62.4344 83.8051 62.5786 84.2039 62.9096Z" fill="#A2A2A2"/>
<rect x="23.3308" y="91.2133" width="96" height="36" rx="8" transform="rotate(-45 23.3308 91.2133)" stroke="#A2A2A2"/>
</g>
<g opacity="0.5">
<rect x="163.331" y="91.2133" width="96" height="36" rx="8" transform="rotate(-45 163.331 91.2133)" fill="#A2A2A2" fill-opacity="0.1"/>
<path fill-rule="evenodd" clip-rule="evenodd" d="M201.972 65.7438C202.108 65.6083 202.309 65.5622 202.49 65.6249L208.029 67.5466L207.733 65.2064C207.715 65.0627 207.76 64.9182 207.857 64.8103C207.953 64.7023 208.092 64.6416 208.237 64.6439L214.293 64.737L215.172 63.8582C215.367 63.6629 215.683 63.6629 215.879 63.8582C216.074 64.0534 216.074 64.37 215.879 64.5653L204.565 75.879C204.37 76.0742 204.053 76.0742 203.858 75.879C203.663 75.6837 203.663 75.3671 203.858 75.1719L204.665 74.3648L201.853 66.2612C201.791 66.0802 201.837 65.8792 201.972 65.7438ZM205.451 73.579L209.808 69.2222L203.136 66.9077L205.451 73.579ZM210.593 68.4364L213.308 65.722L208.797 65.6526L209.083 67.9123L210.593 68.4364Z" fill="#A2A2A2"/>
<path fill-rule="evenodd" clip-rule="evenodd" d="M207.747 62.0904C208.333 61.5046 208.333 60.5549 207.747 59.9691C207.161 59.3833 206.211 59.3833 205.626 59.9691C205.04 60.5549 205.04 61.5046 205.626 62.0904C206.211 62.6762 207.161 62.6762 207.747 62.0904ZM208.454 62.7975C209.43 61.8212 209.43 60.2383 208.454 59.262C207.478 58.2856 205.895 58.2856 204.919 59.262C203.942 60.2383 203.942 61.8212 204.919 62.7975C205.895 63.7738 207.478 63.7738 208.454 62.7975Z" fill="#A2A2A2"/>
<path d="M198.853 81.5906L204.793 87.5303L205.531 86.7921L199.592 80.8524L198.853 81.5906Z" fill="#A2A2A2"/>
<path d="M208.668 75.8151C208.057 75.8151 207.514 76.0527 207.03 76.5363C206.334 77.2321 206.114 78.0128 206.351 78.8613C205.961 78.7086 205.571 78.6916 205.197 78.7934C204.824 78.8952 204.468 79.0989 204.162 79.4044C203.628 79.9389 203.424 80.5838 203.543 81.3135L202.856 80.8129L202.253 81.4154L206.581 85.7429L207.276 85.0471L204.994 82.7645C204.561 82.3318 204.315 81.8821 204.247 81.4069C204.179 80.9317 204.323 80.5159 204.68 80.1595C205.011 79.8286 205.376 79.6844 205.783 79.7183C206.182 79.7607 206.598 79.9898 207.013 80.4056L209.466 82.8579L210.161 82.1621L207.845 79.8456C207.404 79.4044 207.158 78.9546 207.107 78.4964C207.056 78.0382 207.217 77.6224 207.582 77.2576C207.904 76.9351 208.269 76.7909 208.668 76.8333C209.067 76.8757 209.483 77.1048 209.898 77.5206L212.351 79.9729L213.046 79.2771L210.552 76.7824C209.907 76.1375 209.279 75.8151 208.668 75.8151Z" fill="#A2A2A2"/>
<path d="M217.35 73.7007L217.138 73.9128C216.943 74.1079 216.748 74.0995 216.535 73.8873L214.669 72.0206C214.168 71.5199 213.633 71.2908 213.056 71.3248C212.479 71.3587 211.919 71.6472 211.368 72.1988C210.842 72.7248 210.536 73.2679 210.451 73.8279C210.367 74.388 210.511 74.9056 210.884 75.3807L211.58 74.6849C211.402 74.4219 211.351 74.1334 211.41 73.8025C211.47 73.4715 211.648 73.1576 211.953 72.8521C212.293 72.5127 212.641 72.3345 212.98 72.3006C213.328 72.2751 213.65 72.3939 213.93 72.6739L214.227 72.9709L212.955 74.2437C212.386 74.8122 212.072 75.3638 212.004 75.8899C211.945 76.4244 212.132 76.8996 212.564 77.3324C212.955 77.7227 213.413 77.8924 213.922 77.8245C214.44 77.7651 214.94 77.4851 215.424 77.0014C216.052 76.3735 216.298 75.6523 216.154 74.8292C216.374 75.0498 216.612 75.1516 216.841 75.1431C217.078 75.1431 217.325 74.9989 217.605 74.7189L217.986 74.337L217.35 73.7007ZM214.813 73.5564L215.025 73.7685C215.398 74.1419 215.568 74.5662 215.551 75.0244C215.526 75.491 215.305 75.9323 214.881 76.3565C214.592 76.645 214.304 76.8148 213.998 76.8487C213.701 76.8911 213.447 76.8063 213.226 76.5856C212.751 76.1105 212.827 75.542 213.472 74.8971L214.813 73.5564Z" fill="#A2A2A2"/>
<path d="M218.301 65.3678L217.698 65.9702L218.352 66.8103C217.953 66.7 217.562 66.7 217.181 66.8103C216.79 66.9291 216.417 67.1497 216.069 67.4976C215.67 67.8964 215.407 68.3461 215.28 68.8467C215.144 69.3559 215.161 69.865 215.314 70.3741C215.475 70.8917 215.772 71.3584 216.205 71.7911C216.663 72.2493 217.147 72.5633 217.656 72.716C218.173 72.8772 218.674 72.8857 219.158 72.7415C219.65 72.6057 220.091 72.3342 220.498 71.9269C221.177 71.2481 221.406 70.4929 221.186 69.6444L221.695 70.1535C222.611 71.0699 222.594 71.9863 221.661 72.9197C221.296 73.2845 220.931 73.5136 220.549 73.59C220.167 73.6833 219.811 73.6155 219.489 73.3948L218.776 74.1076C219.302 74.5319 219.862 74.6846 220.473 74.5828C221.084 74.481 221.669 74.15 222.229 73.59C223.655 72.1645 223.723 70.7899 222.416 69.4831L218.301 65.3678ZM220.49 70.3062C220.405 70.6626 220.218 70.9681 219.947 71.2396C219.514 71.6723 219.022 71.876 218.462 71.842C217.902 71.8081 217.393 71.5535 216.918 71.0784C216.451 70.6117 216.196 70.1026 216.162 69.5425C216.128 68.9825 216.324 68.4819 216.756 68.0491C217.028 67.7776 217.342 67.5994 217.698 67.5146C218.055 67.4297 218.419 67.4552 218.784 67.5824C219.149 67.7097 219.489 67.9303 219.794 68.2358C220.1 68.5413 220.32 68.8807 220.439 69.2371C220.558 69.5934 220.575 69.9498 220.49 70.3062Z" fill="#A2A2A2"/>
<path d="M220.352 65.3194C220.521 65.8285 220.818 66.2952 221.26 66.7364C221.701 67.1777 222.167 67.4746 222.685 67.6359C223.203 67.7971 223.712 67.7971 224.221 67.6613C224.73 67.5256 225.188 67.2371 225.621 66.8043C226.113 66.3122 226.393 65.7606 226.453 65.1412C226.512 64.5218 226.359 63.9448 226.003 63.4187L225.299 64.123C225.502 64.4793 225.579 64.8442 225.511 65.2176C225.443 65.5909 225.256 65.9303 224.951 66.2358C224.543 66.6431 224.094 66.8382 223.593 66.8298C223.084 66.8298 222.617 66.6176 222.184 66.2018L222.125 66.1425L225.485 62.7823C225.358 62.638 225.273 62.5362 225.205 62.4683C224.772 62.0695 224.314 61.798 223.831 61.6537C223.347 61.5265 222.872 61.5265 222.397 61.6622C221.93 61.8065 221.489 62.078 221.098 62.4683C220.691 62.8756 220.428 63.3253 220.309 63.8175C220.182 64.3181 220.19 64.8187 220.352 65.3194ZM224.204 62.9096L221.59 65.523C221.285 65.1497 221.141 64.7339 221.175 64.2587C221.209 63.8005 221.387 63.4017 221.718 63.0708C222.083 62.7059 222.49 62.5023 222.931 62.4683C223.372 62.4344 223.805 62.5786 224.204 62.9096Z" fill="#A2A2A2"/>
<rect x="163.331" y="91.2133" width="96" height="36" rx="8" transform="rotate(-45 163.331 91.2133)" stroke="#A2A2A2"/>
</g>
<g opacity="0.75">
<rect x="303.331" y="91.2133" width="96" height="36" rx="8" transform="rotate(-45 303.331 91.2133)" fill="#A2A2A2" fill-opacity="0.1"/>
<path fill-rule="evenodd" clip-rule="evenodd" d="M341.972 65.7438C342.108 65.6083 342.309 65.5622 342.49 65.6249L348.029 67.5466L347.733 65.2064C347.715 65.0627 347.76 64.9182 347.857 64.8103C347.953 64.7023 348.092 64.6416 348.237 64.6439L354.293 64.737L355.172 63.8582C355.367 63.6629 355.683 63.6629 355.879 63.8582C356.074 64.0534 356.074 64.37 355.879 64.5653L344.565 75.879C344.37 76.0742 344.053 76.0742 343.858 75.879C343.663 75.6837 343.663 75.3671 343.858 75.1719L344.665 74.3648L341.853 66.2612C341.791 66.0802 341.837 65.8792 341.972 65.7438ZM345.451 73.579L349.808 69.2222L343.136 66.9077L345.451 73.579ZM350.593 68.4364L353.308 65.722L348.797 65.6526L349.083 67.9123L350.593 68.4364Z" fill="#A2A2A2"/>
<path fill-rule="evenodd" clip-rule="evenodd" d="M347.747 62.0904C348.333 61.5046 348.333 60.5549 347.747 59.9691C347.161 59.3833 346.211 59.3833 345.626 59.9691C345.04 60.5549 345.04 61.5046 345.626 62.0904C346.211 62.6762 347.161 62.6762 347.747 62.0904ZM348.454 62.7975C349.43 61.8212 349.43 60.2383 348.454 59.262C347.478 58.2856 345.895 58.2856 344.919 59.262C343.942 60.2383 343.942 61.8212 344.919 62.7975C345.895 63.7738 347.478 63.7738 348.454 62.7975Z" fill="#A2A2A2"/>
<path d="M338.853 81.5906L344.793 87.5303L345.531 86.7921L339.592 80.8524L338.853 81.5906Z" fill="#A2A2A2"/>
<path d="M348.668 75.8151C348.057 75.8151 347.514 76.0527 347.03 76.5363C346.334 77.2321 346.114 78.0128 346.351 78.8613C345.961 78.7086 345.571 78.6916 345.197 78.7934C344.824 78.8952 344.468 79.0989 344.162 79.4044C343.628 79.9389 343.424 80.5838 343.543 81.3135L342.856 80.8129L342.253 81.4154L346.581 85.7429L347.276 85.0471L344.994 82.7645C344.561 82.3318 344.315 81.8821 344.247 81.4069C344.179 80.9317 344.323 80.5159 344.68 80.1595C345.011 79.8286 345.376 79.6844 345.783 79.7183C346.182 79.7607 346.598 79.9898 347.013 80.4056L349.466 82.8579L350.161 82.1621L347.845 79.8456C347.404 79.4044 347.158 78.9546 347.107 78.4964C347.056 78.0382 347.217 77.6224 347.582 77.2576C347.904 76.9351 348.269 76.7909 348.668 76.8333C349.067 76.8757 349.483 77.1048 349.898 77.5206L352.351 79.9729L353.046 79.2771L350.552 76.7824C349.907 76.1375 349.279 75.8151 348.668 75.8151Z" fill="#A2A2A2"/>
<path d="M357.35 73.7007L357.138 73.9128C356.943 74.1079 356.748 74.0995 356.535 73.8873L354.669 72.0206C354.168 71.5199 353.633 71.2908 353.056 71.3248C352.479 71.3587 351.919 71.6472 351.368 72.1988C350.842 72.7248 350.536 73.2679 350.451 73.8279C350.367 74.388 350.511 74.9056 350.884 75.3807L351.58 74.6849C351.402 74.4219 351.351 74.1334 351.41 73.8025C351.47 73.4715 351.648 73.1576 351.953 72.8521C352.293 72.5127 352.641 72.3345 352.98 72.3006C353.328 72.2751 353.65 72.3939 353.93 72.6739L354.227 72.9709L352.955 74.2437C352.386 74.8122 352.072 75.3638 352.004 75.8899C351.945 76.4244 352.132 76.8996 352.564 77.3324C352.955 77.7227 353.413 77.8924 353.922 77.8245C354.44 77.7651 354.94 77.4851 355.424 77.0014C356.052 76.3735 356.298 75.6523 356.154 74.8292C356.374 75.0498 356.612 75.1516 356.841 75.1431C357.078 75.1431 357.325 74.9989 357.605 74.7189L357.986 74.337L357.35 73.7007ZM354.813 73.5564L355.025 73.7685C355.398 74.1419 355.568 74.5662 355.551 75.0244C355.526 75.491 355.305 75.9323 354.881 76.3565C354.592 76.645 354.304 76.8148 353.998 76.8487C353.701 76.8911 353.447 76.8063 353.226 76.5856C352.751 76.1105 352.827 75.542 353.472 74.8971L354.813 73.5564Z" fill="#A2A2A2"/>
<path d="M358.301 65.3678L357.698 65.9702L358.352 66.8103C357.953 66.7 357.562 66.7 357.181 66.8103C356.79 66.9291 356.417 67.1497 356.069 67.4976C355.67 67.8964 355.407 68.3461 355.28 68.8467C355.144 69.3559 355.161 69.865 355.314 70.3741C355.475 70.8917 355.772 71.3584 356.205 71.7911C356.663 72.2493 357.147 72.5633 357.656 72.716C358.173 72.8772 358.674 72.8857 359.158 72.7415C359.65 72.6057 360.091 72.3342 360.498 71.9269C361.177 71.2481 361.406 70.4929 361.186 69.6444L361.695 70.1535C362.611 71.0699 362.594 71.9863 361.661 72.9197C361.296 73.2845 360.931 73.5136 360.549 73.59C360.167 73.6833 359.811 73.6155 359.489 73.3948L358.776 74.1076C359.302 74.5319 359.862 74.6846 360.473 74.5828C361.084 74.481 361.669 74.15 362.229 73.59C363.655 72.1645 363.723 70.7899 362.416 69.4831L358.301 65.3678ZM360.49 70.3062C360.405 70.6626 360.218 70.9681 359.947 71.2396C359.514 71.6723 359.022 71.876 358.462 71.842C357.902 71.8081 357.393 71.5535 356.918 71.0784C356.451 70.6117 356.196 70.1026 356.162 69.5425C356.128 68.9825 356.324 68.4819 356.756 68.0491C357.028 67.7776 357.342 67.5994 357.698 67.5146C358.055 67.4297 358.419 67.4552 358.784 67.5824C359.149 67.7097 359.489 67.9303 359.794 68.2358C360.1 68.5413 360.32 68.8807 360.439 69.2371C360.558 69.5934 360.575 69.9498 360.49 70.3062Z" fill="#A2A2A2"/>
<path d="M360.352 65.3194C360.521 65.8285 360.818 66.2952 361.26 66.7364C361.701 67.1777 362.167 67.4746 362.685 67.6359C363.203 67.7971 363.712 67.7971 364.221 67.6613C364.73 67.5256 365.188 67.2371 365.621 66.8043C366.113 66.3122 366.393 65.7606 366.453 65.1412C366.512 64.5218 366.359 63.9448 366.003 63.4187L365.299 64.123C365.502 64.4793 365.579 64.8442 365.511 65.2176C365.443 65.5909 365.256 65.9303 364.951 66.2358C364.543 66.6431 364.094 66.8382 363.593 66.8298C363.084 66.8298 362.617 66.6176 362.184 66.2018L362.125 66.1425L365.485 62.7823C365.358 62.638 365.273 62.5362 365.205 62.4683C364.772 62.0695 364.314 61.798 363.831 61.6537C363.347 61.5265 362.872 61.5265 362.397 61.6622C361.93 61.8065 361.489 62.078 361.098 62.4683C360.691 62.8756 360.428 63.3253 360.309 63.8175C360.182 64.3181 360.19 64.8187 360.352 65.3194ZM364.204 62.9096L361.59 65.523C361.285 65.1497 361.141 64.7339 361.175 64.2587C361.209 63.8005 361.387 63.4017 361.718 63.0708C362.083 62.7059 362.49 62.5023 362.931 62.4683C363.372 62.4344 363.805 62.5786 364.204 62.9096Z" fill="#A2A2A2"/>
<rect x="303.331" y="91.2133" width="96" height="36" rx="8" transform="rotate(-45 303.331 91.2133)" stroke="#A2A2A2"/>
</g>
<rect x="443.331" y="91.2133" width="96" height="36" rx="8" transform="rotate(-45 443.331 91.2133)" fill="#A2A2A2" fill-opacity="0.1"/>
<path fill-rule="evenodd" clip-rule="evenodd" d="M481.972 65.7438C482.108 65.6083 482.309 65.5622 482.49 65.6249L488.029 67.5466L487.733 65.2064C487.715 65.0627 487.76 64.9182 487.857 64.8103C487.953 64.7023 488.092 64.6416 488.237 64.6439L494.293 64.737L495.172 63.8582C495.367 63.6629 495.683 63.6629 495.879 63.8582C496.074 64.0534 496.074 64.37 495.879 64.5653L484.565 75.879C484.37 76.0742 484.053 76.0742 483.858 75.879C483.663 75.6837 483.663 75.3671 483.858 75.1719L484.665 74.3648L481.853 66.2612C481.791 66.0802 481.837 65.8792 481.972 65.7438ZM485.451 73.579L489.808 69.2222L483.136 66.9077L485.451 73.579ZM490.593 68.4364L493.308 65.722L488.797 65.6526L489.083 67.9123L490.593 68.4364Z" fill="#A2A2A2"/>
<path fill-rule="evenodd" clip-rule="evenodd" d="M487.747 62.0904C488.333 61.5046 488.333 60.5549 487.747 59.9691C487.161 59.3833 486.211 59.3833 485.626 59.9691C485.04 60.5549 485.04 61.5046 485.626 62.0904C486.211 62.6762 487.161 62.6762 487.747 62.0904ZM488.454 62.7975C489.43 61.8212 489.43 60.2383 488.454 59.262C487.478 58.2856 485.895 58.2856 484.919 59.262C483.942 60.2383 483.942 61.8212 484.919 62.7975C485.895 63.7738 487.478 63.7738 488.454 62.7975Z" fill="#A2A2A2"/>
<path d="M478.853 81.5906L484.793 87.5303L485.531 86.7921L479.592 80.8524L478.853 81.5906Z" fill="#A2A2A2"/>
<path d="M488.668 75.8151C488.057 75.8151 487.514 76.0527 487.03 76.5363C486.334 77.2321 486.114 78.0128 486.351 78.8613C485.961 78.7086 485.571 78.6916 485.197 78.7934C484.824 78.8952 484.468 79.0989 484.162 79.4044C483.628 79.9389 483.424 80.5838 483.543 81.3135L482.856 80.8129L482.253 81.4154L486.581 85.7429L487.276 85.0471L484.994 82.7645C484.561 82.3318 484.315 81.8821 484.247 81.4069C484.179 80.9317 484.323 80.5159 484.68 80.1595C485.011 79.8286 485.376 79.6844 485.783 79.7183C486.182 79.7607 486.598 79.9898 487.013 80.4056L489.466 82.8579L490.161 82.1621L487.845 79.8456C487.404 79.4044 487.158 78.9546 487.107 78.4964C487.056 78.0382 487.217 77.6224 487.582 77.2576C487.904 76.9351 488.269 76.7909 488.668 76.8333C489.067 76.8757 489.483 77.1048 489.898 77.5206L492.351 79.9729L493.046 79.2771L490.552 76.7824C489.907 76.1375 489.279 75.8151 488.668 75.8151Z" fill="#A2A2A2"/>
<path d="M497.35 73.7007L497.138 73.9128C496.943 74.1079 496.748 74.0995 496.535 73.8873L494.669 72.0206C494.168 71.5199 493.633 71.2908 493.056 71.3248C492.479 71.3587 491.919 71.6472 491.368 72.1988C490.842 72.7248 490.536 73.2679 490.451 73.8279C490.367 74.388 490.511 74.9056 490.884 75.3807L491.58 74.6849C491.402 74.4219 491.351 74.1334 491.41 73.8025C491.47 73.4715 491.648 73.1576 491.953 72.8521C492.293 72.5127 492.641 72.3345 492.98 72.3006C493.328 72.2751 493.65 72.3939 493.93 72.6739L494.227 72.9709L492.955 74.2437C492.386 74.8122 492.072 75.3638 492.004 75.8899C491.945 76.4244 492.132 76.8996 492.564 77.3324C492.955 77.7227 493.413 77.8924 493.922 77.8245C494.44 77.7651 494.94 77.4851 495.424 77.0014C496.052 76.3735 496.298 75.6523 496.154 74.8292C496.374 75.0498 496.612 75.1516 496.841 75.1431C497.078 75.1431 497.325 74.9989 497.605 74.7189L497.986 74.337L497.35 73.7007ZM494.813 73.5564L495.025 73.7685C495.398 74.1419 495.568 74.5662 495.551 75.0244C495.526 75.491 495.305 75.9323 494.881 76.3565C494.592 76.645 494.304 76.8148 493.998 76.8487C493.701 76.8911 493.447 76.8063 493.226 76.5856C492.751 76.1105 492.827 75.542 493.472 74.8971L494.813 73.5564Z" fill="#A2A2A2"/>
<path d="M498.301 65.3678L497.698 65.9702L498.352 66.8103C497.953 66.7 497.562 66.7 497.181 66.8103C496.79 66.9291 496.417 67.1497 496.069 67.4976C495.67 67.8964 495.407 68.3461 495.28 68.8467C495.144 69.3559 495.161 69.865 495.314 70.3741C495.475 70.8917 495.772 71.3584 496.205 71.7911C496.663 72.2493 497.147 72.5633 497.656 72.716C498.173 72.8772 498.674 72.8857 499.158 72.7415C499.65 72.6057 500.091 72.3342 500.498 71.9269C501.177 71.2481 501.406 70.4929 501.186 69.6444L501.695 70.1535C502.611 71.0699 502.594 71.9863 501.661 72.9197C501.296 73.2845 500.931 73.5136 500.549 73.59C500.167 73.6833 499.811 73.6155 499.489 73.3948L498.776 74.1076C499.302 74.5319 499.862 74.6846 500.473 74.5828C501.084 74.481 501.669 74.15 502.229 73.59C503.655 72.1645 503.723 70.7899 502.416 69.4831L498.301 65.3678ZM500.49 70.3062C500.405 70.6626 500.218 70.9681 499.947 71.2396C499.514 71.6723 499.022 71.876 498.462 71.842C497.902 71.8081 497.393 71.5535 496.918 71.0784C496.451 70.6117 496.196 70.1026 496.162 69.5425C496.128 68.9825 496.324 68.4819 496.756 68.0491C497.028 67.7776 497.342 67.5994 497.698 67.5146C498.055 67.4297 498.419 67.4552 498.784 67.5824C499.149 67.7097 499.489 67.9303 499.794 68.2358C500.1 68.5413 500.32 68.8807 500.439 69.2371C500.558 69.5934 500.575 69.9498 500.49 70.3062Z" fill="#A2A2A2"/>
<path d="M500.352 65.3194C500.521 65.8285 500.818 66.2952 501.26 66.7364C501.701 67.1777 502.167 67.4746 502.685 67.6359C503.203 67.7971 503.712 67.7971 504.221 67.6613C504.73 67.5256 505.188 67.2371 505.621 66.8043C506.113 66.3122 506.393 65.7606 506.453 65.1412C506.512 64.5218 506.359 63.9448 506.003 63.4187L505.299 64.123C505.502 64.4793 505.579 64.8442 505.511 65.2176C505.443 65.5909 505.256 65.9303 504.951 66.2358C504.543 66.6431 504.094 66.8382 503.593 66.8298C503.084 66.8298 502.617 66.6176 502.184 66.2018L502.125 66.1425L505.485 62.7823C505.358 62.638 505.273 62.5362 505.205 62.4683C504.772 62.0695 504.314 61.798 503.831 61.6537C503.347 61.5265 502.872 61.5265 502.397 61.6622C501.93 61.8065 501.489 62.078 501.098 62.4683C500.691 62.8756 500.428 63.3253 500.309 63.8175C500.182 64.3181 500.19 64.8187 500.352 65.3194ZM504.204 62.9096L501.59 65.523C501.285 65.1497 501.141 64.7339 501.175 64.2587C501.209 63.8005 501.387 63.4017 501.718 63.0708C502.083 62.7059 502.49 62.5023 502.931 62.4683C503.372 62.4344 503.805 62.5786 504.204 62.9096Z" fill="#A2A2A2"/>
<rect x="443.331" y="91.2133" width="96" height="36" rx="8" transform="rotate(-45 443.331 91.2133)" stroke="#A2A2A2"/>
<g opacity="0.25">
<rect x="118" y="159.923" width="36" height="36" rx="8" transform="rotate(-16 118 159.923)" fill="#A2A2A2" fill-opacity="0.1"/>
<path fill-rule="evenodd" clip-rule="evenodd" d="M136.805 169.875C136.989 169.822 137.187 169.879 137.315 170.022L141.228 174.388L142.104 172.198C142.158 172.064 142.267 171.959 142.404 171.911C142.541 171.864 142.692 171.878 142.817 171.95L148.069 174.968L149.264 174.625C149.529 174.549 149.806 174.702 149.882 174.968C149.958 175.233 149.805 175.51 149.539 175.586L134.159 179.997C133.894 180.073 133.617 179.919 133.541 179.654C133.464 179.388 133.618 179.111 133.883 179.035L134.98 178.721L136.45 170.27C136.483 170.081 136.621 169.928 136.805 169.875ZM136.049 178.414L141.971 176.716L137.259 171.457L136.049 178.414ZM143.04 176.41L146.73 175.352L142.819 173.104L141.973 175.219L143.04 176.41Z" fill="#A2A2A2"/>
<path fill-rule="evenodd" clip-rule="evenodd" d="M143.627 169.479C144.423 169.251 144.884 168.42 144.655 167.624C144.427 166.828 143.596 166.367 142.8 166.596C142.004 166.824 141.543 167.655 141.772 168.451C142 169.247 142.831 169.708 143.627 169.479ZM143.903 170.441C145.23 170.06 145.997 168.676 145.617 167.348C145.236 166.021 143.852 165.254 142.524 165.634C141.197 166.015 140.43 167.399 140.81 168.727C141.191 170.054 142.575 170.821 143.903 170.441Z" fill="#A2A2A2"/>
<rect x="118" y="159.923" width="36" height="36" rx="8" transform="rotate(-16 118 159.923)" stroke="#A2A2A2"/>
</g>
<rect x="257.736" y="159.923" width="36" height="36" rx="8" transform="rotate(-16 257.736 159.923)" fill="#A2A2A2" fill-opacity="0.1"/>
<path fill-rule="evenodd" clip-rule="evenodd" d="M276.541 169.875C276.725 169.822 276.923 169.879 277.051 170.022L280.964 174.388L281.84 172.198C281.894 172.064 282.003 171.959 282.14 171.911C282.277 171.864 282.428 171.878 282.553 171.95L287.805 174.968L288.999 174.625C289.265 174.549 289.542 174.702 289.618 174.968C289.694 175.233 289.54 175.51 289.275 175.586L273.895 179.997C273.629 180.073 273.353 179.919 273.276 179.654C273.2 179.388 273.354 179.111 273.619 179.035L274.716 178.721L276.186 170.27C276.219 170.081 276.357 169.928 276.541 169.875ZM275.785 178.414L281.707 176.716L276.995 171.457L275.785 178.414ZM282.776 176.41L286.466 175.352L282.554 173.104L281.708 175.219L282.776 176.41Z" fill="#A2A2A2"/>
<path fill-rule="evenodd" clip-rule="evenodd" d="M283.363 169.479C284.159 169.251 284.62 168.42 284.391 167.624C284.163 166.828 283.332 166.367 282.536 166.596C281.74 166.824 281.279 167.655 281.507 168.451C281.736 169.247 282.566 169.708 283.363 169.479ZM283.638 170.441C284.966 170.06 285.733 168.676 285.352 167.348C284.972 166.021 283.587 165.254 282.26 165.634C280.933 166.015 280.166 167.399 280.546 168.727C280.927 170.054 282.311 170.821 283.638 170.441Z" fill="#A2A2A2"/>
<rect x="257.736" y="159.923" width="36" height="36" rx="8" transform="rotate(-16 257.736 159.923)" stroke="#A2A2A2"/>
<g opacity="0.25">
<rect x="397.472" y="159.923" width="36" height="36" rx="8" transform="rotate(-16 397.472 159.923)" fill="#A2A2A2" fill-opacity="0.1"/>
<path fill-rule="evenodd" clip-rule="evenodd" d="M416.277 169.875C416.461 169.822 416.659 169.879 416.787 170.022L420.7 174.388L421.576 172.198C421.629 172.064 421.739 171.959 421.876 171.911C422.013 171.864 422.163 171.878 422.289 171.95L427.54 174.968L428.735 174.625C429.001 174.549 429.278 174.702 429.354 174.968C429.43 175.233 429.276 175.51 429.011 175.586L413.631 179.997C413.365 180.073 413.088 179.919 413.012 179.654C412.936 179.388 413.09 179.111 413.355 179.035L414.452 178.721L415.922 170.27C415.955 170.081 416.093 169.928 416.277 169.875ZM415.52 178.414L421.443 176.716L416.73 171.457L415.52 178.414ZM422.511 176.41L426.201 175.352L422.29 173.104L421.444 175.219L422.511 176.41Z" fill="#A2A2A2"/>
<path fill-rule="evenodd" clip-rule="evenodd" d="M423.099 169.479C423.895 169.251 424.355 168.42 424.127 167.624C423.899 166.828 423.068 166.367 422.272 166.596C421.475 166.824 421.015 167.655 421.243 168.451C421.472 169.247 422.302 169.708 423.099 169.479ZM423.374 170.441C424.701 170.06 425.469 168.676 425.088 167.348C424.708 166.021 423.323 165.254 421.996 165.634C420.669 166.015 419.901 167.399 420.282 168.727C420.663 170.054 422.047 170.821 423.374 170.441Z" fill="#A2A2A2"/>
<rect x="397.472" y="159.923" width="36" height="36" rx="8" transform="rotate(-16 397.472 159.923)" stroke="#A2A2A2"/>
</g>
<rect x="23.3308" y="295.742" width="96" height="36" rx="8" transform="rotate(-45 23.3308 295.742)" fill="#A2A2A2" fill-opacity="0.1"/>
<path fill-rule="evenodd" clip-rule="evenodd" d="M61.9723 270.272C62.1078 270.137 62.3088 270.09 62.4898 270.153L68.0286 272.075L67.7331 269.735C67.7149 269.591 67.76 269.446 67.8567 269.338C67.9533 269.231 68.092 269.17 68.2368 269.172L74.2928 269.265L75.1717 268.386C75.3669 268.191 75.6835 268.191 75.8788 268.386C76.074 268.582 76.074 268.898 75.8788 269.093L64.565 280.407C64.3698 280.602 64.0532 280.602 63.8579 280.407C63.6627 280.212 63.6627 279.895 63.8579 279.7L64.665 278.893L61.8535 270.789C61.7907 270.608 61.8369 270.407 61.9723 270.272ZM65.4508 278.107L69.8076 273.75L63.1363 271.436L65.4508 278.107ZM70.5934 272.965L73.3078 270.25L68.7974 270.181L69.0827 272.441L70.5934 272.965Z" fill="#A2A2A2"/>
<path fill-rule="evenodd" clip-rule="evenodd" d="M67.747 266.619C68.3327 266.033 68.3327 265.083 67.747 264.497C67.1612 263.912 66.2114 263.912 65.6256 264.497C65.0398 265.083 65.0398 266.033 65.6256 266.619C66.2114 267.204 67.1612 267.204 67.747 266.619ZM68.4541 267.326C69.4304 266.349 69.4304 264.767 68.4541 263.79C67.4777 262.814 65.8948 262.814 64.9185 263.79C63.9422 264.767 63.9422 266.349 64.9185 267.326C65.8948 268.302 67.4777 268.302 68.4541 267.326Z" fill="#A2A2A2"/>
<path d="M58.8534 286.119L64.7931 292.059L65.5313 291.32L59.5916 285.381L58.8534 286.119Z" fill="#A2A2A2"/>
<path d="M68.6679 280.343C68.057 280.343 67.5139 280.581 67.0303 281.065C66.3345 281.76 66.1139 282.541 66.3515 283.389C65.9611 283.237 65.5708 283.22 65.1975 283.322C64.8241 283.423 64.4677 283.627 64.1623 283.933C63.6277 284.467 63.424 285.112 63.5428 285.842L62.8555 285.341L62.2531 285.944L66.5806 290.271L67.2764 289.575L64.9938 287.293C64.5611 286.86 64.315 286.41 64.2471 285.935C64.1792 285.46 64.3235 285.044 64.6799 284.688C65.0108 284.357 65.3757 284.213 65.783 284.247C66.1818 284.289 66.5975 284.518 67.0133 284.934L69.4656 287.386L70.1614 286.69L67.8449 284.374C67.4036 283.933 67.1576 283.483 67.1067 283.025C67.0557 282.566 67.217 282.151 67.5818 281.786C67.9043 281.463 68.2691 281.319 68.6679 281.362C69.0668 281.404 69.4825 281.633 69.8983 282.049L72.3506 284.501L73.0464 283.805L70.5517 281.311C69.9068 280.666 69.2789 280.343 68.6679 280.343Z" fill="#A2A2A2"/>
<path d="M77.35 278.229L77.1378 278.441C76.9427 278.636 76.7475 278.628 76.5354 278.416L74.6686 276.549C74.168 276.048 73.6334 275.819 73.0564 275.853C72.4794 275.887 71.9194 276.175 71.3679 276.727C70.8418 277.253 70.5363 277.796 70.4514 278.356C70.3666 278.916 70.5108 279.434 70.8842 279.909L71.58 279.213C71.4018 278.95 71.3509 278.662 71.4103 278.331C71.4697 278 71.6479 277.686 71.9533 277.38C72.2928 277.041 72.6406 276.863 72.9801 276.829C73.328 276.803 73.6504 276.922 73.9304 277.202L74.2274 277.499L72.9546 278.772C72.3861 279.34 72.0721 279.892 72.0043 280.418C71.9449 280.953 72.1315 281.428 72.5643 281.861C72.9546 282.251 73.4128 282.421 73.9219 282.353C74.4395 282.293 74.9402 282.013 75.4238 281.53C76.0517 280.902 76.2978 280.18 76.1536 279.357C76.3742 279.578 76.6118 279.68 76.8409 279.671C77.0785 279.671 77.3245 279.527 77.6045 279.247L77.9864 278.865L77.35 278.229ZM74.8129 278.085L75.025 278.297C75.3984 278.67 75.5681 279.094 75.5511 279.553C75.5256 280.019 75.305 280.46 74.8808 280.885C74.5923 281.173 74.3038 281.343 73.9983 281.377C73.7013 281.419 73.4468 281.334 73.2261 281.114C72.751 280.639 72.8273 280.07 73.4722 279.425L74.8129 278.085Z" fill="#A2A2A2"/>
<path d="M78.3007 269.896L77.6982 270.498L78.3516 271.338C77.9528 271.228 77.5624 271.228 77.1806 271.338C76.7903 271.457 76.4169 271.678 76.069 272.026C75.6702 272.425 75.4072 272.874 75.2799 273.375C75.1441 273.884 75.1611 274.393 75.3138 274.902C75.4751 275.42 75.772 275.887 76.2048 276.319C76.663 276.778 77.1467 277.091 77.6558 277.244C78.1734 277.405 78.674 277.414 79.1577 277.27C79.6498 277.134 80.0911 276.862 80.4984 276.455C81.1772 275.776 81.4063 275.021 81.1857 274.173L81.6948 274.682C82.6112 275.598 82.5942 276.514 81.6608 277.448C81.296 277.813 80.9311 278.042 80.5493 278.118C80.1674 278.212 79.811 278.144 79.4886 277.923L78.7758 278.636C79.3019 279.06 79.862 279.213 80.4729 279.111C81.0838 279.009 81.6693 278.678 82.2293 278.118C83.6549 276.693 83.7228 275.318 82.416 274.011L78.3007 269.896ZM80.4899 274.834C80.405 275.191 80.2183 275.496 79.9468 275.768C79.5141 276.201 79.0219 276.404 78.4619 276.37C77.9019 276.336 77.3927 276.082 76.9176 275.607C76.4509 275.14 76.1963 274.631 76.1624 274.071C76.1284 273.511 76.3236 273.01 76.7563 272.577C77.0279 272.306 77.3418 272.128 77.6982 272.043C78.0546 271.958 78.4195 271.983 78.7843 272.111C79.1492 272.238 79.4886 272.459 79.7941 272.764C80.0995 273.069 80.3202 273.409 80.439 273.765C80.5577 274.122 80.5747 274.478 80.4899 274.834Z" fill="#A2A2A2"/>
<path d="M80.3516 269.848C80.5213 270.357 80.8183 270.823 81.2595 271.265C81.7007 271.706 82.1674 272.003 82.685 272.164C83.2026 272.325 83.7118 272.325 84.2209 272.19C84.73 272.054 85.1882 271.765 85.6209 271.333C86.1131 270.84 86.3931 270.289 86.4525 269.669C86.5119 269.05 86.3592 268.473 86.0028 267.947L85.2985 268.651C85.5021 269.008 85.5785 269.372 85.5106 269.746C85.4428 270.119 85.2561 270.459 84.9506 270.764C84.5433 271.171 84.0936 271.366 83.593 271.358C83.0838 271.358 82.6172 271.146 82.1844 270.73L82.125 270.671L85.4852 267.31C85.3579 267.166 85.273 267.064 85.2052 266.997C84.7724 266.598 84.3142 266.326 83.8305 266.182C83.3469 266.055 82.8717 266.055 82.3965 266.19C81.9298 266.335 81.4886 266.606 81.0983 266.997C80.691 267.404 80.428 267.854 80.3092 268.346C80.1819 268.846 80.1904 269.347 80.3516 269.848ZM84.2039 267.438L81.5904 270.051C81.285 269.678 81.1407 269.262 81.1747 268.787C81.2086 268.329 81.3868 267.93 81.7177 267.599C82.0826 267.234 82.4899 267.03 82.9311 266.997C83.3723 266.963 83.8051 267.107 84.2039 267.438Z" fill="#A2A2A2"/>
<rect x="23.3308" y="295.742" width="96" height="36" rx="8" transform="rotate(-45 23.3308 295.742)" stroke="#A2A2A2"/>
<g opacity="0.75">
<rect x="163.331" y="295.742" width="96" height="36" rx="8" transform="rotate(-45 163.331 295.742)" fill="#A2A2A2" fill-opacity="0.1"/>
<path fill-rule="evenodd" clip-rule="evenodd" d="M201.972 270.272C202.108 270.137 202.309 270.09 202.49 270.153L208.029 272.075L207.733 269.735C207.715 269.591 207.76 269.446 207.857 269.338C207.953 269.231 208.092 269.17 208.237 269.172L214.293 269.265L215.172 268.386C215.367 268.191 215.683 268.191 215.879 268.386C216.074 268.582 216.074 268.898 215.879 269.093L204.565 280.407C204.37 280.602 204.053 280.602 203.858 280.407C203.663 280.212 203.663 279.895 203.858 279.7L204.665 278.893L201.853 270.789C201.791 270.608 201.837 270.407 201.972 270.272ZM205.451 278.107L209.808 273.75L203.136 271.436L205.451 278.107ZM210.593 272.965L213.308 270.25L208.797 270.181L209.083 272.441L210.593 272.965Z" fill="#A2A2A2"/>
<path fill-rule="evenodd" clip-rule="evenodd" d="M207.747 266.619C208.333 266.033 208.333 265.083 207.747 264.497C207.161 263.912 206.211 263.912 205.626 264.497C205.04 265.083 205.04 266.033 205.626 266.619C206.211 267.204 207.161 267.204 207.747 266.619ZM208.454 267.326C209.43 266.349 209.43 264.767 208.454 263.79C207.478 262.814 205.895 262.814 204.919 263.79C203.942 264.767 203.942 266.349 204.919 267.326C205.895 268.302 207.478 268.302 208.454 267.326Z" fill="#A2A2A2"/>
<path d="M198.853 286.119L204.793 292.059L205.531 291.32L199.592 285.381L198.853 286.119Z" fill="#A2A2A2"/>
<path d="M208.668 280.343C208.057 280.343 207.514 280.581 207.03 281.065C206.334 281.76 206.114 282.541 206.351 283.389C205.961 283.237 205.571 283.22 205.197 283.322C204.824 283.423 204.468 283.627 204.162 283.933C203.628 284.467 203.424 285.112 203.543 285.842L202.856 285.341L202.253 285.944L206.581 290.271L207.276 289.575L204.994 287.293C204.561 286.86 204.315 286.41 204.247 285.935C204.179 285.46 204.323 285.044 204.68 284.688C205.011 284.357 205.376 284.213 205.783 284.247C206.182 284.289 206.598 284.518 207.013 284.934L209.466 287.386L210.161 286.69L207.845 284.374C207.404 283.933 207.158 283.483 207.107 283.025C207.056 282.566 207.217 282.151 207.582 281.786C207.904 281.463 208.269 281.319 208.668 281.362C209.067 281.404 209.483 281.633 209.898 282.049L212.351 284.501L213.046 283.805L210.552 281.311C209.907 280.666 209.279 280.343 208.668 280.343Z" fill="#A2A2A2"/>
<path d="M217.35 278.229L217.138 278.441C216.943 278.636 216.748 278.628 216.535 278.416L214.669 276.549C214.168 276.048 213.633 275.819 213.056 275.853C212.479 275.887 211.919 276.175 211.368 276.727C210.842 277.253 210.536 277.796 210.451 278.356C210.367 278.916 210.511 279.434 210.884 279.909L211.58 279.213C211.402 278.95 211.351 278.662 211.41 278.331C211.47 278 211.648 277.686 211.953 277.38C212.293 277.041 212.641 276.863 212.98 276.829C213.328 276.803 213.65 276.922 213.93 277.202L214.227 277.499L212.955 278.772C212.386 279.34 212.072 279.892 212.004 280.418C211.945 280.953 212.132 281.428 212.564 281.861C212.955 282.251 213.413 282.421 213.922 282.353C214.44 282.293 214.94 282.013 215.424 281.53C216.052 280.902 216.298 280.18 216.154 279.357C216.374 279.578 216.612 279.68 216.841 279.671C217.078 279.671 217.325 279.527 217.605 279.247L217.986 278.865L217.35 278.229ZM214.813 278.085L215.025 278.297C215.398 278.67 215.568 279.094 215.551 279.553C215.526 280.019 215.305 280.46 214.881 280.885C214.592 281.173 214.304 281.343 213.998 281.377C213.701 281.419 213.447 281.334 213.226 281.114C212.751 280.639 212.827 280.07 213.472 279.425L214.813 278.085Z" fill="#A2A2A2"/>
<path d="M218.301 269.896L217.698 270.498L218.352 271.338C217.953 271.228 217.562 271.228 217.181 271.338C216.79 271.457 216.417 271.678 216.069 272.026C215.67 272.425 215.407 272.874 215.28 273.375C215.144 273.884 215.161 274.393 215.314 274.902C215.475 275.42 215.772 275.887 216.205 276.319C216.663 276.778 217.147 277.091 217.656 277.244C218.173 277.405 218.674 277.414 219.158 277.27C219.65 277.134 220.091 276.862 220.498 276.455C221.177 275.776 221.406 275.021 221.186 274.173L221.695 274.682C222.611 275.598 222.594 276.514 221.661 277.448C221.296 277.813 220.931 278.042 220.549 278.118C220.167 278.212 219.811 278.144 219.489 277.923L218.776 278.636C219.302 279.06 219.862 279.213 220.473 279.111C221.084 279.009 221.669 278.678 222.229 278.118C223.655 276.693 223.723 275.318 222.416 274.011L218.301 269.896ZM220.49 274.834C220.405 275.191 220.218 275.496 219.947 275.768C219.514 276.201 219.022 276.404 218.462 276.37C217.902 276.336 217.393 276.082 216.918 275.607C216.451 275.14 216.196 274.631 216.162 274.071C216.128 273.511 216.324 273.01 216.756 272.577C217.028 272.306 217.342 272.128 217.698 272.043C218.055 271.958 218.419 271.983 218.784 272.111C219.149 272.238 219.489 272.459 219.794 272.764C220.1 273.069 220.32 273.409 220.439 273.765C220.558 274.122 220.575 274.478 220.49 274.834Z" fill="#A2A2A2"/>
<path d="M220.352 269.848C220.521 270.357 220.818 270.823 221.26 271.265C221.701 271.706 222.167 272.003 222.685 272.164C223.203 272.325 223.712 272.325 224.221 272.19C224.73 272.054 225.188 271.765 225.621 271.333C226.113 270.84 226.393 270.289 226.453 269.669C226.512 269.05 226.359 268.473 226.003 267.947L225.299 268.651C225.502 269.008 225.579 269.372 225.511 269.746C225.443 270.119 225.256 270.459 224.951 270.764C224.543 271.171 224.094 271.366 223.593 271.358C223.084 271.358 222.617 271.146 222.184 270.73L222.125 270.671L225.485 267.31C225.358 267.166 225.273 267.064 225.205 266.997C224.772 266.598 224.314 266.326 223.831 266.182C223.347 266.055 222.872 266.055 222.397 266.19C221.93 266.335 221.489 266.606 221.098 266.997C220.691 267.404 220.428 267.854 220.309 268.346C220.182 268.846 220.19 269.347 220.352 269.848ZM224.204 267.438L221.59 270.051C221.285 269.678 221.141 269.262 221.175 268.787C221.209 268.329 221.387 267.93 221.718 267.599C222.083 267.234 222.49 267.03 222.931 266.997C223.372 266.963 223.805 267.107 224.204 267.438Z" fill="#A2A2A2"/>
<rect x="163.331" y="295.742" width="96" height="36" rx="8" transform="rotate(-45 163.331 295.742)" stroke="#A2A2A2"/>
</g>
<g opacity="0.5">
<rect x="303.331" y="295.742" width="96" height="36" rx="8" transform="rotate(-45 303.331 295.742)" fill="#A2A2A2" fill-opacity="0.1"/>
<path fill-rule="evenodd" clip-rule="evenodd" d="M341.972 270.272C342.108 270.137 342.309 270.09 342.49 270.153L348.029 272.075L347.733 269.735C347.715 269.591 347.76 269.446 347.857 269.338C347.953 269.231 348.092 269.17 348.237 269.172L354.293 269.265L355.172 268.386C355.367 268.191 355.683 268.191 355.879 268.386C356.074 268.582 356.074 268.898 355.879 269.093L344.565 280.407C344.37 280.602 344.053 280.602 343.858 280.407C343.663 280.212 343.663 279.895 343.858 279.7L344.665 278.893L341.853 270.789C341.791 270.608 341.837 270.407 341.972 270.272ZM345.451 278.107L349.808 273.75L343.136 271.436L345.451 278.107ZM350.593 272.965L353.308 270.25L348.797 270.181L349.083 272.441L350.593 272.965Z" fill="#A2A2A2"/>
<path fill-rule="evenodd" clip-rule="evenodd" d="M347.747 266.619C348.333 266.033 348.333 265.083 347.747 264.497C347.161 263.912 346.211 263.912 345.626 264.497C345.04 265.083 345.04 266.033 345.626 266.619C346.211 267.204 347.161 267.204 347.747 266.619ZM348.454 267.326C349.43 266.349 349.43 264.767 348.454 263.79C347.478 262.814 345.895 262.814 344.919 263.79C343.942 264.767 343.942 266.349 344.919 267.326C345.895 268.302 347.478 268.302 348.454 267.326Z" fill="#A2A2A2"/>
<path d="M338.853 286.119L344.793 292.059L345.531 291.32L339.592 285.381L338.853 286.119Z" fill="#A2A2A2"/>
<path d="M348.668 280.343C348.057 280.343 347.514 280.581 347.03 281.065C346.334 281.76 346.114 282.541 346.351 283.389C345.961 283.237 345.571 283.22 345.197 283.322C344.824 283.423 344.468 283.627 344.162 283.933C343.628 284.467 343.424 285.112 343.543 285.842L342.856 285.341L342.253 285.944L346.581 290.271L347.276 289.575L344.994 287.293C344.561 286.86 344.315 286.41 344.247 285.935C344.179 285.46 344.323 285.044 344.68 284.688C345.011 284.357 345.376 284.213 345.783 284.247C346.182 284.289 346.598 284.518 347.013 284.934L349.466 287.386L350.161 286.69L347.845 284.374C347.404 283.933 347.158 283.483 347.107 283.025C347.056 282.566 347.217 282.151 347.582 281.786C347.904 281.463 348.269 281.319 348.668 281.362C349.067 281.404 349.483 281.633 349.898 282.049L352.351 284.501L353.046 283.805L350.552 281.311C349.907 280.666 349.279 280.343 348.668 280.343Z" fill="#A2A2A2"/>
<path d="M357.35 278.229L357.138 278.441C356.943 278.636 356.748 278.628 356.535 278.416L354.669 276.549C354.168 276.048 353.633 275.819 353.056 275.853C352.479 275.887 351.919 276.175 351.368 276.727C350.842 277.253 350.536 277.796 350.451 278.356C350.367 278.916 350.511 279.434 350.884 279.909L351.58 279.213C351.402 278.95 351.351 278.662 351.41 278.331C351.47 278 351.648 277.686 351.953 277.38C352.293 277.041 352.641 276.863 352.98 276.829C353.328 276.803 353.65 276.922 353.93 277.202L354.227 277.499L352.955 278.772C352.386 279.34 352.072 279.892 352.004 280.418C351.945 280.953 352.132 281.428 352.564 281.861C352.955 282.251 353.413 282.421 353.922 282.353C354.44 282.293 354.94 282.013 355.424 281.53C356.052 280.902 356.298 280.18 356.154 279.357C356.374 279.578 356.612 279.68 356.841 279.671C357.078 279.671 357.325 279.527 357.605 279.247L357.986 278.865L357.35 278.229ZM354.813 278.085L355.025 278.297C355.398 278.67 355.568 279.094 355.551 279.553C355.526 280.019 355.305 280.46 354.881 280.885C354.592 281.173 354.304 281.343 353.998 281.377C353.701 281.419 353.447 281.334 353.226 281.114C352.751 280.639 352.827 280.07 353.472 279.425L354.813 278.085Z" fill="#A2A2A2"/>
<path d="M358.301 269.896L357.698 270.498L358.352 271.338C357.953 271.228 357.562 271.228 357.181 271.338C356.79 271.457 356.417 271.678 356.069 272.026C355.67 272.425 355.407 272.874 355.28 273.375C355.144 273.884 355.161 274.393 355.314 274.902C355.475 275.42 355.772 275.887 356.205 276.319C356.663 276.778 357.147 277.091 357.656 277.244C358.173 277.405 358.674 277.414 359.158 277.27C359.65 277.134 360.091 276.862 360.498 276.455C361.177 275.776 361.406 275.021 361.186 274.173L361.695 274.682C362.611 275.598 362.594 276.514 361.661 277.448C361.296 277.813 360.931 278.042 360.549 278.118C360.167 278.212 359.811 278.144 359.489 277.923L358.776 278.636C359.302 279.06 359.862 279.213 360.473 279.111C361.084 279.009 361.669 278.678 362.229 278.118C363.655 276.693 363.723 275.318 362.416 274.011L358.301 269.896ZM360.49 274.834C360.405 275.191 360.218 275.496 359.947 275.768C359.514 276.201 359.022 276.404 358.462 276.37C357.902 276.336 357.393 276.082 356.918 275.607C356.451 275.14 356.196 274.631 356.162 274.071C356.128 273.511 356.324 273.01 356.756 272.577C357.028 272.306 357.342 272.128 357.698 272.043C358.055 271.958 358.419 271.983 358.784 272.111C359.149 272.238 359.489 272.459 359.794 272.764C360.1 273.069 360.32 273.409 360.439 273.765C360.558 274.122 360.575 274.478 360.49 274.834Z" fill="#A2A2A2"/>
<path d="M360.352 269.848C360.521 270.357 360.818 270.823 361.26 271.265C361.701 271.706 362.167 272.003 362.685 272.164C363.203 272.325 363.712 272.325 364.221 272.19C364.73 272.054 365.188 271.765 365.621 271.333C366.113 270.84 366.393 270.289 366.453 269.669C366.512 269.05 366.359 268.473 366.003 267.947L365.299 268.651C365.502 269.008 365.579 269.372 365.511 269.746C365.443 270.119 365.256 270.459 364.951 270.764C364.543 271.171 364.094 271.366 363.593 271.358C363.084 271.358 362.617 271.146 362.184 270.73L362.125 270.671L365.485 267.31C365.358 267.166 365.273 267.064 365.205 266.997C364.772 266.598 364.314 266.326 363.831 266.182C363.347 266.055 362.872 266.055 362.397 266.19C361.93 266.335 361.489 266.606 361.098 266.997C360.691 267.404 360.428 267.854 360.309 268.346C360.182 268.846 360.19 269.347 360.352 269.848ZM364.204 267.438L361.59 270.051C361.285 269.678 361.141 269.262 361.175 268.787C361.209 268.329 361.387 267.93 361.718 267.599C362.083 267.234 362.49 267.03 362.931 266.997C363.372 266.963 363.805 267.107 364.204 267.438Z" fill="#A2A2A2"/>
<rect x="303.331" y="295.742" width="96" height="36" rx="8" transform="rotate(-45 303.331 295.742)" stroke="#A2A2A2"/>
</g>
<g opacity="0.25">
<rect x="443.331" y="295.742" width="96" height="36" rx="8" transform="rotate(-45 443.331 295.742)" fill="#A2A2A2" fill-opacity="0.1"/>
<path fill-rule="evenodd" clip-rule="evenodd" d="M481.972 270.272C482.108 270.137 482.309 270.09 482.49 270.153L488.029 272.075L487.733 269.735C487.715 269.591 487.76 269.446 487.857 269.338C487.953 269.231 488.092 269.17 488.237 269.172L494.293 269.265L495.172 268.386C495.367 268.191 495.683 268.191 495.879 268.386C496.074 268.582 496.074 268.898 495.879 269.093L484.565 280.407C484.37 280.602 484.053 280.602 483.858 280.407C483.663 280.212 483.663 279.895 483.858 279.7L484.665 278.893L481.853 270.789C481.791 270.608 481.837 270.407 481.972 270.272ZM485.451 278.107L489.808 273.75L483.136 271.436L485.451 278.107ZM490.593 272.965L493.308 270.25L488.797 270.181L489.083 272.441L490.593 272.965Z" fill="#A2A2A2"/>
<path fill-rule="evenodd" clip-rule="evenodd" d="M487.747 266.619C488.333 266.033 488.333 265.083 487.747 264.497C487.161 263.912 486.211 263.912 485.626 264.497C485.04 265.083 485.04 266.033 485.626 266.619C486.211 267.204 487.161 267.204 487.747 266.619ZM488.454 267.326C489.43 266.349 489.43 264.767 488.454 263.79C487.478 262.814 485.895 262.814 484.919 263.79C483.942 264.767 483.942 266.349 484.919 267.326C485.895 268.302 487.478 268.302 488.454 267.326Z" fill="#A2A2A2"/>
<path d="M478.853 286.119L484.793 292.059L485.531 291.32L479.592 285.381L478.853 286.119Z" fill="#A2A2A2"/>
<path d="M488.668 280.343C488.057 280.343 487.514 280.581 487.03 281.065C486.334 281.76 486.114 282.541 486.351 283.389C485.961 283.237 485.571 283.22 485.197 283.322C484.824 283.423 484.468 283.627 484.162 283.933C483.628 284.467 483.424 285.112 483.543 285.842L482.856 285.341L482.253 285.944L486.581 290.271L487.276 289.575L484.994 287.293C484.561 286.86 484.315 286.41 484.247 285.935C484.179 285.46 484.323 285.044 484.68 284.688C485.011 284.357 485.376 284.213 485.783 284.247C486.182 284.289 486.598 284.518 487.013 284.934L489.466 287.386L490.161 286.69L487.845 284.374C487.404 283.933 487.158 283.483 487.107 283.025C487.056 282.566 487.217 282.151 487.582 281.786C487.904 281.463 488.269 281.319 488.668 281.362C489.067 281.404 489.483 281.633 489.898 282.049L492.351 284.501L493.046 283.805L490.552 281.311C489.907 280.666 489.279 280.343 488.668 280.343Z" fill="#A2A2A2"/>
<path d="M497.35 278.229L497.138 278.441C496.943 278.636 496.748 278.628 496.535 278.416L494.669 276.549C494.168 276.048 493.633 275.819 493.056 275.853C492.479 275.887 491.919 276.175 491.368 276.727C490.842 277.253 490.536 277.796 490.451 278.356C490.367 278.916 490.511 279.434 490.884 279.909L491.58 279.213C491.402 278.95 491.351 278.662 491.41 278.331C491.47 278 491.648 277.686 491.953 277.38C492.293 277.041 492.641 276.863 492.98 276.829C493.328 276.803 493.65 276.922 493.93 277.202L494.227 277.499L492.955 278.772C492.386 279.34 492.072 279.892 492.004 280.418C491.945 280.953 492.132 281.428 492.564 281.861C492.955 282.251 493.413 282.421 493.922 282.353C494.44 282.293 494.94 282.013 495.424 281.53C496.052 280.902 496.298 280.18 496.154 279.357C496.374 279.578 496.612 279.68 496.841 279.671C497.078 279.671 497.325 279.527 497.605 279.247L497.986 278.865L497.35 278.229ZM494.813 278.085L495.025 278.297C495.398 278.67 495.568 279.094 495.551 279.553C495.526 280.019 495.305 280.46 494.881 280.885C494.592 281.173 494.304 281.343 493.998 281.377C493.701 281.419 493.447 281.334 493.226 281.114C492.751 280.639 492.827 280.07 493.472 279.425L494.813 278.085Z" fill="#A2A2A2"/>
<path d="M498.301 269.896L497.698 270.498L498.352 271.338C497.953 271.228 497.562 271.228 497.181 271.338C496.79 271.457 496.417 271.678 496.069 272.026C495.67 272.425 495.407 272.874 495.28 273.375C495.144 273.884 495.161 274.393 495.314 274.902C495.475 275.42 495.772 275.887 496.205 276.319C496.663 276.778 497.147 277.091 497.656 277.244C498.173 277.405 498.674 277.414 499.158 277.27C499.65 277.134 500.091 276.862 500.498 276.455C501.177 275.776 501.406 275.021 501.186 274.173L501.695 274.682C502.611 275.598 502.594 276.514 501.661 277.448C501.296 277.813 500.931 278.042 500.549 278.118C500.167 278.212 499.811 278.144 499.489 277.923L498.776 278.636C499.302 279.06 499.862 279.213 500.473 279.111C501.084 279.009 501.669 278.678 502.229 278.118C503.655 276.693 503.723 275.318 502.416 274.011L498.301 269.896ZM500.49 274.834C500.405 275.191 500.218 275.496 499.947 275.768C499.514 276.201 499.022 276.404 498.462 276.37C497.902 276.336 497.393 276.082 496.918 275.607C496.451 275.14 496.196 274.631 496.162 274.071C496.128 273.511 496.324 273.01 496.756 272.577C497.028 272.306 497.342 272.128 497.698 272.043C498.055 271.958 498.419 271.983 498.784 272.111C499.149 272.238 499.489 272.459 499.794 272.764C500.1 273.069 500.32 273.409 500.439 273.765C500.558 274.122 500.575 274.478 500.49 274.834Z" fill="#A2A2A2"/>
<path d="M500.352 269.848C500.521 270.357 500.818 270.823 501.26 271.265C501.701 271.706 502.167 272.003 502.685 272.164C503.203 272.325 503.712 272.325 504.221 272.19C504.73 272.054 505.188 271.765 505.621 271.333C506.113 270.84 506.393 270.289 506.453 269.669C506.512 269.05 506.359 268.473 506.003 267.947L505.299 268.651C505.502 269.008 505.579 269.372 505.511 269.746C505.443 270.119 505.256 270.459 504.951 270.764C504.543 271.171 504.094 271.366 503.593 271.358C503.084 271.358 502.617 271.146 502.184 270.73L502.125 270.671L505.485 267.31C505.358 267.166 505.273 267.064 505.205 266.997C504.772 266.598 504.314 266.326 503.831 266.182C503.347 266.055 502.872 266.055 502.397 266.19C501.93 266.335 501.489 266.606 501.098 266.997C500.691 267.404 500.428 267.854 500.309 268.346C500.182 268.846 500.19 269.347 500.352 269.848ZM504.204 267.438L501.59 270.051C501.285 269.678 501.141 269.262 501.175 268.787C501.209 268.329 501.387 267.93 501.718 267.599C502.083 267.234 502.49 267.03 502.931 266.997C503.372 266.963 503.805 267.107 504.204 267.438Z" fill="#A2A2A2"/>
<rect x="443.331" y="295.742" width="96" height="36" rx="8" transform="rotate(-45 443.331 295.742)" stroke="#A2A2A2"/>
</g>
<g opacity="0.25">
<rect x="118" y="364.451" width="36" height="36" rx="8" transform="rotate(-16 118 364.451)" fill="#A2A2A2" fill-opacity="0.1"/>
<path fill-rule="evenodd" clip-rule="evenodd" d="M136.805 374.404C136.989 374.351 137.187 374.408 137.315 374.55L141.228 378.916L142.104 376.726C142.158 376.592 142.267 376.487 142.404 376.44C142.541 376.392 142.692 376.406 142.817 376.479L148.069 379.496L149.264 379.153C149.529 379.077 149.806 379.231 149.882 379.496C149.958 379.762 149.805 380.039 149.539 380.115L134.159 384.525C133.894 384.601 133.617 384.448 133.541 384.182C133.464 383.917 133.618 383.64 133.883 383.564L134.98 383.249L136.45 374.798C136.483 374.61 136.621 374.456 136.805 374.404ZM136.049 382.943L141.971 381.244L137.259 375.986L136.049 382.943ZM143.04 380.938L146.73 379.88L142.819 377.633L141.973 379.747L143.04 380.938Z" fill="#A2A2A2"/>
<path fill-rule="evenodd" clip-rule="evenodd" d="M143.627 374.008C144.423 373.78 144.884 372.949 144.655 372.153C144.427 371.356 143.596 370.896 142.8 371.124C142.004 371.352 141.543 372.183 141.772 372.979C142 373.776 142.831 374.236 143.627 374.008ZM143.903 374.969C145.23 374.589 145.997 373.204 145.617 371.877C145.236 370.55 143.852 369.782 142.524 370.163C141.197 370.543 140.43 371.928 140.81 373.255C141.191 374.582 142.575 375.35 143.903 374.969Z" fill="#A2A2A2"/>
<rect x="118" y="364.451" width="36" height="36" rx="8" transform="rotate(-16 118 364.451)" stroke="#A2A2A2"/>
</g>
<rect x="257.736" y="364.451" width="36" height="36" rx="8" transform="rotate(-16 257.736 364.451)" fill="#A2A2A2" fill-opacity="0.1"/>
<path fill-rule="evenodd" clip-rule="evenodd" d="M276.541 374.404C276.725 374.351 276.923 374.408 277.051 374.55L280.964 378.916L281.84 376.726C281.894 376.592 282.003 376.487 282.14 376.44C282.277 376.392 282.428 376.406 282.553 376.479L287.805 379.496L288.999 379.153C289.265 379.077 289.542 379.231 289.618 379.496C289.694 379.762 289.54 380.039 289.275 380.115L273.895 384.525C273.629 384.601 273.353 384.448 273.276 384.182C273.2 383.917 273.354 383.64 273.619 383.564L274.716 383.249L276.186 374.798C276.219 374.61 276.357 374.456 276.541 374.404ZM275.785 382.943L281.707 381.244L276.995 375.986L275.785 382.943ZM282.776 380.938L286.466 379.88L282.554 377.633L281.708 379.747L282.776 380.938Z" fill="#A2A2A2"/>
<path fill-rule="evenodd" clip-rule="evenodd" d="M283.363 374.008C284.159 373.78 284.62 372.949 284.391 372.153C284.163 371.356 283.332 370.896 282.536 371.124C281.74 371.352 281.279 372.183 281.507 372.979C281.736 373.776 282.566 374.236 283.363 374.008ZM283.638 374.969C284.966 374.589 285.733 373.204 285.352 371.877C284.972 370.55 283.587 369.782 282.26 370.163C280.933 370.543 280.166 371.928 280.546 373.255C280.927 374.582 282.311 375.35 283.638 374.969Z" fill="#A2A2A2"/>
<rect x="257.736" y="364.451" width="36" height="36" rx="8" transform="rotate(-16 257.736 364.451)" stroke="#A2A2A2"/>
<g opacity="0.25">
<rect x="397.472" y="364.451" width="36" height="36" rx="8" transform="rotate(-16 397.472 364.451)" fill="#A2A2A2" fill-opacity="0.1"/>
<path fill-rule="evenodd" clip-rule="evenodd" d="M416.277 374.404C416.461 374.351 416.659 374.408 416.787 374.55L420.7 378.916L421.576 376.726C421.629 376.592 421.739 376.487 421.876 376.44C422.013 376.392 422.163 376.406 422.289 376.479L427.54 379.496L428.735 379.153C429.001 379.077 429.278 379.231 429.354 379.496C429.43 379.762 429.276 380.039 429.011 380.115L413.631 384.525C413.365 384.601 413.088 384.448 413.012 384.182C412.936 383.917 413.09 383.64 413.355 383.564L414.452 383.249L415.922 374.798C415.955 374.61 416.093 374.456 416.277 374.404ZM415.52 382.943L421.443 381.244L416.73 375.986L415.52 382.943ZM422.511 380.938L426.201 379.88L422.29 377.633L421.444 379.747L422.511 380.938Z" fill="#A2A2A2"/>
<path fill-rule="evenodd" clip-rule="evenodd" d="M423.099 374.008C423.895 373.78 424.355 372.949 424.127 372.153C423.899 371.356 423.068 370.896 422.272 371.124C421.475 371.352 421.015 372.183 421.243 372.979C421.472 373.776 422.302 374.236 423.099 374.008ZM423.374 374.969C424.701 374.589 425.469 373.204 425.088 371.877C424.708 370.55 423.323 369.782 421.996 370.163C420.669 370.543 419.901 371.928 420.282 373.255C420.663 374.582 422.047 375.35 423.374 374.969Z" fill="#A2A2A2"/>
<rect x="397.472" y="364.451" width="36" height="36" rx="8" transform="rotate(-16 397.472 364.451)" stroke="#A2A2A2"/>
</g>
<g opacity="0.25">
<rect x="23.3308" y="500.27" width="96" height="36" rx="8" transform="rotate(-45 23.3308 500.27)" fill="#A2A2A2" fill-opacity="0.1"/>
<path fill-rule="evenodd" clip-rule="evenodd" d="M61.9723 474.8C62.1078 474.665 62.3088 474.619 62.4898 474.682L68.0286 476.603L67.7331 474.263C67.7149 474.119 67.76 473.975 67.8567 473.867C67.9533 473.759 68.092 473.698 68.2368 473.7L74.2928 473.794L75.1717 472.915C75.3669 472.72 75.6835 472.72 75.8788 472.915C76.074 473.11 76.074 473.427 75.8788 473.622L64.565 484.936C64.3698 485.131 64.0532 485.131 63.8579 484.936C63.6627 484.74 63.6627 484.424 63.8579 484.228L64.665 483.421L61.8535 475.318C61.7907 475.137 61.8369 474.936 61.9723 474.8ZM65.4508 482.636L69.8076 478.279L63.1363 475.964L65.4508 482.636ZM70.5934 477.493L73.3078 474.779L68.7974 474.709L69.0827 476.969L70.5934 477.493Z" fill="#A2A2A2"/>
<path fill-rule="evenodd" clip-rule="evenodd" d="M67.747 471.147C68.3327 470.561 68.3327 469.611 67.747 469.026C67.1612 468.44 66.2114 468.44 65.6256 469.026C65.0398 469.611 65.0398 470.561 65.6256 471.147C66.2114 471.733 67.1612 471.733 67.747 471.147ZM68.4541 471.854C69.4304 470.878 69.4304 469.295 68.4541 468.319C67.4777 467.342 65.8948 467.342 64.9185 468.319C63.9422 469.295 63.9422 470.878 64.9185 471.854C65.8948 472.83 67.4777 472.83 68.4541 471.854Z" fill="#A2A2A2"/>
<path d="M58.8534 490.647L64.7931 496.587L65.5313 495.849L59.5916 489.909L58.8534 490.647Z" fill="#A2A2A2"/>
<path d="M68.6679 484.872C68.057 484.872 67.5139 485.109 67.0303 485.593C66.3345 486.289 66.1139 487.069 66.3515 487.918C65.9611 487.765 65.5708 487.748 65.1975 487.85C64.8241 487.952 64.4677 488.155 64.1623 488.461C63.6277 488.996 63.424 489.64 63.5428 490.37L62.8555 489.869L62.2531 490.472L66.5806 494.799L67.2764 494.104L64.9938 491.821C64.5611 491.388 64.315 490.939 64.2471 490.463C64.1792 489.988 64.3235 489.573 64.6799 489.216C65.0108 488.885 65.3757 488.741 65.783 488.775C66.1818 488.817 66.5975 489.046 67.0133 489.462L69.4656 491.914L70.1614 491.219L67.8449 488.902C67.4036 488.461 67.1576 488.011 67.1067 487.553C67.0557 487.095 67.217 486.679 67.5818 486.314C67.9043 485.992 68.2691 485.847 68.6679 485.89C69.0668 485.932 69.4825 486.161 69.8983 486.577L72.3506 489.029L73.0464 488.334L70.5517 485.839C69.9068 485.194 69.2789 484.872 68.6679 484.872Z" fill="#A2A2A2"/>
<path d="M77.35 482.757L77.1378 482.969C76.9427 483.165 76.7475 483.156 76.5354 482.944L74.6686 481.077C74.168 480.577 73.6334 480.347 73.0564 480.381C72.4794 480.415 71.9194 480.704 71.3679 481.255C70.8418 481.781 70.5363 482.324 70.4514 482.885C70.3666 483.445 70.5108 483.962 70.8842 484.437L71.58 483.742C71.4018 483.478 71.3509 483.19 71.4103 482.859C71.4697 482.528 71.6479 482.214 71.9533 481.909C72.2928 481.569 72.6406 481.391 72.9801 481.357C73.328 481.332 73.6504 481.45 73.9304 481.731L74.2274 482.027L72.9546 483.3C72.3861 483.869 72.0721 484.42 72.0043 484.946C71.9449 485.481 72.1315 485.956 72.5643 486.389C72.9546 486.779 73.4128 486.949 73.9219 486.881C74.4395 486.822 74.9402 486.542 75.4238 486.058C76.0517 485.43 76.2978 484.709 76.1536 483.886C76.3742 484.106 76.6118 484.208 76.8409 484.2C77.0785 484.2 77.3245 484.055 77.6045 483.775L77.9864 483.394L77.35 482.757ZM74.8129 482.613L75.025 482.825C75.3984 483.198 75.5681 483.623 75.5511 484.081C75.5256 484.548 75.305 484.989 74.8808 485.413C74.5923 485.702 74.3038 485.871 73.9983 485.905C73.7013 485.948 73.4468 485.863 73.2261 485.642C72.751 485.167 72.8273 484.599 73.4722 483.954L74.8129 482.613Z" fill="#A2A2A2"/>
<path d="M78.3007 474.424L77.6982 475.027L78.3516 475.867C77.9528 475.757 77.5624 475.757 77.1806 475.867C76.7903 475.986 76.4169 476.206 76.069 476.554C75.6702 476.953 75.4072 477.403 75.2799 477.903C75.1441 478.412 75.1611 478.922 75.3138 479.431C75.4751 479.948 75.772 480.415 76.2048 480.848C76.663 481.306 77.1467 481.62 77.6558 481.773C78.1734 481.934 78.674 481.942 79.1577 481.798C79.6498 481.662 80.0911 481.391 80.4984 480.983C81.1772 480.305 81.4063 479.549 81.1857 478.701L81.6948 479.21C82.6112 480.126 82.5942 481.043 81.6608 481.976C81.296 482.341 80.9311 482.57 80.5493 482.647C80.1674 482.74 79.811 482.672 79.4886 482.451L78.7758 483.164C79.3019 483.588 79.862 483.741 80.4729 483.639C81.0838 483.538 81.6693 483.207 82.2293 482.647C83.6549 481.221 83.7228 479.846 82.416 478.54L78.3007 474.424ZM80.4899 479.363C80.405 479.719 80.2183 480.025 79.9468 480.296C79.5141 480.729 79.0219 480.933 78.4619 480.899C77.9019 480.865 77.3927 480.61 76.9176 480.135C76.4509 479.668 76.1963 479.159 76.1624 478.599C76.1284 478.039 76.3236 477.538 76.7563 477.106C77.0279 476.834 77.3418 476.656 77.6982 476.571C78.0546 476.486 78.4195 476.512 78.7843 476.639C79.1492 476.766 79.4886 476.987 79.7941 477.292C80.0995 477.598 80.3202 477.937 80.439 478.294C80.5577 478.65 80.5747 479.006 80.4899 479.363Z" fill="#A2A2A2"/>
<path d="M80.3516 474.376C80.5213 474.885 80.8183 475.352 81.2595 475.793C81.7007 476.234 82.1674 476.531 82.685 476.692C83.2026 476.854 83.7118 476.854 84.2209 476.718C84.73 476.582 85.1882 476.294 85.6209 475.861C86.1131 475.369 86.3931 474.817 86.4525 474.198C86.5119 473.578 86.3592 473.001 86.0028 472.475L85.2985 473.18C85.5021 473.536 85.5785 473.901 85.5106 474.274C85.4428 474.647 85.2561 474.987 84.9506 475.292C84.5433 475.7 84.0936 475.895 83.593 475.886C83.0838 475.886 82.6172 475.674 82.1844 475.258L82.125 475.199L85.4852 471.839C85.3579 471.695 85.273 471.593 85.2052 471.525C84.7724 471.126 84.3142 470.855 83.8305 470.71C83.3469 470.583 82.8717 470.583 82.3965 470.719C81.9298 470.863 81.4886 471.135 81.0983 471.525C80.691 471.932 80.428 472.382 80.3092 472.874C80.1819 473.375 80.1904 473.875 80.3516 474.376ZM84.2039 471.966L81.5904 474.58C81.285 474.206 81.1407 473.79 81.1747 473.315C81.2086 472.857 81.3868 472.458 81.7177 472.127C82.0826 471.762 82.4899 471.559 82.9311 471.525C83.3723 471.491 83.8051 471.635 84.2039 471.966Z" fill="#A2A2A2"/>
<rect x="23.3308" y="500.27" width="96" height="36" rx="8" transform="rotate(-45 23.3308 500.27)" stroke="#A2A2A2"/>
</g>
<g opacity="0.5">
<rect x="163.331" y="500.27" width="96" height="36" rx="8" transform="rotate(-45 163.331 500.27)" fill="#A2A2A2" fill-opacity="0.1"/>
<path fill-rule="evenodd" clip-rule="evenodd" d="M201.972 474.8C202.108 474.665 202.309 474.619 202.49 474.682L208.029 476.603L207.733 474.263C207.715 474.119 207.76 473.975 207.857 473.867C207.953 473.759 208.092 473.698 208.237 473.7L214.293 473.794L215.172 472.915C215.367 472.72 215.683 472.72 215.879 472.915C216.074 473.11 216.074 473.427 215.879 473.622L204.565 484.936C204.37 485.131 204.053 485.131 203.858 484.936C203.663 484.74 203.663 484.424 203.858 484.228L204.665 483.421L201.853 475.318C201.791 475.137 201.837 474.936 201.972 474.8ZM205.451 482.636L209.808 478.279L203.136 475.964L205.451 482.636ZM210.593 477.493L213.308 474.779L208.797 474.709L209.083 476.969L210.593 477.493Z" fill="#A2A2A2"/>
<path fill-rule="evenodd" clip-rule="evenodd" d="M207.747 471.147C208.333 470.561 208.333 469.611 207.747 469.026C207.161 468.44 206.211 468.44 205.626 469.026C205.04 469.611 205.04 470.561 205.626 471.147C206.211 471.733 207.161 471.733 207.747 471.147ZM208.454 471.854C209.43 470.878 209.43 469.295 208.454 468.319C207.478 467.342 205.895 467.342 204.919 468.319C203.942 469.295 203.942 470.878 204.919 471.854C205.895 472.83 207.478 472.83 208.454 471.854Z" fill="#A2A2A2"/>
<path d="M198.853 490.647L204.793 496.587L205.531 495.849L199.592 489.909L198.853 490.647Z" fill="#A2A2A2"/>
<path d="M208.668 484.872C208.057 484.872 207.514 485.109 207.03 485.593C206.334 486.289 206.114 487.069 206.351 487.918C205.961 487.765 205.571 487.748 205.197 487.85C204.824 487.952 204.468 488.155 204.162 488.461C203.628 488.996 203.424 489.64 203.543 490.37L202.856 489.869L202.253 490.472L206.581 494.799L207.276 494.104L204.994 491.821C204.561 491.388 204.315 490.939 204.247 490.463C204.179 489.988 204.323 489.573 204.68 489.216C205.011 488.885 205.376 488.741 205.783 488.775C206.182 488.817 206.598 489.046 207.013 489.462L209.466 491.914L210.161 491.219L207.845 488.902C207.404 488.461 207.158 488.011 207.107 487.553C207.056 487.095 207.217 486.679 207.582 486.314C207.904 485.992 208.269 485.847 208.668 485.89C209.067 485.932 209.483 486.161 209.898 486.577L212.351 489.029L213.046 488.334L210.552 485.839C209.907 485.194 209.279 484.872 208.668 484.872Z" fill="#A2A2A2"/>
<path d="M217.35 482.757L217.138 482.969C216.943 483.165 216.748 483.156 216.535 482.944L214.669 481.077C214.168 480.577 213.633 480.347 213.056 480.381C212.479 480.415 211.919 480.704 211.368 481.255C210.842 481.781 210.536 482.324 210.451 482.885C210.367 483.445 210.511 483.962 210.884 484.437L211.58 483.742C211.402 483.478 211.351 483.19 211.41 482.859C211.47 482.528 211.648 482.214 211.953 481.909C212.293 481.569 212.641 481.391 212.98 481.357C213.328 481.332 213.65 481.45 213.93 481.731L214.227 482.027L212.955 483.3C212.386 483.869 212.072 484.42 212.004 484.946C211.945 485.481 212.132 485.956 212.564 486.389C212.955 486.779 213.413 486.949 213.922 486.881C214.44 486.822 214.94 486.542 215.424 486.058C216.052 485.43 216.298 484.709 216.154 483.886C216.374 484.106 216.612 484.208 216.841 484.2C217.078 484.2 217.325 484.055 217.605 483.775L217.986 483.394L217.35 482.757ZM214.813 482.613L215.025 482.825C215.398 483.198 215.568 483.623 215.551 484.081C215.526 484.548 215.305 484.989 214.881 485.413C214.592 485.702 214.304 485.871 213.998 485.905C213.701 485.948 213.447 485.863 213.226 485.642C212.751 485.167 212.827 484.599 213.472 483.954L214.813 482.613Z" fill="#A2A2A2"/>
<path d="M218.301 474.424L217.698 475.027L218.352 475.867C217.953 475.757 217.562 475.757 217.181 475.867C216.79 475.986 216.417 476.206 216.069 476.554C215.67 476.953 215.407 477.403 215.28 477.903C215.144 478.412 215.161 478.922 215.314 479.431C215.475 479.948 215.772 480.415 216.205 480.848C216.663 481.306 217.147 481.62 217.656 481.773C218.173 481.934 218.674 481.942 219.158 481.798C219.65 481.662 220.091 481.391 220.498 480.983C221.177 480.305 221.406 479.549 221.186 478.701L221.695 479.21C222.611 480.126 222.594 481.043 221.661 481.976C221.296 482.341 220.931 482.57 220.549 482.647C220.167 482.74 219.811 482.672 219.489 482.451L218.776 483.164C219.302 483.588 219.862 483.741 220.473 483.639C221.084 483.538 221.669 483.207 222.229 482.647C223.655 481.221 223.723 479.846 222.416 478.54L218.301 474.424ZM220.49 479.363C220.405 479.719 220.218 480.025 219.947 480.296C219.514 480.729 219.022 480.933 218.462 480.899C217.902 480.865 217.393 480.61 216.918 480.135C216.451 479.668 216.196 479.159 216.162 478.599C216.128 478.039 216.324 477.538 216.756 477.106C217.028 476.834 217.342 476.656 217.698 476.571C218.055 476.486 218.419 476.512 218.784 476.639C219.149 476.766 219.489 476.987 219.794 477.292C220.1 477.598 220.32 477.937 220.439 478.294C220.558 478.65 220.575 479.006 220.49 479.363Z" fill="#A2A2A2"/>
<path d="M220.352 474.376C220.521 474.885 220.818 475.352 221.26 475.793C221.701 476.234 222.167 476.531 222.685 476.692C223.203 476.854 223.712 476.854 224.221 476.718C224.73 476.582 225.188 476.294 225.621 475.861C226.113 475.369 226.393 474.817 226.453 474.198C226.512 473.578 226.359 473.001 226.003 472.475L225.299 473.18C225.502 473.536 225.579 473.901 225.511 474.274C225.443 474.647 225.256 474.987 224.951 475.292C224.543 475.7 224.094 475.895 223.593 475.886C223.084 475.886 222.617 475.674 222.184 475.258L222.125 475.199L225.485 471.839C225.358 471.695 225.273 471.593 225.205 471.525C224.772 471.126 224.314 470.855 223.831 470.71C223.347 470.583 222.872 470.583 222.397 470.719C221.93 470.863 221.489 471.135 221.098 471.525C220.691 471.932 220.428 472.382 220.309 472.874C220.182 473.375 220.19 473.875 220.352 474.376ZM224.204 471.966L221.59 474.58C221.285 474.206 221.141 473.79 221.175 473.315C221.209 472.857 221.387 472.458 221.718 472.127C222.083 471.762 222.49 471.559 222.931 471.525C223.372 471.491 223.805 471.635 224.204 471.966Z" fill="#A2A2A2"/>
<rect x="163.331" y="500.27" width="96" height="36" rx="8" transform="rotate(-45 163.331 500.27)" stroke="#A2A2A2"/>
</g>
<g opacity="0.75">
<rect x="303.331" y="500.27" width="96" height="36" rx="8" transform="rotate(-45 303.331 500.27)" fill="#A2A2A2" fill-opacity="0.1"/>
<path fill-rule="evenodd" clip-rule="evenodd" d="M341.972 474.8C342.108 474.665 342.309 474.619 342.49 474.682L348.029 476.603L347.733 474.263C347.715 474.119 347.76 473.975 347.857 473.867C347.953 473.759 348.092 473.698 348.237 473.7L354.293 473.794L355.172 472.915C355.367 472.72 355.683 472.72 355.879 472.915C356.074 473.11 356.074 473.427 355.879 473.622L344.565 484.936C344.37 485.131 344.053 485.131 343.858 484.936C343.663 484.74 343.663 484.424 343.858 484.228L344.665 483.421L341.853 475.318C341.791 475.137 341.837 474.936 341.972 474.8ZM345.451 482.636L349.808 478.279L343.136 475.964L345.451 482.636ZM350.593 477.493L353.308 474.779L348.797 474.709L349.083 476.969L350.593 477.493Z" fill="#A2A2A2"/>
<path fill-rule="evenodd" clip-rule="evenodd" d="M347.747 471.147C348.333 470.561 348.333 469.611 347.747 469.026C347.161 468.44 346.211 468.44 345.626 469.026C345.04 469.611 345.04 470.561 345.626 471.147C346.211 471.733 347.161 471.733 347.747 471.147ZM348.454 471.854C349.43 470.878 349.43 469.295 348.454 468.319C347.478 467.342 345.895 467.342 344.919 468.319C343.942 469.295 343.942 470.878 344.919 471.854C345.895 472.83 347.478 472.83 348.454 471.854Z" fill="#A2A2A2"/>
<path d="M338.853 490.647L344.793 496.587L345.531 495.849L339.592 489.909L338.853 490.647Z" fill="#A2A2A2"/>
<path d="M348.668 484.872C348.057 484.872 347.514 485.109 347.03 485.593C346.334 486.289 346.114 487.069 346.351 487.918C345.961 487.765 345.571 487.748 345.197 487.85C344.824 487.952 344.468 488.155 344.162 488.461C343.628 488.996 343.424 489.64 343.543 490.37L342.856 489.869L342.253 490.472L346.581 494.799L347.276 494.104L344.994 491.821C344.561 491.388 344.315 490.939 344.247 490.463C344.179 489.988 344.323 489.573 344.68 489.216C345.011 488.885 345.376 488.741 345.783 488.775C346.182 488.817 346.598 489.046 347.013 489.462L349.466 491.914L350.161 491.219L347.845 488.902C347.404 488.461 347.158 488.011 347.107 487.553C347.056 487.095 347.217 486.679 347.582 486.314C347.904 485.992 348.269 485.847 348.668 485.89C349.067 485.932 349.483 486.161 349.898 486.577L352.351 489.029L353.046 488.334L350.552 485.839C349.907 485.194 349.279 484.872 348.668 484.872Z" fill="#A2A2A2"/>
<path d="M357.35 482.757L357.138 482.969C356.943 483.165 356.748 483.156 356.535 482.944L354.669 481.077C354.168 480.577 353.633 480.347 353.056 480.381C352.479 480.415 351.919 480.704 351.368 481.255C350.842 481.781 350.536 482.324 350.451 482.885C350.367 483.445 350.511 483.962 350.884 484.437L351.58 483.742C351.402 483.478 351.351 483.19 351.41 482.859C351.47 482.528 351.648 482.214 351.953 481.909C352.293 481.569 352.641 481.391 352.98 481.357C353.328 481.332 353.65 481.45 353.93 481.731L354.227 482.027L352.955 483.3C352.386 483.869 352.072 484.42 352.004 484.946C351.945 485.481 352.132 485.956 352.564 486.389C352.955 486.779 353.413 486.949 353.922 486.881C354.44 486.822 354.94 486.542 355.424 486.058C356.052 485.43 356.298 484.709 356.154 483.886C356.374 484.106 356.612 484.208 356.841 484.2C357.078 484.2 357.325 484.055 357.605 483.775L357.986 483.394L357.35 482.757ZM354.813 482.613L355.025 482.825C355.398 483.198 355.568 483.623 355.551 484.081C355.526 484.548 355.305 484.989 354.881 485.413C354.592 485.702 354.304 485.871 353.998 485.905C353.701 485.948 353.447 485.863 353.226 485.642C352.751 485.167 352.827 484.599 353.472 483.954L354.813 482.613Z" fill="#A2A2A2"/>
<path d="M358.301 474.424L357.698 475.027L358.352 475.867C357.953 475.757 357.562 475.757 357.181 475.867C356.79 475.986 356.417 476.206 356.069 476.554C355.67 476.953 355.407 477.403 355.28 477.903C355.144 478.412 355.161 478.922 355.314 479.431C355.475 479.948 355.772 480.415 356.205 480.848C356.663 481.306 357.147 481.62 357.656 481.773C358.173 481.934 358.674 481.942 359.158 481.798C359.65 481.662 360.091 481.391 360.498 480.983C361.177 480.305 361.406 479.549 361.186 478.701L361.695 479.21C362.611 480.126 362.594 481.043 361.661 481.976C361.296 482.341 360.931 482.57 360.549 482.647C360.167 482.74 359.811 482.672 359.489 482.451L358.776 483.164C359.302 483.588 359.862 483.741 360.473 483.639C361.084 483.538 361.669 483.207 362.229 482.647C363.655 481.221 363.723 479.846 362.416 478.54L358.301 474.424ZM360.49 479.363C360.405 479.719 360.218 480.025 359.947 480.296C359.514 480.729 359.022 480.933 358.462 480.899C357.902 480.865 357.393 480.61 356.918 480.135C356.451 479.668 356.196 479.159 356.162 478.599C356.128 478.039 356.324 477.538 356.756 477.106C357.028 476.834 357.342 476.656 357.698 476.571C358.055 476.486 358.419 476.512 358.784 476.639C359.149 476.766 359.489 476.987 359.794 477.292C360.1 477.598 360.32 477.937 360.439 478.294C360.558 478.65 360.575 479.006 360.49 479.363Z" fill="#A2A2A2"/>
<path d="M360.352 474.376C360.521 474.885 360.818 475.352 361.26 475.793C361.701 476.234 362.167 476.531 362.685 476.692C363.203 476.854 363.712 476.854 364.221 476.718C364.73 476.582 365.188 476.294 365.621 475.861C366.113 475.369 366.393 474.817 366.453 474.198C366.512 473.578 366.359 473.001 366.003 472.475L365.299 473.18C365.502 473.536 365.579 473.901 365.511 474.274C365.443 474.647 365.256 474.987 364.951 475.292C364.543 475.7 364.094 475.895 363.593 475.886C363.084 475.886 362.617 475.674 362.184 475.258L362.125 475.199L365.485 471.839C365.358 471.695 365.273 471.593 365.205 471.525C364.772 471.126 364.314 470.855 363.831 470.71C363.347 470.583 362.872 470.583 362.397 470.719C361.93 470.863 361.489 471.135 361.098 471.525C360.691 471.932 360.428 472.382 360.309 472.874C360.182 473.375 360.19 473.875 360.352 474.376ZM364.204 471.966L361.59 474.58C361.285 474.206 361.141 473.79 361.175 473.315C361.209 472.857 361.387 472.458 361.718 472.127C362.083 471.762 362.49 471.559 362.931 471.525C363.372 471.491 363.805 471.635 364.204 471.966Z" fill="#A2A2A2"/>
<rect x="303.331" y="500.27" width="96" height="36" rx="8" transform="rotate(-45 303.331 500.27)" stroke="#A2A2A2"/>
</g>
<rect x="443.331" y="500.27" width="96" height="36" rx="8" transform="rotate(-45 443.331 500.27)" fill="#A2A2A2" fill-opacity="0.1"/>
<path fill-rule="evenodd" clip-rule="evenodd" d="M481.972 474.8C482.108 474.665 482.309 474.619 482.49 474.682L488.029 476.603L487.733 474.263C487.715 474.119 487.76 473.975 487.857 473.867C487.953 473.759 488.092 473.698 488.237 473.7L494.293 473.794L495.172 472.915C495.367 472.72 495.683 472.72 495.879 472.915C496.074 473.11 496.074 473.427 495.879 473.622L484.565 484.936C484.37 485.131 484.053 485.131 483.858 484.936C483.663 484.74 483.663 484.424 483.858 484.228L484.665 483.421L481.853 475.318C481.791 475.137 481.837 474.936 481.972 474.8ZM485.451 482.636L489.808 478.279L483.136 475.964L485.451 482.636ZM490.593 477.493L493.308 474.779L488.797 474.709L489.083 476.969L490.593 477.493Z" fill="#A2A2A2"/>
<path fill-rule="evenodd" clip-rule="evenodd" d="M487.747 471.147C488.333 470.561 488.333 469.611 487.747 469.026C487.161 468.44 486.211 468.44 485.626 469.026C485.04 469.611 485.04 470.561 485.626 471.147C486.211 471.733 487.161 471.733 487.747 471.147ZM488.454 471.854C489.43 470.878 489.43 469.295 488.454 468.319C487.478 467.342 485.895 467.342 484.919 468.319C483.942 469.295 483.942 470.878 484.919 471.854C485.895 472.83 487.478 472.83 488.454 471.854Z" fill="#A2A2A2"/>
<path d="M478.853 490.647L484.793 496.587L485.531 495.849L479.592 489.909L478.853 490.647Z" fill="#A2A2A2"/>
<path d="M488.668 484.872C488.057 484.872 487.514 485.109 487.03 485.593C486.334 486.289 486.114 487.069 486.351 487.918C485.961 487.765 485.571 487.748 485.197 487.85C484.824 487.952 484.468 488.155 484.162 488.461C483.628 488.996 483.424 489.64 483.543 490.37L482.856 489.869L482.253 490.472L486.581 494.799L487.276 494.104L484.994 491.821C484.561 491.388 484.315 490.939 484.247 490.463C484.179 489.988 484.323 489.573 484.68 489.216C485.011 488.885 485.376 488.741 485.783 488.775C486.182 488.817 486.598 489.046 487.013 489.462L489.466 491.914L490.161 491.219L487.845 488.902C487.404 488.461 487.158 488.011 487.107 487.553C487.056 487.095 487.217 486.679 487.582 486.314C487.904 485.992 488.269 485.847 488.668 485.89C489.067 485.932 489.483 486.161 489.898 486.577L492.351 489.029L493.046 488.334L490.552 485.839C489.907 485.194 489.279 484.872 488.668 484.872Z" fill="#A2A2A2"/>
<path d="M497.35 482.757L497.138 482.969C496.943 483.165 496.748 483.156 496.535 482.944L494.669 481.077C494.168 480.577 493.633 480.347 493.056 480.381C492.479 480.415 491.919 480.704 491.368 481.255C490.842 481.781 490.536 482.324 490.451 482.885C490.367 483.445 490.511 483.962 490.884 484.437L491.58 483.742C491.402 483.478 491.351 483.19 491.41 482.859C491.47 482.528 491.648 482.214 491.953 481.909C492.293 481.569 492.641 481.391 492.98 481.357C493.328 481.332 493.65 481.45 493.93 481.731L494.227 482.027L492.955 483.3C492.386 483.869 492.072 484.42 492.004 484.946C491.945 485.481 492.132 485.956 492.564 486.389C492.955 486.779 493.413 486.949 493.922 486.881C494.44 486.822 494.94 486.542 495.424 486.058C496.052 485.43 496.298 484.709 496.154 483.886C496.374 484.106 496.612 484.208 496.841 484.2C497.078 484.2 497.325 484.055 497.605 483.775L497.986 483.394L497.35 482.757ZM494.813 482.613L495.025 482.825C495.398 483.198 495.568 483.623 495.551 484.081C495.526 484.548 495.305 484.989 494.881 485.413C494.592 485.702 494.304 485.871 493.998 485.905C493.701 485.948 493.447 485.863 493.226 485.642C492.751 485.167 492.827 484.599 493.472 483.954L494.813 482.613Z" fill="#A2A2A2"/>
<path d="M498.301 474.424L497.698 475.027L498.352 475.867C497.953 475.757 497.562 475.757 497.181 475.867C496.79 475.986 496.417 476.206 496.069 476.554C495.67 476.953 495.407 477.403 495.28 477.903C495.144 478.412 495.161 478.922 495.314 479.431C495.475 479.948 495.772 480.415 496.205 480.848C496.663 481.306 497.147 481.62 497.656 481.773C498.173 481.934 498.674 481.942 499.158 481.798C499.65 481.662 500.091 481.391 500.498 480.983C501.177 480.305 501.406 479.549 501.186 478.701L501.695 479.21C502.611 480.126 502.594 481.043 501.661 481.976C501.296 482.341 500.931 482.57 500.549 482.647C500.167 482.74 499.811 482.672 499.489 482.451L498.776 483.164C499.302 483.588 499.862 483.741 500.473 483.639C501.084 483.538 501.669 483.207 502.229 482.647C503.655 481.221 503.723 479.846 502.416 478.54L498.301 474.424ZM500.49 479.363C500.405 479.719 500.218 480.025 499.947 480.296C499.514 480.729 499.022 480.933 498.462 480.899C497.902 480.865 497.393 480.61 496.918 480.135C496.451 479.668 496.196 479.159 496.162 478.599C496.128 478.039 496.324 477.538 496.756 477.106C497.028 476.834 497.342 476.656 497.698 476.571C498.055 476.486 498.419 476.512 498.784 476.639C499.149 476.766 499.489 476.987 499.794 477.292C500.1 477.598 500.32 477.937 500.439 478.294C500.558 478.65 500.575 479.006 500.49 479.363Z" fill="#A2A2A2"/>
<path d="M500.352 474.376C500.521 474.885 500.818 475.352 501.26 475.793C501.701 476.234 502.167 476.531 502.685 476.692C503.203 476.854 503.712 476.854 504.221 476.718C504.73 476.582 505.188 476.294 505.621 475.861C506.113 475.369 506.393 474.817 506.453 474.198C506.512 473.578 506.359 473.001 506.003 472.475L505.299 473.18C505.502 473.536 505.579 473.901 505.511 474.274C505.443 474.647 505.256 474.987 504.951 475.292C504.543 475.7 504.094 475.895 503.593 475.886C503.084 475.886 502.617 475.674 502.184 475.258L502.125 475.199L505.485 471.839C505.358 471.695 505.273 471.593 505.205 471.525C504.772 471.126 504.314 470.855 503.831 470.71C503.347 470.583 502.872 470.583 502.397 470.719C501.93 470.863 501.489 471.135 501.098 471.525C500.691 471.932 500.428 472.382 500.309 472.874C500.182 473.375 500.19 473.875 500.352 474.376ZM504.204 471.966L501.59 474.58C501.285 474.206 501.141 473.79 501.175 473.315C501.209 472.857 501.387 472.458 501.718 472.127C502.083 471.762 502.49 471.559 502.931 471.525C503.372 471.491 503.805 471.635 504.204 471.966Z" fill="#A2A2A2"/>
<rect x="443.331" y="500.27" width="96" height="36" rx="8" transform="rotate(-45 443.331 500.27)" stroke="#A2A2A2"/>
<g opacity="0.25">
<rect x="118" y="568.98" width="36" height="36" rx="8" transform="rotate(-16 118 568.98)" fill="#A2A2A2" fill-opacity="0.1"/>
<path fill-rule="evenodd" clip-rule="evenodd" d="M136.805 578.932C136.989 578.879 137.187 578.936 137.315 579.079L141.228 583.445L142.104 581.255C142.158 581.12 142.267 581.016 142.404 580.968C142.541 580.921 142.692 580.935 142.817 581.007L148.069 584.024L149.264 583.682C149.529 583.606 149.806 583.759 149.882 584.025C149.958 584.29 149.805 584.567 149.539 584.643L134.159 589.053C133.894 589.129 133.617 588.976 133.541 588.711C133.464 588.445 133.618 588.168 133.883 588.092L134.98 587.777L136.45 579.327C136.483 579.138 136.621 578.985 136.805 578.932ZM136.049 587.471L141.971 585.773L137.259 580.514L136.049 587.471ZM143.04 585.467L146.73 584.408L142.819 582.161L141.973 584.276L143.04 585.467Z" fill="#A2A2A2"/>
<path fill-rule="evenodd" clip-rule="evenodd" d="M143.627 578.536C144.423 578.308 144.884 577.477 144.655 576.681C144.427 575.885 143.596 575.424 142.8 575.652C142.004 575.881 141.543 576.711 141.772 577.508C142 578.304 142.831 578.765 143.627 578.536ZM143.903 579.498C145.23 579.117 145.997 577.733 145.617 576.405C145.236 575.078 143.852 574.311 142.524 574.691C141.197 575.072 140.43 576.456 140.81 577.783C141.191 579.111 142.575 579.878 143.903 579.498Z" fill="#A2A2A2"/>
<rect x="118" y="568.98" width="36" height="36" rx="8" transform="rotate(-16 118 568.98)" stroke="#A2A2A2"/>
</g>
<rect x="257.736" y="568.98" width="36" height="36" rx="8" transform="rotate(-16 257.736 568.98)" fill="#A2A2A2" fill-opacity="0.1"/>
<path fill-rule="evenodd" clip-rule="evenodd" d="M276.541 578.932C276.725 578.879 276.923 578.936 277.051 579.079L280.964 583.445L281.84 581.255C281.894 581.12 282.003 581.016 282.14 580.968C282.277 580.921 282.428 580.935 282.553 581.007L287.805 584.024L288.999 583.682C289.265 583.606 289.542 583.759 289.618 584.025C289.694 584.29 289.54 584.567 289.275 584.643L273.895 589.053C273.629 589.129 273.353 588.976 273.276 588.711C273.2 588.445 273.354 588.168 273.619 588.092L274.716 587.777L276.186 579.327C276.219 579.138 276.357 578.985 276.541 578.932ZM275.785 587.471L281.707 585.773L276.995 580.514L275.785 587.471ZM282.776 585.467L286.466 584.408L282.554 582.161L281.708 584.276L282.776 585.467Z" fill="#A2A2A2"/>
<path fill-rule="evenodd" clip-rule="evenodd" d="M283.363 578.536C284.159 578.308 284.62 577.477 284.391 576.681C284.163 575.885 283.332 575.424 282.536 575.652C281.74 575.881 281.279 576.711 281.507 577.508C281.736 578.304 282.566 578.765 283.363 578.536ZM283.638 579.498C284.966 579.117 285.733 577.733 285.352 576.405C284.972 575.078 283.587 574.311 282.26 574.691C280.933 575.072 280.166 576.456 280.546 577.783C280.927 579.111 282.311 579.878 283.638 579.498Z" fill="#A2A2A2"/>
<rect x="257.736" y="568.98" width="36" height="36" rx="8" transform="rotate(-16 257.736 568.98)" stroke="#A2A2A2"/>
<g opacity="0.25">
<rect x="397.472" y="568.98" width="36" height="36" rx="8" transform="rotate(-16 397.472 568.98)" fill="#A2A2A2" fill-opacity="0.1"/>
<path fill-rule="evenodd" clip-rule="evenodd" d="M416.277 578.932C416.461 578.879 416.659 578.936 416.787 579.079L420.7 583.445L421.576 581.255C421.629 581.12 421.739 581.016 421.876 580.968C422.013 580.921 422.163 580.935 422.289 581.007L427.54 584.024L428.735 583.682C429.001 583.606 429.278 583.759 429.354 584.025C429.43 584.29 429.276 584.567 429.011 584.643L413.631 589.053C413.365 589.129 413.088 588.976 413.012 588.711C412.936 588.445 413.09 588.168 413.355 588.092L414.452 587.777L415.922 579.327C415.955 579.138 416.093 578.985 416.277 578.932ZM415.52 587.471L421.443 585.773L416.73 580.514L415.52 587.471ZM422.511 585.467L426.201 584.408L422.29 582.161L421.444 584.276L422.511 585.467Z" fill="#A2A2A2"/>
<path fill-rule="evenodd" clip-rule="evenodd" d="M423.099 578.536C423.895 578.308 424.355 577.477 424.127 576.681C423.899 575.885 423.068 575.424 422.272 575.652C421.475 575.881 421.015 576.711 421.243 577.508C421.472 578.304 422.302 578.765 423.099 578.536ZM423.374 579.498C424.701 579.117 425.469 577.733 425.088 576.405C424.708 575.078 423.323 574.311 421.996 574.691C420.669 575.072 419.901 576.456 420.282 577.783C420.663 579.111 422.047 579.878 423.374 579.498Z" fill="#A2A2A2"/>
<rect x="397.472" y="568.98" width="36" height="36" rx="8" transform="rotate(-16 397.472 568.98)" stroke="#A2A2A2"/>
</g>
</svg>
