<svg width="560" height="614" viewBox="0 0 560 614" fill="none" xmlns="http://www.w3.org/2000/svg">
<rect width="560" height="614" fill="#7B7B7B"/>
<g opacity="0.25">
<path d="M23.3309 91.2132L91.2132 23.3309L116.669 48.7868L48.7868 116.669L23.3309 91.2132Z" fill="#A2A2A2" fill-opacity="0.1"/>
<path d="M23.3309 91.2132L91.2132 23.3309M23.3309 91.2132L48.7868 116.669M23.3309 91.2132L52.9852 77.734M91.2132 23.3309L116.669 48.7868M91.2132 23.3309L77.734 52.9852M116.669 48.7868L48.7868 116.669M116.669 48.7868L87.0147 62.266M48.7868 116.669L62.266 87.0147" stroke="#A2A2A2" stroke-linecap="round" stroke-linejoin="round"/>
<path d="M53.7501 91.3708C53.8095 90.7684 53.6398 90.1744 53.2494 89.5974L52.5536 90.2932C52.7743 90.6496 52.8676 91.0144 52.8167 91.3878C52.7658 91.7781 52.5791 92.1175 52.2651 92.4315C51.8494 92.8473 51.3657 93.0424 50.8142 93C50.2626 92.9576 49.745 92.6945 49.2698 92.2194C48.8031 91.7527 48.5486 91.2436 48.5062 90.692C48.4722 90.1489 48.6589 89.6568 49.0747 89.241C49.3801 88.9356 49.7196 88.7658 50.1014 88.7065C50.4832 88.664 50.8481 88.7404 51.1875 88.944L51.8918 88.2398C51.3318 87.8494 50.7463 87.6882 50.1438 87.7476C49.5414 87.807 48.9898 88.087 48.4807 88.5961C48.0564 89.0204 47.7849 89.4786 47.6492 89.9877C47.5134 90.4968 47.5134 91.006 47.6661 91.5151C47.8273 92.0327 48.1243 92.4994 48.5571 92.9321C48.9983 93.3734 49.465 93.6703 49.9826 93.8316C50.4917 94.0013 50.9924 94.0098 51.5015 93.874C52.0021 93.7467 52.4603 93.4752 52.8846 93.0509C53.3937 92.5418 53.6822 91.9818 53.7501 91.3708ZM56.101 89.2744C56.6101 89.1387 57.0768 88.8587 57.5011 88.4344C57.9169 88.0186 58.1969 87.5519 58.3326 87.0428C58.4684 86.5337 58.4684 86.0246 58.3157 85.4985C58.1629 84.9894 57.8744 84.5142 57.4332 84.073C57.0005 83.6402 56.5253 83.3517 56.0077 83.1905C55.4901 83.0462 54.9725 83.0378 54.4634 83.1735C53.9542 83.3093 53.4876 83.5893 53.0718 84.0051C52.6475 84.4293 52.3675 84.896 52.2317 85.4051C52.096 85.9143 52.1045 86.4319 52.2572 86.941C52.4099 87.4671 52.7069 87.9338 53.1397 88.3665C53.5809 88.8077 54.0476 89.1047 54.5652 89.249C55.0828 89.4102 55.5919 89.4102 56.101 89.2744ZM57.4247 86.8646C57.3399 87.221 57.1617 87.535 56.8817 87.815C56.5932 88.1035 56.2792 88.2817 55.9228 88.3665C55.5664 88.4514 55.2186 88.4259 54.8537 88.2986C54.4973 88.1798 54.1579 87.9592 53.8524 87.6537C53.547 87.3483 53.3348 87.0173 53.2075 86.6525C53.0887 86.2961 53.0548 85.9397 53.1397 85.5833C53.2245 85.227 53.4027 84.913 53.6912 84.6245C53.9712 84.3445 54.2852 84.1663 54.6416 84.0814C54.9979 83.9966 55.3628 84.022 55.7192 84.1408C56.0841 84.2681 56.415 84.4803 56.7204 84.7857C57.0259 85.0912 57.2465 85.4306 57.3653 85.787C57.4926 86.1519 57.5096 86.5082 57.4247 86.8646ZM62.4822 75.511C61.8713 75.511 61.3282 75.7486 60.8446 76.2323C60.1488 76.9281 59.9281 77.7087 60.1657 78.5573C59.7754 78.4045 59.3851 78.3876 59.0117 78.4894C58.6384 78.5912 58.282 78.7948 57.9765 79.1003C57.442 79.6349 57.2383 80.2798 57.3571 81.0095L56.6698 80.5089L56.0673 81.1113L60.3948 85.4388L61.0906 84.743L58.8081 82.4605C58.3753 82.0277 58.1293 81.578 58.0614 81.1028C57.9935 80.6277 58.1378 80.2119 58.4941 79.8555C58.8251 79.5246 59.1899 79.3803 59.5972 79.4143C59.996 79.4567 60.4118 79.6858 60.8276 80.1016L63.2798 82.5538L63.9756 81.858L61.6591 79.5416C61.2179 79.1003 60.9718 78.6506 60.9209 78.1924C60.87 77.7342 61.0312 77.3184 61.3961 76.9535C61.7185 76.6311 62.0834 76.4869 62.4822 76.5293C62.881 76.5717 63.2968 76.8008 63.7126 77.2166L66.1648 79.6688L66.8606 78.973L64.3659 76.4784C63.7211 75.8335 63.0932 75.511 62.4822 75.511ZM66.8877 70.7153C66.404 70.8595 65.9543 71.1226 65.5555 71.5214C64.9276 72.1493 64.6815 72.9045 64.8173 73.753L64.0281 73.1505L63.4257 73.753L69.4502 79.7775L70.146 79.0818L67.7871 76.7228C68.1435 76.8077 68.5168 76.7907 68.8987 76.6635C69.272 76.5447 69.6284 76.3071 69.9848 75.9507C70.3751 75.5604 70.6382 75.1106 70.7739 74.6015C70.9012 74.1009 70.8927 73.6003 70.7315 73.0827C70.5788 72.5735 70.2903 72.0984 69.849 71.6571C69.3908 71.1989 68.9072 70.9019 68.3896 70.7407C67.8804 70.588 67.3798 70.5795 66.8877 70.7153ZM69.8915 73.9227C69.9254 74.4827 69.7218 74.9749 69.2975 75.3991C69.0175 75.6792 68.7035 75.8573 68.3471 75.9422C67.9908 76.0271 67.6429 76.0016 67.278 75.8743C66.9131 75.747 66.5737 75.5264 66.2598 75.2125C65.9543 74.907 65.7422 74.5761 65.6234 74.2197C65.5046 73.8633 65.4791 73.5154 65.564 73.159C65.6488 72.8026 65.827 72.4887 66.107 72.2087C66.5313 71.7844 67.0319 71.5893 67.5919 71.6232C68.152 71.6571 68.6696 71.9032 69.1363 72.3699C69.6114 72.8451 69.8575 73.3627 69.8915 73.9227ZM73.4528 71.9227C73.9619 71.7869 74.4286 71.5069 74.8528 71.0827C75.2686 70.6669 75.5486 70.2002 75.6844 69.6911C75.8202 69.182 75.8202 68.6728 75.6674 68.1467C75.5147 67.6376 75.2262 67.1625 74.7849 66.7212C74.3522 66.2885 73.877 66 73.3594 65.8388C72.8418 65.6945 72.3242 65.686 71.8151 65.8218C71.306 65.9575 70.8393 66.2376 70.4235 66.6533C69.9992 67.0776 69.7192 67.5443 69.5835 68.0534C69.4477 68.5625 69.4562 69.0801 69.6089 69.5892C69.7617 70.1153 70.0586 70.582 70.4914 71.0148C70.9326 71.456 71.3993 71.753 71.9169 71.8972C72.4345 72.0585 72.9436 72.0585 73.4528 71.9227ZM74.7765 69.5129C74.6916 69.8693 74.5134 70.1832 74.2334 70.4632C73.9449 70.7517 73.6309 70.9299 73.2746 71.0148C72.9182 71.0996 72.5703 71.0742 72.2054 70.9469C71.849 70.8281 71.5096 70.6075 71.2042 70.302C70.8987 69.9965 70.6866 69.6656 70.5593 69.3007C70.4405 68.9444 70.4065 68.588 70.4914 68.2316C70.5762 67.8752 70.7544 67.5613 71.0429 67.2728C71.323 66.9927 71.6369 66.8146 71.9933 66.7297C72.3497 66.6449 72.7145 66.6703 73.0709 66.7891C73.4358 66.9164 73.7667 67.1285 74.0722 67.434C74.3777 67.7395 74.5983 68.0789 74.7171 68.4352C74.8443 68.8001 74.8613 69.1565 74.7765 69.5129ZM77.229 60.7982C76.5926 60.8067 76.0156 61.0613 75.4895 61.5874C74.8616 62.2153 74.5985 62.9026 74.7004 63.6493L74.0215 63.1571L73.4191 63.7596L77.7466 68.0871L78.4424 67.3913L76.2786 65.2275C75.795 64.7439 75.5234 64.2517 75.4725 63.7257C75.4216 63.2165 75.5998 62.7498 76.0071 62.3425C76.3804 61.9692 76.7877 61.7995 77.229 61.8334C77.6702 61.8674 78.1114 62.105 78.5527 62.5462L80.9201 64.9136L81.6159 64.2178L79.206 61.808C78.5272 61.1292 77.8739 60.7982 77.229 60.7982ZM79.2786 59.9026C79.4483 60.4118 79.7453 60.8784 80.1865 61.3197C80.6277 61.7609 81.0944 62.0579 81.612 62.2191C82.1296 62.3803 82.6387 62.3803 83.1479 62.2446C83.657 62.1088 84.1152 61.8203 84.5479 61.3876C85.0401 60.8954 85.3201 60.3439 85.3795 59.7244C85.4389 59.105 85.2861 58.528 84.9298 58.0019L84.2255 58.7062C84.4291 59.0626 84.5055 59.4275 84.4376 59.8008C84.3697 60.1742 84.1831 60.5136 83.8776 60.819C83.4703 61.2263 83.0206 61.4215 82.5199 61.413C82.0108 61.413 81.5441 61.2009 81.1114 60.7851L81.052 60.7257L84.4122 57.3655C84.2849 57.2213 84.2 57.1195 84.1321 57.0516C83.6994 56.6528 83.2412 56.3812 82.7575 56.237C82.2739 56.1097 81.7987 56.1097 81.3235 56.2455C80.8568 56.3897 80.4156 56.6613 80.0253 57.0516C79.618 57.4589 79.3549 57.9086 79.2361 58.4007C79.1089 58.9014 79.1173 59.402 79.2786 59.9026ZM83.1309 57.4928L80.5174 60.1063C80.2119 59.7329 80.0677 59.3171 80.1016 58.842C80.1356 58.3838 80.3138 57.985 80.6447 57.654C81.0096 57.2892 81.4169 57.0855 81.8581 57.0516C82.2993 57.0176 82.7321 57.1619 83.1309 57.4928ZM86.7335 51.2937C86.0971 51.3022 85.5201 51.5568 84.994 52.0829C84.3661 52.7108 84.103 53.3981 84.2049 54.1448L83.526 53.6526L82.9236 54.2551L87.2511 58.5826L87.9469 57.8868L85.7831 55.723C85.2995 55.2394 85.0279 54.7472 84.977 54.2211C84.9261 53.712 85.1043 53.2453 85.5116 52.838C85.885 52.4647 86.2922 52.295 86.7335 52.3289C87.1747 52.3629 87.616 52.6005 88.0572 53.0417L90.4246 55.4091L91.1204 54.7133L88.7106 52.3035C88.0317 51.6246 87.3784 51.2937 86.7335 51.2937ZM88.6049 49.8466L91.1674 52.4091C91.5578 52.7995 91.9311 53.0031 92.279 53.0116C92.6354 53.0286 93.0172 52.8164 93.4245 52.4091L94.2221 51.6115L93.5857 50.9751L92.8306 51.7303C92.6524 51.9085 92.4911 52.0018 92.3469 51.9934C92.2026 51.9849 92.0414 51.8915 91.8547 51.7049L89.3007 49.1508L90.3953 48.0562L89.7589 47.4198L88.6643 48.5144L87.4509 47.301L86.7551 47.9968L87.9685 49.2102L87.1878 49.9908L87.8242 50.6272L88.6049 49.8466Z" fill="#A2A2A2"/>
</g>
<g opacity="0.5">
<path d="M163.331 91.2132L231.213 23.3309L256.669 48.7868L188.787 116.669L163.331 91.2132Z" fill="#A2A2A2" fill-opacity="0.1"/>
<path d="M163.331 91.2132L231.213 23.3309M163.331 91.2132L188.787 116.669M163.331 91.2132L192.985 77.734M231.213 23.3309L256.669 48.7868M231.213 23.3309L217.734 52.9852M256.669 48.7868L188.787 116.669M256.669 48.7868L227.015 62.266M188.787 116.669L202.266 87.0147" stroke="#A2A2A2" stroke-linecap="round" stroke-linejoin="round"/>
<path d="M193.75 91.3708C193.809 90.7684 193.64 90.1744 193.249 89.5974L192.554 90.2932C192.774 90.6496 192.868 91.0144 192.817 91.3878C192.766 91.7781 192.579 92.1175 192.265 92.4315C191.849 92.8473 191.366 93.0424 190.814 93C190.263 92.9576 189.745 92.6945 189.27 92.2194C188.803 91.7527 188.549 91.2436 188.506 90.692C188.472 90.1489 188.659 89.6568 189.075 89.241C189.38 88.9356 189.72 88.7658 190.101 88.7065C190.483 88.664 190.848 88.7404 191.188 88.944L191.892 88.2398C191.332 87.8494 190.746 87.6882 190.144 87.7476C189.541 87.807 188.99 88.087 188.481 88.5961C188.056 89.0204 187.785 89.4786 187.649 89.9877C187.513 90.4968 187.513 91.006 187.666 91.5151C187.827 92.0327 188.124 92.4994 188.557 92.9321C188.998 93.3734 189.465 93.6703 189.983 93.8316C190.492 94.0013 190.992 94.0098 191.501 93.874C192.002 93.7467 192.46 93.4752 192.885 93.0509C193.394 92.5418 193.682 91.9818 193.75 91.3708ZM196.101 89.2744C196.61 89.1387 197.077 88.8587 197.501 88.4344C197.917 88.0186 198.197 87.5519 198.333 87.0428C198.468 86.5337 198.468 86.0246 198.316 85.4985C198.163 84.9894 197.874 84.5142 197.433 84.073C197 83.6402 196.525 83.3517 196.008 83.1905C195.49 83.0462 194.972 83.0378 194.463 83.1735C193.954 83.3093 193.488 83.5893 193.072 84.0051C192.648 84.4293 192.367 84.896 192.232 85.4051C192.096 85.9143 192.104 86.4319 192.257 86.941C192.41 87.4671 192.707 87.9338 193.14 88.3665C193.581 88.8077 194.048 89.1047 194.565 89.249C195.083 89.4102 195.592 89.4102 196.101 89.2744ZM197.425 86.8646C197.34 87.221 197.162 87.535 196.882 87.815C196.593 88.1035 196.279 88.2817 195.923 88.3665C195.566 88.4514 195.219 88.4259 194.854 88.2986C194.497 88.1798 194.158 87.9592 193.852 87.6537C193.547 87.3483 193.335 87.0173 193.208 86.6525C193.089 86.2961 193.055 85.9397 193.14 85.5833C193.225 85.227 193.403 84.913 193.691 84.6245C193.971 84.3445 194.285 84.1663 194.642 84.0814C194.998 83.9966 195.363 84.022 195.719 84.1408C196.084 84.2681 196.415 84.4803 196.72 84.7857C197.026 85.0912 197.247 85.4306 197.365 85.787C197.493 86.1519 197.51 86.5082 197.425 86.8646ZM202.482 75.511C201.871 75.511 201.328 75.7486 200.845 76.2323C200.149 76.9281 199.928 77.7087 200.166 78.5573C199.775 78.4045 199.385 78.3876 199.012 78.4894C198.638 78.5912 198.282 78.7948 197.977 79.1003C197.442 79.6349 197.238 80.2798 197.357 81.0095L196.67 80.5089L196.067 81.1113L200.395 85.4388L201.091 84.743L198.808 82.4605C198.375 82.0277 198.129 81.578 198.061 81.1028C197.994 80.6277 198.138 80.2119 198.494 79.8555C198.825 79.5246 199.19 79.3803 199.597 79.4143C199.996 79.4567 200.412 79.6858 200.828 80.1016L203.28 82.5538L203.976 81.858L201.659 79.5416C201.218 79.1003 200.972 78.6506 200.921 78.1924C200.87 77.7342 201.031 77.3184 201.396 76.9535C201.719 76.6311 202.083 76.4869 202.482 76.5293C202.881 76.5717 203.297 76.8008 203.713 77.2166L206.165 79.6688L206.861 78.973L204.366 76.4784C203.721 75.8335 203.093 75.511 202.482 75.511ZM206.888 70.7153C206.404 70.8595 205.954 71.1226 205.555 71.5214C204.928 72.1493 204.681 72.9045 204.817 73.753L204.028 73.1505L203.426 73.753L209.45 79.7775L210.146 79.0818L207.787 76.7228C208.143 76.8077 208.517 76.7907 208.899 76.6635C209.272 76.5447 209.628 76.3071 209.985 75.9507C210.375 75.5604 210.638 75.1106 210.774 74.6015C210.901 74.1009 210.893 73.6003 210.732 73.0827C210.579 72.5735 210.29 72.0984 209.849 71.6571C209.391 71.1989 208.907 70.9019 208.39 70.7407C207.88 70.588 207.38 70.5795 206.888 70.7153ZM209.891 73.9227C209.925 74.4827 209.722 74.9749 209.297 75.3991C209.017 75.6792 208.704 75.8573 208.347 75.9422C207.991 76.0271 207.643 76.0016 207.278 75.8743C206.913 75.747 206.574 75.5264 206.26 75.2125C205.954 74.907 205.742 74.5761 205.623 74.2197C205.505 73.8633 205.479 73.5154 205.564 73.159C205.649 72.8026 205.827 72.4887 206.107 72.2087C206.531 71.7844 207.032 71.5893 207.592 71.6232C208.152 71.6571 208.67 71.9032 209.136 72.3699C209.611 72.8451 209.858 73.3627 209.891 73.9227ZM213.453 71.9227C213.962 71.7869 214.429 71.5069 214.853 71.0827C215.269 70.6669 215.549 70.2002 215.684 69.6911C215.82 69.182 215.82 68.6728 215.667 68.1467C215.515 67.6376 215.226 67.1625 214.785 66.7212C214.352 66.2885 213.877 66 213.359 65.8388C212.842 65.6945 212.324 65.686 211.815 65.8218C211.306 65.9575 210.839 66.2376 210.424 66.6533C209.999 67.0776 209.719 67.5443 209.583 68.0534C209.448 68.5625 209.456 69.0801 209.609 69.5892C209.762 70.1153 210.059 70.582 210.491 71.0148C210.933 71.456 211.399 71.753 211.917 71.8972C212.435 72.0585 212.944 72.0585 213.453 71.9227ZM214.776 69.5129C214.692 69.8693 214.513 70.1832 214.233 70.4632C213.945 70.7517 213.631 70.9299 213.275 71.0148C212.918 71.0996 212.57 71.0742 212.205 70.9469C211.849 70.8281 211.51 70.6075 211.204 70.302C210.899 69.9965 210.687 69.6656 210.559 69.3007C210.44 68.9444 210.407 68.588 210.491 68.2316C210.576 67.8752 210.754 67.5613 211.043 67.2728C211.323 66.9927 211.637 66.8146 211.993 66.7297C212.35 66.6449 212.715 66.6703 213.071 66.7891C213.436 66.9164 213.767 67.1285 214.072 67.434C214.378 67.7395 214.598 68.0789 214.717 68.4352C214.844 68.8001 214.861 69.1565 214.776 69.5129ZM217.229 60.7982C216.593 60.8067 216.016 61.0613 215.489 61.5874C214.862 62.2153 214.599 62.9026 214.7 63.6493L214.022 63.1571L213.419 63.7596L217.747 68.0871L218.442 67.3913L216.279 65.2275C215.795 64.7439 215.523 64.2517 215.473 63.7257C215.422 63.2165 215.6 62.7498 216.007 62.3425C216.38 61.9692 216.788 61.7995 217.229 61.8334C217.67 61.8674 218.111 62.105 218.553 62.5462L220.92 64.9136L221.616 64.2178L219.206 61.808C218.527 61.1292 217.874 60.7982 217.229 60.7982ZM219.279 59.9026C219.448 60.4118 219.745 60.8784 220.186 61.3197C220.628 61.7609 221.094 62.0579 221.612 62.2191C222.13 62.3803 222.639 62.3803 223.148 62.2446C223.657 62.1088 224.115 61.8203 224.548 61.3876C225.04 60.8954 225.32 60.3439 225.379 59.7244C225.439 59.105 225.286 58.528 224.93 58.0019L224.225 58.7062C224.429 59.0626 224.505 59.4275 224.438 59.8008C224.37 60.1742 224.183 60.5136 223.878 60.819C223.47 61.2263 223.021 61.4215 222.52 61.413C222.011 61.413 221.544 61.2009 221.111 60.7851L221.052 60.7257L224.412 57.3655C224.285 57.2213 224.2 57.1195 224.132 57.0516C223.699 56.6528 223.241 56.3812 222.758 56.237C222.274 56.1097 221.799 56.1097 221.324 56.2455C220.857 56.3897 220.416 56.6613 220.025 57.0516C219.618 57.4589 219.355 57.9086 219.236 58.4007C219.109 58.9014 219.117 59.402 219.279 59.9026ZM223.131 57.4928L220.517 60.1063C220.212 59.7329 220.068 59.3171 220.102 58.842C220.136 58.3838 220.314 57.985 220.645 57.654C221.01 57.2892 221.417 57.0855 221.858 57.0516C222.299 57.0176 222.732 57.1619 223.131 57.4928ZM226.733 51.2937C226.097 51.3022 225.52 51.5568 224.994 52.0829C224.366 52.7108 224.103 53.3981 224.205 54.1448L223.526 53.6526L222.924 54.2551L227.251 58.5826L227.947 57.8868L225.783 55.723C225.299 55.2394 225.028 54.7472 224.977 54.2211C224.926 53.712 225.104 53.2453 225.512 52.838C225.885 52.4647 226.292 52.295 226.733 52.3289C227.175 52.3629 227.616 52.6005 228.057 53.0417L230.425 55.4091L231.12 54.7133L228.711 52.3035C228.032 51.6246 227.378 51.2937 226.733 51.2937ZM228.605 49.8466L231.167 52.4091C231.558 52.7995 231.931 53.0031 232.279 53.0116C232.635 53.0286 233.017 52.8164 233.425 52.4091L234.222 51.6115L233.586 50.9751L232.831 51.7303C232.652 51.9085 232.491 52.0018 232.347 51.9934C232.203 51.9849 232.041 51.8915 231.855 51.7049L229.301 49.1508L230.395 48.0562L229.759 47.4198L228.664 48.5144L227.451 47.301L226.755 47.9968L227.968 49.2102L227.188 49.9908L227.824 50.6272L228.605 49.8466Z" fill="#A2A2A2"/>
</g>
<g opacity="0.75">
<path d="M303.331 91.2132L371.213 23.3309L396.669 48.7868L328.787 116.669L303.331 91.2132Z" fill="#A2A2A2" fill-opacity="0.1"/>
<path d="M303.331 91.2132L371.213 23.3309M303.331 91.2132L328.787 116.669M303.331 91.2132L332.985 77.734M371.213 23.3309L396.669 48.7868M371.213 23.3309L357.734 52.9852M396.669 48.7868L328.787 116.669M396.669 48.7868L367.015 62.266M328.787 116.669L342.266 87.0147" stroke="#A2A2A2" stroke-linecap="round" stroke-linejoin="round"/>
<path d="M333.75 91.3708C333.809 90.7684 333.64 90.1744 333.249 89.5974L332.554 90.2932C332.774 90.6496 332.868 91.0144 332.817 91.3878C332.766 91.7781 332.579 92.1175 332.265 92.4315C331.849 92.8473 331.366 93.0424 330.814 93C330.263 92.9576 329.745 92.6945 329.27 92.2194C328.803 91.7527 328.549 91.2436 328.506 90.692C328.472 90.1489 328.659 89.6568 329.075 89.241C329.38 88.9356 329.72 88.7658 330.101 88.7065C330.483 88.664 330.848 88.7404 331.188 88.944L331.892 88.2398C331.332 87.8494 330.746 87.6882 330.144 87.7476C329.541 87.807 328.99 88.087 328.481 88.5961C328.056 89.0204 327.785 89.4786 327.649 89.9877C327.513 90.4968 327.513 91.006 327.666 91.5151C327.827 92.0327 328.124 92.4994 328.557 92.9321C328.998 93.3734 329.465 93.6703 329.983 93.8316C330.492 94.0013 330.992 94.0098 331.501 93.874C332.002 93.7467 332.46 93.4752 332.885 93.0509C333.394 92.5418 333.682 91.9818 333.75 91.3708ZM336.101 89.2744C336.61 89.1387 337.077 88.8587 337.501 88.4344C337.917 88.0186 338.197 87.5519 338.333 87.0428C338.468 86.5337 338.468 86.0246 338.316 85.4985C338.163 84.9894 337.874 84.5142 337.433 84.073C337 83.6402 336.525 83.3517 336.008 83.1905C335.49 83.0462 334.972 83.0378 334.463 83.1735C333.954 83.3093 333.488 83.5893 333.072 84.0051C332.648 84.4293 332.367 84.896 332.232 85.4051C332.096 85.9143 332.104 86.4319 332.257 86.941C332.41 87.4671 332.707 87.9338 333.14 88.3665C333.581 88.8077 334.048 89.1047 334.565 89.249C335.083 89.4102 335.592 89.4102 336.101 89.2744ZM337.425 86.8646C337.34 87.221 337.162 87.535 336.882 87.815C336.593 88.1035 336.279 88.2817 335.923 88.3665C335.566 88.4514 335.219 88.4259 334.854 88.2986C334.497 88.1798 334.158 87.9592 333.852 87.6537C333.547 87.3483 333.335 87.0173 333.208 86.6525C333.089 86.2961 333.055 85.9397 333.14 85.5833C333.225 85.227 333.403 84.913 333.691 84.6245C333.971 84.3445 334.285 84.1663 334.642 84.0814C334.998 83.9966 335.363 84.022 335.719 84.1408C336.084 84.2681 336.415 84.4803 336.72 84.7857C337.026 85.0912 337.247 85.4306 337.365 85.787C337.493 86.1519 337.51 86.5082 337.425 86.8646ZM342.482 75.511C341.871 75.511 341.328 75.7486 340.845 76.2323C340.149 76.9281 339.928 77.7087 340.166 78.5573C339.775 78.4045 339.385 78.3876 339.012 78.4894C338.638 78.5912 338.282 78.7948 337.977 79.1003C337.442 79.6349 337.238 80.2798 337.357 81.0095L336.67 80.5089L336.067 81.1113L340.395 85.4388L341.091 84.743L338.808 82.4605C338.375 82.0277 338.129 81.578 338.061 81.1028C337.994 80.6277 338.138 80.2119 338.494 79.8555C338.825 79.5246 339.19 79.3803 339.597 79.4143C339.996 79.4567 340.412 79.6858 340.828 80.1016L343.28 82.5538L343.976 81.858L341.659 79.5416C341.218 79.1003 340.972 78.6506 340.921 78.1924C340.87 77.7342 341.031 77.3184 341.396 76.9535C341.719 76.6311 342.083 76.4869 342.482 76.5293C342.881 76.5717 343.297 76.8008 343.713 77.2166L346.165 79.6688L346.861 78.973L344.366 76.4784C343.721 75.8335 343.093 75.511 342.482 75.511ZM346.888 70.7153C346.404 70.8595 345.954 71.1226 345.555 71.5214C344.928 72.1493 344.681 72.9045 344.817 73.753L344.028 73.1505L343.426 73.753L349.45 79.7775L350.146 79.0818L347.787 76.7228C348.143 76.8077 348.517 76.7907 348.899 76.6635C349.272 76.5447 349.628 76.3071 349.985 75.9507C350.375 75.5604 350.638 75.1106 350.774 74.6015C350.901 74.1009 350.893 73.6003 350.732 73.0827C350.579 72.5735 350.29 72.0984 349.849 71.6571C349.391 71.1989 348.907 70.9019 348.39 70.7407C347.88 70.588 347.38 70.5795 346.888 70.7153ZM349.891 73.9227C349.925 74.4827 349.722 74.9749 349.297 75.3991C349.017 75.6792 348.704 75.8573 348.347 75.9422C347.991 76.0271 347.643 76.0016 347.278 75.8743C346.913 75.747 346.574 75.5264 346.26 75.2125C345.954 74.907 345.742 74.5761 345.623 74.2197C345.505 73.8633 345.479 73.5154 345.564 73.159C345.649 72.8026 345.827 72.4887 346.107 72.2087C346.531 71.7844 347.032 71.5893 347.592 71.6232C348.152 71.6571 348.67 71.9032 349.136 72.3699C349.611 72.8451 349.858 73.3627 349.891 73.9227ZM353.453 71.9227C353.962 71.7869 354.429 71.5069 354.853 71.0827C355.269 70.6669 355.549 70.2002 355.684 69.6911C355.82 69.182 355.82 68.6728 355.667 68.1467C355.515 67.6376 355.226 67.1625 354.785 66.7212C354.352 66.2885 353.877 66 353.359 65.8388C352.842 65.6945 352.324 65.686 351.815 65.8218C351.306 65.9575 350.839 66.2376 350.424 66.6533C349.999 67.0776 349.719 67.5443 349.583 68.0534C349.448 68.5625 349.456 69.0801 349.609 69.5892C349.762 70.1153 350.059 70.582 350.491 71.0148C350.933 71.456 351.399 71.753 351.917 71.8972C352.435 72.0585 352.944 72.0585 353.453 71.9227ZM354.776 69.5129C354.692 69.8693 354.513 70.1832 354.233 70.4632C353.945 70.7517 353.631 70.9299 353.275 71.0148C352.918 71.0996 352.57 71.0742 352.205 70.9469C351.849 70.8281 351.51 70.6075 351.204 70.302C350.899 69.9965 350.687 69.6656 350.559 69.3007C350.44 68.9444 350.407 68.588 350.491 68.2316C350.576 67.8752 350.754 67.5613 351.043 67.2728C351.323 66.9927 351.637 66.8146 351.993 66.7297C352.35 66.6449 352.715 66.6703 353.071 66.7891C353.436 66.9164 353.767 67.1285 354.072 67.434C354.378 67.7395 354.598 68.0789 354.717 68.4352C354.844 68.8001 354.861 69.1565 354.776 69.5129ZM357.229 60.7982C356.593 60.8067 356.016 61.0613 355.489 61.5874C354.862 62.2153 354.599 62.9026 354.7 63.6493L354.022 63.1571L353.419 63.7596L357.747 68.0871L358.442 67.3913L356.279 65.2275C355.795 64.7439 355.523 64.2517 355.473 63.7257C355.422 63.2165 355.6 62.7498 356.007 62.3425C356.38 61.9692 356.788 61.7995 357.229 61.8334C357.67 61.8674 358.111 62.105 358.553 62.5462L360.92 64.9136L361.616 64.2178L359.206 61.808C358.527 61.1292 357.874 60.7982 357.229 60.7982ZM359.279 59.9026C359.448 60.4118 359.745 60.8784 360.186 61.3197C360.628 61.7609 361.094 62.0579 361.612 62.2191C362.13 62.3803 362.639 62.3803 363.148 62.2446C363.657 62.1088 364.115 61.8203 364.548 61.3876C365.04 60.8954 365.32 60.3439 365.379 59.7244C365.439 59.105 365.286 58.528 364.93 58.0019L364.225 58.7062C364.429 59.0626 364.505 59.4275 364.438 59.8008C364.37 60.1742 364.183 60.5136 363.878 60.819C363.47 61.2263 363.021 61.4215 362.52 61.413C362.011 61.413 361.544 61.2009 361.111 60.7851L361.052 60.7257L364.412 57.3655C364.285 57.2213 364.2 57.1195 364.132 57.0516C363.699 56.6528 363.241 56.3812 362.758 56.237C362.274 56.1097 361.799 56.1097 361.324 56.2455C360.857 56.3897 360.416 56.6613 360.025 57.0516C359.618 57.4589 359.355 57.9086 359.236 58.4007C359.109 58.9014 359.117 59.402 359.279 59.9026ZM363.131 57.4928L360.517 60.1063C360.212 59.7329 360.068 59.3171 360.102 58.842C360.136 58.3838 360.314 57.985 360.645 57.654C361.01 57.2892 361.417 57.0855 361.858 57.0516C362.299 57.0176 362.732 57.1619 363.131 57.4928ZM366.733 51.2937C366.097 51.3022 365.52 51.5568 364.994 52.0829C364.366 52.7108 364.103 53.3981 364.205 54.1448L363.526 53.6526L362.924 54.2551L367.251 58.5826L367.947 57.8868L365.783 55.723C365.299 55.2394 365.028 54.7472 364.977 54.2211C364.926 53.712 365.104 53.2453 365.512 52.838C365.885 52.4647 366.292 52.295 366.733 52.3289C367.175 52.3629 367.616 52.6005 368.057 53.0417L370.425 55.4091L371.12 54.7133L368.711 52.3035C368.032 51.6246 367.378 51.2937 366.733 51.2937ZM368.605 49.8466L371.167 52.4091C371.558 52.7995 371.931 53.0031 372.279 53.0116C372.635 53.0286 373.017 52.8164 373.425 52.4091L374.222 51.6115L373.586 50.9751L372.831 51.7303C372.652 51.9085 372.491 52.0018 372.347 51.9934C372.203 51.9849 372.041 51.8915 371.855 51.7049L369.301 49.1508L370.395 48.0562L369.759 47.4198L368.664 48.5144L367.451 47.301L366.755 47.9968L367.968 49.2102L367.188 49.9908L367.824 50.6272L368.605 49.8466Z" fill="#A2A2A2"/>
</g>
<path d="M443.331 91.2132L511.213 23.3309L536.669 48.7868L468.787 116.669L443.331 91.2132Z" fill="#A2A2A2" fill-opacity="0.1"/>
<path d="M443.331 91.2132L511.213 23.3309M443.331 91.2132L468.787 116.669M443.331 91.2132L472.985 77.734M511.213 23.3309L536.669 48.7868M511.213 23.3309L497.734 52.9852M536.669 48.7868L468.787 116.669M536.669 48.7868L507.015 62.266M468.787 116.669L482.266 87.0147" stroke="#A2A2A2" stroke-linecap="round" stroke-linejoin="round"/>
<path d="M473.75 91.3708C473.81 90.7684 473.64 90.1744 473.25 89.5974L472.554 90.2932C472.774 90.6496 472.868 91.0144 472.817 91.3878C472.766 91.7781 472.579 92.1175 472.265 92.4315C471.849 92.8473 471.366 93.0424 470.814 93C470.263 92.9576 469.745 92.6945 469.27 92.2194C468.803 91.7527 468.549 91.2436 468.506 90.692C468.472 90.1489 468.659 89.6568 469.075 89.241C469.38 88.9356 469.72 88.7658 470.102 88.7065C470.483 88.664 470.848 88.7404 471.188 88.944L471.892 88.2398C471.332 87.8494 470.746 87.6882 470.144 87.7476C469.541 87.807 468.99 88.087 468.481 88.5961C468.057 89.0204 467.785 89.4786 467.649 89.9877C467.514 90.4968 467.514 91.006 467.666 91.5151C467.827 92.0327 468.124 92.4994 468.557 92.9321C468.998 93.3734 469.465 93.6703 469.983 93.8316C470.492 94.0013 470.992 94.0098 471.502 93.874C472.002 93.7467 472.46 93.4752 472.885 93.0509C473.394 92.5418 473.682 91.9818 473.75 91.3708ZM476.101 89.2744C476.61 89.1387 477.077 88.8587 477.501 88.4344C477.917 88.0186 478.197 87.5519 478.333 87.0428C478.469 86.5337 478.469 86.0246 478.316 85.4985C478.163 84.9894 477.875 84.5142 477.433 84.073C477.001 83.6402 476.525 83.3517 476.008 83.1905C475.49 83.0462 474.973 83.0378 474.463 83.1735C473.954 83.3093 473.488 83.5893 473.072 84.0051C472.648 84.4293 472.368 84.896 472.232 85.4051C472.096 85.9143 472.105 86.4319 472.257 86.941C472.41 87.4671 472.707 87.9338 473.14 88.3665C473.581 88.8077 474.048 89.1047 474.565 89.249C475.083 89.4102 475.592 89.4102 476.101 89.2744ZM477.425 86.8646C477.34 87.221 477.162 87.535 476.882 87.815C476.593 88.1035 476.279 88.2817 475.923 88.3665C475.567 88.4514 475.219 88.4259 474.854 88.2986C474.497 88.1798 474.158 87.9592 473.853 87.6537C473.547 87.3483 473.335 87.0173 473.208 86.6525C473.089 86.2961 473.055 85.9397 473.14 85.5833C473.225 85.227 473.403 84.913 473.691 84.6245C473.971 84.3445 474.285 84.1663 474.642 84.0814C474.998 83.9966 475.363 84.022 475.719 84.1408C476.084 84.2681 476.415 84.4803 476.721 84.7857C477.026 85.0912 477.247 85.4306 477.365 85.787C477.493 86.1519 477.51 86.5082 477.425 86.8646ZM482.482 75.511C481.871 75.511 481.328 75.7486 480.845 76.2323C480.149 76.9281 479.928 77.7087 480.166 78.5573C479.776 78.4045 479.385 78.3876 479.012 78.4894C478.639 78.5912 478.282 78.7948 477.977 79.1003C477.442 79.6349 477.238 80.2798 477.357 81.0095L476.67 80.5089L476.067 81.1113L480.395 85.4388L481.091 84.743L478.808 82.4605C478.375 82.0277 478.129 81.578 478.062 81.1028C477.994 80.6277 478.138 80.2119 478.494 79.8555C478.825 79.5246 479.19 79.3803 479.597 79.4143C479.996 79.4567 480.412 79.6858 480.828 80.1016L483.28 82.5538L483.976 81.858L481.659 79.5416C481.218 79.1003 480.972 78.6506 480.921 78.1924C480.87 77.7342 481.031 77.3184 481.396 76.9535C481.719 76.6311 482.084 76.4869 482.482 76.5293C482.881 76.5717 483.297 76.8008 483.713 77.2166L486.165 79.6688L486.861 78.973L484.366 76.4784C483.721 75.8335 483.093 75.511 482.482 75.511ZM486.888 70.7153C486.404 70.8595 485.954 71.1226 485.556 71.5214C484.928 72.1493 484.682 72.9045 484.817 73.753L484.028 73.1505L483.426 73.753L489.45 79.7775L490.146 79.0818L487.787 76.7228C488.144 76.8077 488.517 76.7907 488.899 76.6635C489.272 76.5447 489.629 76.3071 489.985 75.9507C490.375 75.5604 490.638 75.1106 490.774 74.6015C490.901 74.1009 490.893 73.6003 490.732 73.0827C490.579 72.5735 490.29 72.0984 489.849 71.6571C489.391 71.1989 488.907 70.9019 488.39 70.7407C487.881 70.588 487.38 70.5795 486.888 70.7153ZM489.892 73.9227C489.926 74.4827 489.722 74.9749 489.298 75.3991C489.018 75.6792 488.704 75.8573 488.347 75.9422C487.991 76.0271 487.643 76.0016 487.278 75.8743C486.913 75.747 486.574 75.5264 486.26 75.2125C485.954 74.907 485.742 74.5761 485.623 74.2197C485.505 73.8633 485.479 73.5154 485.564 73.159C485.649 72.8026 485.827 72.4887 486.107 72.2087C486.531 71.7844 487.032 71.5893 487.592 71.6232C488.152 71.6571 488.67 71.9032 489.136 72.3699C489.612 72.8451 489.858 73.3627 489.892 73.9227ZM493.453 71.9227C493.962 71.7869 494.429 71.5069 494.853 71.0827C495.269 70.6669 495.549 70.2002 495.685 69.6911C495.82 69.182 495.82 68.6728 495.668 68.1467C495.515 67.6376 495.226 67.1625 494.785 66.7212C494.352 66.2885 493.877 66 493.36 65.8388C492.842 65.6945 492.324 65.686 491.815 65.8218C491.306 65.9575 490.839 66.2376 490.424 66.6533C489.999 67.0776 489.719 67.5443 489.584 68.0534C489.448 68.5625 489.456 69.0801 489.609 69.5892C489.762 70.1153 490.059 70.582 490.492 71.0148C490.933 71.456 491.399 71.753 491.917 71.8972C492.435 72.0585 492.944 72.0585 493.453 71.9227ZM494.777 69.5129C494.692 69.8693 494.514 70.1832 494.234 70.4632C493.945 70.7517 493.631 70.9299 493.275 71.0148C492.918 71.0996 492.57 71.0742 492.206 70.9469C491.849 70.8281 491.51 70.6075 491.204 70.302C490.899 69.9965 490.687 69.6656 490.559 69.3007C490.441 68.9444 490.407 68.588 490.492 68.2316C490.576 67.8752 490.755 67.5613 491.043 67.2728C491.323 66.9927 491.637 66.8146 491.993 66.7297C492.35 66.6449 492.715 66.6703 493.071 66.7891C493.436 66.9164 493.767 67.1285 494.072 67.434C494.378 67.7395 494.598 68.0789 494.717 68.4352C494.844 68.8001 494.861 69.1565 494.777 69.5129ZM497.229 60.7982C496.593 60.8067 496.016 61.0613 495.49 61.5874C494.862 62.2153 494.599 62.9026 494.7 63.6493L494.022 63.1571L493.419 63.7596L497.747 68.0871L498.442 67.3913L496.279 65.2275C495.795 64.7439 495.524 64.2517 495.473 63.7257C495.422 63.2165 495.6 62.7498 496.007 62.3425C496.381 61.9692 496.788 61.7995 497.229 61.8334C497.67 61.8674 498.112 62.105 498.553 62.5462L500.92 64.9136L501.616 64.2178L499.206 61.808C498.527 61.1292 497.874 60.7982 497.229 60.7982ZM499.279 59.9026C499.448 60.4118 499.745 60.8784 500.187 61.3197C500.628 61.7609 501.095 62.0579 501.612 62.2191C502.13 62.3803 502.639 62.3803 503.148 62.2446C503.657 62.1088 504.115 61.8203 504.548 61.3876C505.04 60.8954 505.32 60.3439 505.38 59.7244C505.439 59.105 505.286 58.528 504.93 58.0019L504.226 58.7062C504.429 59.0626 504.506 59.4275 504.438 59.8008C504.37 60.1742 504.183 60.5136 503.878 60.819C503.47 61.2263 503.021 61.4215 502.52 61.413C502.011 61.413 501.544 61.2009 501.112 60.7851L501.052 60.7257L504.412 57.3655C504.285 57.2213 504.2 57.1195 504.132 57.0516C503.7 56.6528 503.241 56.3812 502.758 56.237C502.274 56.1097 501.799 56.1097 501.324 56.2455C500.857 56.3897 500.416 56.6613 500.025 57.0516C499.618 57.4589 499.355 57.9086 499.236 58.4007C499.109 58.9014 499.117 59.402 499.279 59.9026ZM503.131 57.4928L500.518 60.1063C500.212 59.7329 500.068 59.3171 500.102 58.842C500.136 58.3838 500.314 57.985 500.645 57.654C501.01 57.2892 501.417 57.0855 501.858 57.0516C502.299 57.0176 502.732 57.1619 503.131 57.4928ZM506.734 51.2937C506.097 51.3022 505.52 51.5568 504.994 52.0829C504.366 52.7108 504.103 53.3981 504.205 54.1448L503.526 53.6526L502.924 54.2551L507.251 58.5826L507.947 57.8868L505.783 55.723C505.3 55.2394 505.028 54.7472 504.977 54.2211C504.926 53.712 505.104 53.2453 505.512 52.838C505.885 52.4647 506.292 52.295 506.734 52.3289C507.175 52.3629 507.616 52.6005 508.057 53.0417L510.425 55.4091L511.12 54.7133L508.711 52.3035C508.032 51.6246 507.378 51.2937 506.734 51.2937ZM508.605 49.8466L511.168 52.4091C511.558 52.7995 511.931 53.0031 512.279 53.0116C512.636 53.0286 513.017 52.8164 513.425 52.4091L514.222 51.6115L513.586 50.9751L512.831 51.7303C512.652 51.9085 512.491 52.0018 512.347 51.9934C512.203 51.9849 512.042 51.8915 511.855 51.7049L509.301 49.1508L510.395 48.0562L509.759 47.4198L508.664 48.5144L507.451 47.301L506.755 47.9968L507.969 49.2102L507.188 49.9908L507.824 50.6272L508.605 49.8466Z" fill="#A2A2A2"/>
<g opacity="0.25">
<path d="M118 159.923L152.605 150L162.528 184.605L127.923 194.528L118 159.923Z" fill="#A2A2A2" fill-opacity="0.1"/>
<path d="M118 159.923L152.605 150M118 159.923L127.923 194.528M118 159.923L162.528 184.605M152.605 150L162.528 184.605M152.605 150L127.923 194.528M162.528 184.605L127.923 194.528" stroke="#A2A2A2" stroke-linecap="round" stroke-linejoin="round"/>
</g>
<path d="M257.736 159.923L292.341 150L302.264 184.605L267.659 194.528L257.736 159.923Z" fill="#A2A2A2" fill-opacity="0.1"/>
<path d="M257.736 159.923L292.341 150M257.736 159.923L267.659 194.528M257.736 159.923L302.264 184.605M292.341 150L302.264 184.605M292.341 150L267.659 194.528M302.264 184.605L267.659 194.528" stroke="#A2A2A2" stroke-linecap="round" stroke-linejoin="round"/>
<g opacity="0.25">
<path d="M397.472 159.923L432.077 150L442 184.605L407.395 194.528L397.472 159.923Z" fill="#A2A2A2" fill-opacity="0.1"/>
<path d="M397.472 159.923L432.077 150M397.472 159.923L407.395 194.528M397.472 159.923L442 184.605M432.077 150L442 184.605M432.077 150L407.395 194.528M442 184.605L407.395 194.528" stroke="#A2A2A2" stroke-linecap="round" stroke-linejoin="round"/>
</g>
<path d="M23.3309 295.742L91.2132 227.859L116.669 253.315L48.7868 321.197L23.3309 295.742Z" fill="#A2A2A2" fill-opacity="0.1"/>
<path d="M23.3309 295.742L91.2132 227.859M23.3309 295.742L48.7868 321.197M23.3309 295.742L52.9852 282.262M91.2132 227.859L116.669 253.315M91.2132 227.859L77.734 257.514M116.669 253.315L48.7868 321.197M116.669 253.315L87.0147 266.794M48.7868 321.197L62.266 291.543" stroke="#A2A2A2" stroke-linecap="round" stroke-linejoin="round"/>
<path d="M53.7501 295.899C53.8095 295.297 53.6398 294.703 53.2494 294.126L52.5536 294.822C52.7743 295.178 52.8676 295.543 52.8167 295.916C52.7658 296.307 52.5791 296.646 52.2651 296.96C51.8494 297.376 51.3657 297.571 50.8142 297.528C50.2626 297.486 49.745 297.223 49.2698 296.748C48.8031 296.281 48.5486 295.772 48.5062 295.22C48.4722 294.677 48.6589 294.185 49.0747 293.769C49.3801 293.464 49.7196 293.294 50.1014 293.235C50.4832 293.192 50.8481 293.269 51.1875 293.472L51.8918 292.768C51.3318 292.378 50.7463 292.217 50.1438 292.276C49.5414 292.335 48.9898 292.615 48.4807 293.125C48.0564 293.549 47.7849 294.007 47.6492 294.516C47.5134 295.025 47.5134 295.534 47.6661 296.043C47.8273 296.561 48.1243 297.028 48.5571 297.461C48.9983 297.902 49.465 298.199 49.9826 298.36C50.4917 298.53 50.9924 298.538 51.5015 298.402C52.0021 298.275 52.4603 298.004 52.8846 297.579C53.3937 297.07 53.6822 296.51 53.7501 295.899ZM56.101 293.803C56.6101 293.667 57.0768 293.387 57.5011 292.963C57.9169 292.547 58.1969 292.08 58.3326 291.571C58.4684 291.062 58.4684 290.553 58.3157 290.027C58.1629 289.518 57.8744 289.043 57.4332 288.601C57.0005 288.169 56.5253 287.88 56.0077 287.719C55.4901 287.575 54.9725 287.566 54.4634 287.702C53.9542 287.838 53.4876 288.118 53.0718 288.533C52.6475 288.958 52.3675 289.424 52.2317 289.934C52.096 290.443 52.1045 290.96 52.2572 291.469C52.4099 291.995 52.7069 292.462 53.1397 292.895C53.5809 293.336 54.0476 293.633 54.5652 293.777C55.0828 293.939 55.5919 293.939 56.101 293.803ZM57.4247 291.393C57.3399 291.749 57.1617 292.063 56.8817 292.343C56.5932 292.632 56.2792 292.81 55.9228 292.895C55.5664 292.98 55.2186 292.954 54.8537 292.827C54.4973 292.708 54.1579 292.488 53.8524 292.182C53.547 291.877 53.3348 291.546 53.2075 291.181C53.0887 290.824 53.0548 290.468 53.1397 290.112C53.2245 289.755 53.4027 289.441 53.6912 289.153C53.9712 288.873 54.2852 288.695 54.6416 288.61C54.9979 288.525 55.3628 288.55 55.7192 288.669C56.0841 288.797 56.415 289.009 56.7204 289.314C57.0259 289.62 57.2465 289.959 57.3653 290.315C57.4926 290.68 57.5096 291.037 57.4247 291.393ZM62.4822 280.039C61.8713 280.039 61.3282 280.277 60.8446 280.761C60.1488 281.456 59.9281 282.237 60.1657 283.086C59.7754 282.933 59.3851 282.916 59.0117 283.018C58.6384 283.12 58.282 283.323 57.9765 283.629C57.442 284.163 57.2383 284.808 57.3571 285.538L56.6698 285.037L56.0673 285.64L60.3948 289.967L61.0906 289.271L58.8081 286.989C58.3753 286.556 58.1293 286.106 58.0614 285.631C57.9935 285.156 58.1378 284.74 58.4941 284.384C58.8251 284.053 59.1899 283.909 59.5972 283.943C59.996 283.985 60.4118 284.214 60.8276 284.63L63.2798 287.082L63.9756 286.386L61.6591 284.07C61.2179 283.629 60.9718 283.179 60.9209 282.721C60.87 282.263 61.0312 281.847 61.3961 281.482C61.7185 281.159 62.0834 281.015 62.4822 281.058C62.881 281.1 63.2968 281.329 63.7126 281.745L66.1648 284.197L66.8606 283.501L64.3659 281.007C63.7211 280.362 63.0932 280.039 62.4822 280.039ZM66.8877 275.244C66.404 275.388 65.9543 275.651 65.5555 276.05C64.9276 276.678 64.6815 277.433 64.8173 278.281L64.0281 277.679L63.4257 278.281L69.4502 284.306L70.146 283.61L67.7871 281.251C68.1435 281.336 68.5168 281.319 68.8987 281.192C69.272 281.073 69.6284 280.835 69.9848 280.479C70.3751 280.089 70.6382 279.639 70.7739 279.13C70.9012 278.629 70.8927 278.129 70.7315 277.611C70.5788 277.102 70.2903 276.627 69.849 276.186C69.3908 275.727 68.9072 275.43 68.3896 275.269C67.8804 275.116 67.3798 275.108 66.8877 275.244ZM69.8915 278.451C69.9254 279.011 69.7218 279.503 69.2975 279.928C69.0175 280.208 68.7035 280.386 68.3471 280.471C67.9908 280.555 67.6429 280.53 67.278 280.403C66.9131 280.275 66.5737 280.055 66.2598 279.741C65.9543 279.435 65.7422 279.104 65.6234 278.748C65.5046 278.392 65.4791 278.044 65.564 277.687C65.6488 277.331 65.827 277.017 66.107 276.737C66.5313 276.313 67.0319 276.118 67.5919 276.152C68.152 276.186 68.6696 276.432 69.1363 276.898C69.6114 277.373 69.8575 277.891 69.8915 278.451ZM73.4528 276.451C73.9619 276.315 74.4286 276.035 74.8528 275.611C75.2686 275.195 75.5486 274.729 75.6844 274.219C75.8202 273.71 75.8202 273.201 75.6674 272.675C75.5147 272.166 75.2262 271.691 74.7849 271.25C74.3522 270.817 73.877 270.528 73.3594 270.367C72.8418 270.223 72.3242 270.214 71.8151 270.35C71.306 270.486 70.8393 270.766 70.4235 271.182C69.9992 271.606 69.7192 272.073 69.5835 272.582C69.4477 273.091 69.4562 273.609 69.6089 274.118C69.7617 274.644 70.0586 275.11 70.4914 275.543C70.9326 275.984 71.3993 276.281 71.9169 276.426C72.4345 276.587 72.9436 276.587 73.4528 276.451ZM74.7765 274.041C74.6916 274.398 74.5134 274.712 74.2334 274.992C73.9449 275.28 73.6309 275.458 73.2746 275.543C72.9182 275.628 72.5703 275.603 72.2054 275.475C71.849 275.356 71.5096 275.136 71.2042 274.83C70.8987 274.525 70.6866 274.194 70.5593 273.829C70.4405 273.473 70.4065 273.116 70.4914 272.76C70.5762 272.404 70.7544 272.09 71.0429 271.801C71.323 271.521 71.6369 271.343 71.9933 271.258C72.3497 271.173 72.7145 271.199 73.0709 271.317C73.4358 271.445 73.7667 271.657 74.0722 271.962C74.3777 272.268 74.5983 272.607 74.7171 272.964C74.8443 273.328 74.8613 273.685 74.7765 274.041ZM77.229 265.327C76.5926 265.335 76.0156 265.59 75.4895 266.116C74.8616 266.744 74.5985 267.431 74.7004 268.178L74.0215 267.686L73.4191 268.288L77.7466 272.615L78.4424 271.92L76.2786 269.756C75.795 269.272 75.5234 268.78 75.4725 268.254C75.4216 267.745 75.5998 267.278 76.0071 266.871C76.3804 266.498 76.7877 266.328 77.229 266.362C77.6702 266.396 78.1114 266.633 78.5527 267.075L80.9201 269.442L81.6159 268.746L79.206 266.336C78.5272 265.658 77.8739 265.327 77.229 265.327ZM79.2786 264.431C79.4483 264.94 79.7453 265.407 80.1865 265.848C80.6277 266.289 81.0944 266.586 81.612 266.747C82.1296 266.909 82.6387 266.909 83.1479 266.773C83.657 266.637 84.1152 266.349 84.5479 265.916C85.0401 265.424 85.3201 264.872 85.3795 264.253C85.4389 263.633 85.2861 263.056 84.9298 262.53L84.2255 263.235C84.4291 263.591 84.5055 263.956 84.4376 264.329C84.3697 264.703 84.1831 265.042 83.8776 265.347C83.4703 265.755 83.0206 265.95 82.5199 265.941C82.0108 265.941 81.5441 265.729 81.1114 265.313L81.052 265.254L84.4122 261.894C84.2849 261.75 84.2 261.648 84.1321 261.58C83.6994 261.181 83.2412 260.91 82.7575 260.765C82.2739 260.638 81.7987 260.638 81.3235 260.774C80.8568 260.918 80.4156 261.19 80.0253 261.58C79.618 261.987 79.3549 262.437 79.2361 262.929C79.1089 263.43 79.1173 263.93 79.2786 264.431ZM83.1309 262.021L80.5174 264.635C80.2119 264.261 80.0677 263.846 80.1016 263.37C80.1356 262.912 80.3138 262.513 80.6447 262.182C81.0096 261.818 81.4169 261.614 81.8581 261.58C82.2993 261.546 82.7321 261.69 83.1309 262.021ZM86.7335 255.822C86.0971 255.831 85.5201 256.085 84.994 256.611C84.3661 257.239 84.103 257.926 84.2049 258.673L83.526 258.181L82.9236 258.783L87.2511 263.111L87.9469 262.415L85.7831 260.251C85.2995 259.768 85.0279 259.276 84.977 258.75C84.9261 258.24 85.1043 257.774 85.5116 257.366C85.885 256.993 86.2922 256.823 86.7335 256.857C87.1747 256.891 87.616 257.129 88.0572 257.57L90.4246 259.937L91.1204 259.242L88.7106 256.832C88.0317 256.153 87.3784 255.822 86.7335 255.822ZM88.6049 254.375L91.1674 256.938C91.5578 257.328 91.9311 257.531 92.279 257.54C92.6354 257.557 93.0172 257.345 93.4245 256.938L94.2221 256.14L93.5857 255.504L92.8306 256.259C92.6524 256.437 92.4911 256.53 92.3469 256.522C92.2026 256.513 92.0414 256.42 91.8547 256.233L89.3007 253.679L90.3953 252.585L89.7589 251.948L88.6643 253.043L87.4509 251.829L86.7551 252.525L87.9685 253.739L87.1878 254.519L87.8242 255.156L88.6049 254.375Z" fill="#A2A2A2"/>
<g opacity="0.75">
<path d="M163.331 295.742L231.213 227.859L256.669 253.315L188.787 321.197L163.331 295.742Z" fill="#A2A2A2" fill-opacity="0.1"/>
<path d="M163.331 295.742L231.213 227.859M163.331 295.742L188.787 321.197M163.331 295.742L192.985 282.262M231.213 227.859L256.669 253.315M231.213 227.859L217.734 257.514M256.669 253.315L188.787 321.197M256.669 253.315L227.015 266.794M188.787 321.197L202.266 291.543" stroke="#A2A2A2" stroke-linecap="round" stroke-linejoin="round"/>
<path d="M193.75 295.899C193.809 295.297 193.64 294.703 193.249 294.126L192.554 294.822C192.774 295.178 192.868 295.543 192.817 295.916C192.766 296.307 192.579 296.646 192.265 296.96C191.849 297.376 191.366 297.571 190.814 297.528C190.263 297.486 189.745 297.223 189.27 296.748C188.803 296.281 188.549 295.772 188.506 295.22C188.472 294.677 188.659 294.185 189.075 293.769C189.38 293.464 189.72 293.294 190.101 293.235C190.483 293.192 190.848 293.269 191.188 293.472L191.892 292.768C191.332 292.378 190.746 292.217 190.144 292.276C189.541 292.335 188.99 292.615 188.481 293.125C188.056 293.549 187.785 294.007 187.649 294.516C187.513 295.025 187.513 295.534 187.666 296.043C187.827 296.561 188.124 297.028 188.557 297.461C188.998 297.902 189.465 298.199 189.983 298.36C190.492 298.53 190.992 298.538 191.501 298.402C192.002 298.275 192.46 298.004 192.885 297.579C193.394 297.07 193.682 296.51 193.75 295.899ZM196.101 293.803C196.61 293.667 197.077 293.387 197.501 292.963C197.917 292.547 198.197 292.08 198.333 291.571C198.468 291.062 198.468 290.553 198.316 290.027C198.163 289.518 197.874 289.043 197.433 288.601C197 288.169 196.525 287.88 196.008 287.719C195.49 287.575 194.972 287.566 194.463 287.702C193.954 287.838 193.488 288.118 193.072 288.533C192.648 288.958 192.367 289.424 192.232 289.934C192.096 290.443 192.104 290.96 192.257 291.469C192.41 291.995 192.707 292.462 193.14 292.895C193.581 293.336 194.048 293.633 194.565 293.777C195.083 293.939 195.592 293.939 196.101 293.803ZM197.425 291.393C197.34 291.749 197.162 292.063 196.882 292.343C196.593 292.632 196.279 292.81 195.923 292.895C195.566 292.98 195.219 292.954 194.854 292.827C194.497 292.708 194.158 292.488 193.852 292.182C193.547 291.877 193.335 291.546 193.208 291.181C193.089 290.824 193.055 290.468 193.14 290.112C193.225 289.755 193.403 289.441 193.691 289.153C193.971 288.873 194.285 288.695 194.642 288.61C194.998 288.525 195.363 288.55 195.719 288.669C196.084 288.797 196.415 289.009 196.72 289.314C197.026 289.62 197.247 289.959 197.365 290.315C197.493 290.68 197.51 291.037 197.425 291.393ZM202.482 280.039C201.871 280.039 201.328 280.277 200.845 280.761C200.149 281.456 199.928 282.237 200.166 283.086C199.775 282.933 199.385 282.916 199.012 283.018C198.638 283.12 198.282 283.323 197.977 283.629C197.442 284.163 197.238 284.808 197.357 285.538L196.67 285.037L196.067 285.64L200.395 289.967L201.091 289.271L198.808 286.989C198.375 286.556 198.129 286.106 198.061 285.631C197.994 285.156 198.138 284.74 198.494 284.384C198.825 284.053 199.19 283.909 199.597 283.943C199.996 283.985 200.412 284.214 200.828 284.63L203.28 287.082L203.976 286.386L201.659 284.07C201.218 283.629 200.972 283.179 200.921 282.721C200.87 282.263 201.031 281.847 201.396 281.482C201.719 281.159 202.083 281.015 202.482 281.058C202.881 281.1 203.297 281.329 203.713 281.745L206.165 284.197L206.861 283.501L204.366 281.007C203.721 280.362 203.093 280.039 202.482 280.039ZM206.888 275.244C206.404 275.388 205.954 275.651 205.555 276.05C204.928 276.678 204.681 277.433 204.817 278.281L204.028 277.679L203.426 278.281L209.45 284.306L210.146 283.61L207.787 281.251C208.143 281.336 208.517 281.319 208.899 281.192C209.272 281.073 209.628 280.835 209.985 280.479C210.375 280.089 210.638 279.639 210.774 279.13C210.901 278.629 210.893 278.129 210.732 277.611C210.579 277.102 210.29 276.627 209.849 276.186C209.391 275.727 208.907 275.43 208.39 275.269C207.88 275.116 207.38 275.108 206.888 275.244ZM209.891 278.451C209.925 279.011 209.722 279.503 209.297 279.928C209.017 280.208 208.704 280.386 208.347 280.471C207.991 280.555 207.643 280.53 207.278 280.403C206.913 280.275 206.574 280.055 206.26 279.741C205.954 279.435 205.742 279.104 205.623 278.748C205.505 278.392 205.479 278.044 205.564 277.687C205.649 277.331 205.827 277.017 206.107 276.737C206.531 276.313 207.032 276.118 207.592 276.152C208.152 276.186 208.67 276.432 209.136 276.898C209.611 277.373 209.858 277.891 209.891 278.451ZM213.453 276.451C213.962 276.315 214.429 276.035 214.853 275.611C215.269 275.195 215.549 274.729 215.684 274.219C215.82 273.71 215.82 273.201 215.667 272.675C215.515 272.166 215.226 271.691 214.785 271.25C214.352 270.817 213.877 270.528 213.359 270.367C212.842 270.223 212.324 270.214 211.815 270.35C211.306 270.486 210.839 270.766 210.424 271.182C209.999 271.606 209.719 272.073 209.583 272.582C209.448 273.091 209.456 273.609 209.609 274.118C209.762 274.644 210.059 275.11 210.491 275.543C210.933 275.984 211.399 276.281 211.917 276.426C212.435 276.587 212.944 276.587 213.453 276.451ZM214.776 274.041C214.692 274.398 214.513 274.712 214.233 274.992C213.945 275.28 213.631 275.458 213.275 275.543C212.918 275.628 212.57 275.603 212.205 275.475C211.849 275.356 211.51 275.136 211.204 274.83C210.899 274.525 210.687 274.194 210.559 273.829C210.44 273.473 210.407 273.116 210.491 272.76C210.576 272.404 210.754 272.09 211.043 271.801C211.323 271.521 211.637 271.343 211.993 271.258C212.35 271.173 212.715 271.199 213.071 271.317C213.436 271.445 213.767 271.657 214.072 271.962C214.378 272.268 214.598 272.607 214.717 272.964C214.844 273.328 214.861 273.685 214.776 274.041ZM217.229 265.327C216.593 265.335 216.016 265.59 215.489 266.116C214.862 266.744 214.599 267.431 214.7 268.178L214.022 267.686L213.419 268.288L217.747 272.615L218.442 271.92L216.279 269.756C215.795 269.272 215.523 268.78 215.473 268.254C215.422 267.745 215.6 267.278 216.007 266.871C216.38 266.498 216.788 266.328 217.229 266.362C217.67 266.396 218.111 266.633 218.553 267.075L220.92 269.442L221.616 268.746L219.206 266.336C218.527 265.658 217.874 265.327 217.229 265.327ZM219.279 264.431C219.448 264.94 219.745 265.407 220.186 265.848C220.628 266.289 221.094 266.586 221.612 266.747C222.13 266.909 222.639 266.909 223.148 266.773C223.657 266.637 224.115 266.349 224.548 265.916C225.04 265.424 225.32 264.872 225.379 264.253C225.439 263.633 225.286 263.056 224.93 262.53L224.225 263.235C224.429 263.591 224.505 263.956 224.438 264.329C224.37 264.703 224.183 265.042 223.878 265.347C223.47 265.755 223.021 265.95 222.52 265.941C222.011 265.941 221.544 265.729 221.111 265.313L221.052 265.254L224.412 261.894C224.285 261.75 224.2 261.648 224.132 261.58C223.699 261.181 223.241 260.91 222.758 260.765C222.274 260.638 221.799 260.638 221.324 260.774C220.857 260.918 220.416 261.19 220.025 261.58C219.618 261.987 219.355 262.437 219.236 262.929C219.109 263.43 219.117 263.93 219.279 264.431ZM223.131 262.021L220.517 264.635C220.212 264.261 220.068 263.846 220.102 263.37C220.136 262.912 220.314 262.513 220.645 262.182C221.01 261.818 221.417 261.614 221.858 261.58C222.299 261.546 222.732 261.69 223.131 262.021ZM226.733 255.822C226.097 255.831 225.52 256.085 224.994 256.611C224.366 257.239 224.103 257.926 224.205 258.673L223.526 258.181L222.924 258.783L227.251 263.111L227.947 262.415L225.783 260.251C225.299 259.768 225.028 259.276 224.977 258.75C224.926 258.24 225.104 257.774 225.512 257.366C225.885 256.993 226.292 256.823 226.733 256.857C227.175 256.891 227.616 257.129 228.057 257.57L230.425 259.937L231.12 259.242L228.711 256.832C228.032 256.153 227.378 255.822 226.733 255.822ZM228.605 254.375L231.167 256.938C231.558 257.328 231.931 257.531 232.279 257.54C232.635 257.557 233.017 257.345 233.425 256.938L234.222 256.14L233.586 255.504L232.831 256.259C232.652 256.437 232.491 256.53 232.347 256.522C232.203 256.513 232.041 256.42 231.855 256.233L229.301 253.679L230.395 252.585L229.759 251.948L228.664 253.043L227.451 251.829L226.755 252.525L227.968 253.739L227.188 254.519L227.824 255.156L228.605 254.375Z" fill="#A2A2A2"/>
</g>
<g opacity="0.5">
<path d="M303.331 295.742L371.213 227.859L396.669 253.315L328.787 321.197L303.331 295.742Z" fill="#A2A2A2" fill-opacity="0.1"/>
<path d="M303.331 295.742L371.213 227.859M303.331 295.742L328.787 321.197M303.331 295.742L332.985 282.262M371.213 227.859L396.669 253.315M371.213 227.859L357.734 257.514M396.669 253.315L328.787 321.197M396.669 253.315L367.015 266.794M328.787 321.197L342.266 291.543" stroke="#A2A2A2" stroke-linecap="round" stroke-linejoin="round"/>
<path d="M333.75 295.899C333.809 295.297 333.64 294.703 333.249 294.126L332.554 294.822C332.774 295.178 332.868 295.543 332.817 295.916C332.766 296.307 332.579 296.646 332.265 296.96C331.849 297.376 331.366 297.571 330.814 297.528C330.263 297.486 329.745 297.223 329.27 296.748C328.803 296.281 328.549 295.772 328.506 295.22C328.472 294.677 328.659 294.185 329.075 293.769C329.38 293.464 329.72 293.294 330.101 293.235C330.483 293.192 330.848 293.269 331.188 293.472L331.892 292.768C331.332 292.378 330.746 292.217 330.144 292.276C329.541 292.335 328.99 292.615 328.481 293.125C328.056 293.549 327.785 294.007 327.649 294.516C327.513 295.025 327.513 295.534 327.666 296.043C327.827 296.561 328.124 297.028 328.557 297.461C328.998 297.902 329.465 298.199 329.983 298.36C330.492 298.53 330.992 298.538 331.501 298.402C332.002 298.275 332.46 298.004 332.885 297.579C333.394 297.07 333.682 296.51 333.75 295.899ZM336.101 293.803C336.61 293.667 337.077 293.387 337.501 292.963C337.917 292.547 338.197 292.08 338.333 291.571C338.468 291.062 338.468 290.553 338.316 290.027C338.163 289.518 337.874 289.043 337.433 288.601C337 288.169 336.525 287.88 336.008 287.719C335.49 287.575 334.972 287.566 334.463 287.702C333.954 287.838 333.488 288.118 333.072 288.533C332.648 288.958 332.367 289.424 332.232 289.934C332.096 290.443 332.104 290.96 332.257 291.469C332.41 291.995 332.707 292.462 333.14 292.895C333.581 293.336 334.048 293.633 334.565 293.777C335.083 293.939 335.592 293.939 336.101 293.803ZM337.425 291.393C337.34 291.749 337.162 292.063 336.882 292.343C336.593 292.632 336.279 292.81 335.923 292.895C335.566 292.98 335.219 292.954 334.854 292.827C334.497 292.708 334.158 292.488 333.852 292.182C333.547 291.877 333.335 291.546 333.208 291.181C333.089 290.824 333.055 290.468 333.14 290.112C333.225 289.755 333.403 289.441 333.691 289.153C333.971 288.873 334.285 288.695 334.642 288.61C334.998 288.525 335.363 288.55 335.719 288.669C336.084 288.797 336.415 289.009 336.72 289.314C337.026 289.62 337.247 289.959 337.365 290.315C337.493 290.68 337.51 291.037 337.425 291.393ZM342.482 280.039C341.871 280.039 341.328 280.277 340.845 280.761C340.149 281.456 339.928 282.237 340.166 283.086C339.775 282.933 339.385 282.916 339.012 283.018C338.638 283.12 338.282 283.323 337.977 283.629C337.442 284.163 337.238 284.808 337.357 285.538L336.67 285.037L336.067 285.64L340.395 289.967L341.091 289.271L338.808 286.989C338.375 286.556 338.129 286.106 338.061 285.631C337.994 285.156 338.138 284.74 338.494 284.384C338.825 284.053 339.19 283.909 339.597 283.943C339.996 283.985 340.412 284.214 340.828 284.63L343.28 287.082L343.976 286.386L341.659 284.07C341.218 283.629 340.972 283.179 340.921 282.721C340.87 282.263 341.031 281.847 341.396 281.482C341.719 281.159 342.083 281.015 342.482 281.058C342.881 281.1 343.297 281.329 343.713 281.745L346.165 284.197L346.861 283.501L344.366 281.007C343.721 280.362 343.093 280.039 342.482 280.039ZM346.888 275.244C346.404 275.388 345.954 275.651 345.555 276.05C344.928 276.678 344.681 277.433 344.817 278.281L344.028 277.679L343.426 278.281L349.45 284.306L350.146 283.61L347.787 281.251C348.143 281.336 348.517 281.319 348.899 281.192C349.272 281.073 349.628 280.835 349.985 280.479C350.375 280.089 350.638 279.639 350.774 279.13C350.901 278.629 350.893 278.129 350.732 277.611C350.579 277.102 350.29 276.627 349.849 276.186C349.391 275.727 348.907 275.43 348.39 275.269C347.88 275.116 347.38 275.108 346.888 275.244ZM349.891 278.451C349.925 279.011 349.722 279.503 349.297 279.928C349.017 280.208 348.704 280.386 348.347 280.471C347.991 280.555 347.643 280.53 347.278 280.403C346.913 280.275 346.574 280.055 346.26 279.741C345.954 279.435 345.742 279.104 345.623 278.748C345.505 278.392 345.479 278.044 345.564 277.687C345.649 277.331 345.827 277.017 346.107 276.737C346.531 276.313 347.032 276.118 347.592 276.152C348.152 276.186 348.67 276.432 349.136 276.898C349.611 277.373 349.858 277.891 349.891 278.451ZM353.453 276.451C353.962 276.315 354.429 276.035 354.853 275.611C355.269 275.195 355.549 274.729 355.684 274.219C355.82 273.71 355.82 273.201 355.667 272.675C355.515 272.166 355.226 271.691 354.785 271.25C354.352 270.817 353.877 270.528 353.359 270.367C352.842 270.223 352.324 270.214 351.815 270.35C351.306 270.486 350.839 270.766 350.424 271.182C349.999 271.606 349.719 272.073 349.583 272.582C349.448 273.091 349.456 273.609 349.609 274.118C349.762 274.644 350.059 275.11 350.491 275.543C350.933 275.984 351.399 276.281 351.917 276.426C352.435 276.587 352.944 276.587 353.453 276.451ZM354.776 274.041C354.692 274.398 354.513 274.712 354.233 274.992C353.945 275.28 353.631 275.458 353.275 275.543C352.918 275.628 352.57 275.603 352.205 275.475C351.849 275.356 351.51 275.136 351.204 274.83C350.899 274.525 350.687 274.194 350.559 273.829C350.44 273.473 350.407 273.116 350.491 272.76C350.576 272.404 350.754 272.09 351.043 271.801C351.323 271.521 351.637 271.343 351.993 271.258C352.35 271.173 352.715 271.199 353.071 271.317C353.436 271.445 353.767 271.657 354.072 271.962C354.378 272.268 354.598 272.607 354.717 272.964C354.844 273.328 354.861 273.685 354.776 274.041ZM357.229 265.327C356.593 265.335 356.016 265.59 355.489 266.116C354.862 266.744 354.599 267.431 354.7 268.178L354.022 267.686L353.419 268.288L357.747 272.615L358.442 271.92L356.279 269.756C355.795 269.272 355.523 268.78 355.473 268.254C355.422 267.745 355.6 267.278 356.007 266.871C356.38 266.498 356.788 266.328 357.229 266.362C357.67 266.396 358.111 266.633 358.553 267.075L360.92 269.442L361.616 268.746L359.206 266.336C358.527 265.658 357.874 265.327 357.229 265.327ZM359.279 264.431C359.448 264.94 359.745 265.407 360.186 265.848C360.628 266.289 361.094 266.586 361.612 266.747C362.13 266.909 362.639 266.909 363.148 266.773C363.657 266.637 364.115 266.349 364.548 265.916C365.04 265.424 365.32 264.872 365.379 264.253C365.439 263.633 365.286 263.056 364.93 262.53L364.225 263.235C364.429 263.591 364.505 263.956 364.438 264.329C364.37 264.703 364.183 265.042 363.878 265.347C363.47 265.755 363.021 265.95 362.52 265.941C362.011 265.941 361.544 265.729 361.111 265.313L361.052 265.254L364.412 261.894C364.285 261.75 364.2 261.648 364.132 261.58C363.699 261.181 363.241 260.91 362.758 260.765C362.274 260.638 361.799 260.638 361.324 260.774C360.857 260.918 360.416 261.19 360.025 261.58C359.618 261.987 359.355 262.437 359.236 262.929C359.109 263.43 359.117 263.93 359.279 264.431ZM363.131 262.021L360.517 264.635C360.212 264.261 360.068 263.846 360.102 263.37C360.136 262.912 360.314 262.513 360.645 262.182C361.01 261.818 361.417 261.614 361.858 261.58C362.299 261.546 362.732 261.69 363.131 262.021ZM366.733 255.822C366.097 255.831 365.52 256.085 364.994 256.611C364.366 257.239 364.103 257.926 364.205 258.673L363.526 258.181L362.924 258.783L367.251 263.111L367.947 262.415L365.783 260.251C365.299 259.768 365.028 259.276 364.977 258.75C364.926 258.24 365.104 257.774 365.512 257.366C365.885 256.993 366.292 256.823 366.733 256.857C367.175 256.891 367.616 257.129 368.057 257.57L370.425 259.937L371.12 259.242L368.711 256.832C368.032 256.153 367.378 255.822 366.733 255.822ZM368.605 254.375L371.167 256.938C371.558 257.328 371.931 257.531 372.279 257.54C372.635 257.557 373.017 257.345 373.425 256.938L374.222 256.14L373.586 255.504L372.831 256.259C372.652 256.437 372.491 256.53 372.347 256.522C372.203 256.513 372.041 256.42 371.855 256.233L369.301 253.679L370.395 252.585L369.759 251.948L368.664 253.043L367.451 251.829L366.755 252.525L367.968 253.739L367.188 254.519L367.824 255.156L368.605 254.375Z" fill="#A2A2A2"/>
</g>
<g opacity="0.25">
<path d="M443.331 295.742L511.213 227.859L536.669 253.315L468.787 321.197L443.331 295.742Z" fill="#A2A2A2" fill-opacity="0.1"/>
<path d="M443.331 295.742L511.213 227.859M443.331 295.742L468.787 321.197M443.331 295.742L472.985 282.262M511.213 227.859L536.669 253.315M511.213 227.859L497.734 257.514M536.669 253.315L468.787 321.197M536.669 253.315L507.015 266.794M468.787 321.197L482.266 291.543" stroke="#A2A2A2" stroke-linecap="round" stroke-linejoin="round"/>
<path d="M473.75 295.899C473.81 295.297 473.64 294.703 473.25 294.126L472.554 294.822C472.774 295.178 472.868 295.543 472.817 295.916C472.766 296.307 472.579 296.646 472.265 296.96C471.849 297.376 471.366 297.571 470.814 297.528C470.263 297.486 469.745 297.223 469.27 296.748C468.803 296.281 468.549 295.772 468.506 295.22C468.472 294.677 468.659 294.185 469.075 293.769C469.38 293.464 469.72 293.294 470.102 293.235C470.483 293.192 470.848 293.269 471.188 293.472L471.892 292.768C471.332 292.378 470.746 292.217 470.144 292.276C469.541 292.335 468.99 292.615 468.481 293.125C468.057 293.549 467.785 294.007 467.649 294.516C467.514 295.025 467.514 295.534 467.666 296.043C467.827 296.561 468.124 297.028 468.557 297.461C468.998 297.902 469.465 298.199 469.983 298.36C470.492 298.53 470.992 298.538 471.502 298.402C472.002 298.275 472.46 298.004 472.885 297.579C473.394 297.07 473.682 296.51 473.75 295.899ZM476.101 293.803C476.61 293.667 477.077 293.387 477.501 292.963C477.917 292.547 478.197 292.08 478.333 291.571C478.469 291.062 478.469 290.553 478.316 290.027C478.163 289.518 477.875 289.043 477.433 288.601C477.001 288.169 476.525 287.88 476.008 287.719C475.49 287.575 474.973 287.566 474.463 287.702C473.954 287.838 473.488 288.118 473.072 288.533C472.648 288.958 472.368 289.424 472.232 289.934C472.096 290.443 472.105 290.96 472.257 291.469C472.41 291.995 472.707 292.462 473.14 292.895C473.581 293.336 474.048 293.633 474.565 293.777C475.083 293.939 475.592 293.939 476.101 293.803ZM477.425 291.393C477.34 291.749 477.162 292.063 476.882 292.343C476.593 292.632 476.279 292.81 475.923 292.895C475.567 292.98 475.219 292.954 474.854 292.827C474.497 292.708 474.158 292.488 473.853 292.182C473.547 291.877 473.335 291.546 473.208 291.181C473.089 290.824 473.055 290.468 473.14 290.112C473.225 289.755 473.403 289.441 473.691 289.153C473.971 288.873 474.285 288.695 474.642 288.61C474.998 288.525 475.363 288.55 475.719 288.669C476.084 288.797 476.415 289.009 476.721 289.314C477.026 289.62 477.247 289.959 477.365 290.315C477.493 290.68 477.51 291.037 477.425 291.393ZM482.482 280.039C481.871 280.039 481.328 280.277 480.845 280.761C480.149 281.456 479.928 282.237 480.166 283.086C479.776 282.933 479.385 282.916 479.012 283.018C478.639 283.12 478.282 283.323 477.977 283.629C477.442 284.163 477.238 284.808 477.357 285.538L476.67 285.037L476.067 285.64L480.395 289.967L481.091 289.271L478.808 286.989C478.375 286.556 478.129 286.106 478.062 285.631C477.994 285.156 478.138 284.74 478.494 284.384C478.825 284.053 479.19 283.909 479.597 283.943C479.996 283.985 480.412 284.214 480.828 284.63L483.28 287.082L483.976 286.386L481.659 284.07C481.218 283.629 480.972 283.179 480.921 282.721C480.87 282.263 481.031 281.847 481.396 281.482C481.719 281.159 482.084 281.015 482.482 281.058C482.881 281.1 483.297 281.329 483.713 281.745L486.165 284.197L486.861 283.501L484.366 281.007C483.721 280.362 483.093 280.039 482.482 280.039ZM486.888 275.244C486.404 275.388 485.954 275.651 485.556 276.05C484.928 276.678 484.682 277.433 484.817 278.281L484.028 277.679L483.426 278.281L489.45 284.306L490.146 283.61L487.787 281.251C488.144 281.336 488.517 281.319 488.899 281.192C489.272 281.073 489.629 280.835 489.985 280.479C490.375 280.089 490.638 279.639 490.774 279.13C490.901 278.629 490.893 278.129 490.732 277.611C490.579 277.102 490.29 276.627 489.849 276.186C489.391 275.727 488.907 275.43 488.39 275.269C487.881 275.116 487.38 275.108 486.888 275.244ZM489.892 278.451C489.926 279.011 489.722 279.503 489.298 279.928C489.018 280.208 488.704 280.386 488.347 280.471C487.991 280.555 487.643 280.53 487.278 280.403C486.913 280.275 486.574 280.055 486.26 279.741C485.954 279.435 485.742 279.104 485.623 278.748C485.505 278.392 485.479 278.044 485.564 277.687C485.649 277.331 485.827 277.017 486.107 276.737C486.531 276.313 487.032 276.118 487.592 276.152C488.152 276.186 488.67 276.432 489.136 276.898C489.612 277.373 489.858 277.891 489.892 278.451ZM493.453 276.451C493.962 276.315 494.429 276.035 494.853 275.611C495.269 275.195 495.549 274.729 495.685 274.219C495.82 273.71 495.82 273.201 495.668 272.675C495.515 272.166 495.226 271.691 494.785 271.25C494.352 270.817 493.877 270.528 493.36 270.367C492.842 270.223 492.324 270.214 491.815 270.35C491.306 270.486 490.839 270.766 490.424 271.182C489.999 271.606 489.719 272.073 489.584 272.582C489.448 273.091 489.456 273.609 489.609 274.118C489.762 274.644 490.059 275.11 490.492 275.543C490.933 275.984 491.399 276.281 491.917 276.426C492.435 276.587 492.944 276.587 493.453 276.451ZM494.777 274.041C494.692 274.398 494.514 274.712 494.234 274.992C493.945 275.28 493.631 275.458 493.275 275.543C492.918 275.628 492.57 275.603 492.206 275.475C491.849 275.356 491.51 275.136 491.204 274.83C490.899 274.525 490.687 274.194 490.559 273.829C490.441 273.473 490.407 273.116 490.492 272.76C490.576 272.404 490.755 272.09 491.043 271.801C491.323 271.521 491.637 271.343 491.993 271.258C492.35 271.173 492.715 271.199 493.071 271.317C493.436 271.445 493.767 271.657 494.072 271.962C494.378 272.268 494.598 272.607 494.717 272.964C494.844 273.328 494.861 273.685 494.777 274.041ZM497.229 265.327C496.593 265.335 496.016 265.59 495.49 266.116C494.862 266.744 494.599 267.431 494.7 268.178L494.022 267.686L493.419 268.288L497.747 272.615L498.442 271.92L496.279 269.756C495.795 269.272 495.524 268.78 495.473 268.254C495.422 267.745 495.6 267.278 496.007 266.871C496.381 266.498 496.788 266.328 497.229 266.362C497.67 266.396 498.112 266.633 498.553 267.075L500.92 269.442L501.616 268.746L499.206 266.336C498.527 265.658 497.874 265.327 497.229 265.327ZM499.279 264.431C499.448 264.94 499.745 265.407 500.187 265.848C500.628 266.289 501.095 266.586 501.612 266.747C502.13 266.909 502.639 266.909 503.148 266.773C503.657 266.637 504.115 266.349 504.548 265.916C505.04 265.424 505.32 264.872 505.38 264.253C505.439 263.633 505.286 263.056 504.93 262.53L504.226 263.235C504.429 263.591 504.506 263.956 504.438 264.329C504.37 264.703 504.183 265.042 503.878 265.347C503.47 265.755 503.021 265.95 502.52 265.941C502.011 265.941 501.544 265.729 501.112 265.313L501.052 265.254L504.412 261.894C504.285 261.75 504.2 261.648 504.132 261.58C503.7 261.181 503.241 260.91 502.758 260.765C502.274 260.638 501.799 260.638 501.324 260.774C500.857 260.918 500.416 261.19 500.025 261.58C499.618 261.987 499.355 262.437 499.236 262.929C499.109 263.43 499.117 263.93 499.279 264.431ZM503.131 262.021L500.518 264.635C500.212 264.261 500.068 263.846 500.102 263.37C500.136 262.912 500.314 262.513 500.645 262.182C501.01 261.818 501.417 261.614 501.858 261.58C502.299 261.546 502.732 261.69 503.131 262.021ZM506.734 255.822C506.097 255.831 505.52 256.085 504.994 256.611C504.366 257.239 504.103 257.926 504.205 258.673L503.526 258.181L502.924 258.783L507.251 263.111L507.947 262.415L505.783 260.251C505.3 259.768 505.028 259.276 504.977 258.75C504.926 258.24 505.104 257.774 505.512 257.366C505.885 256.993 506.292 256.823 506.734 256.857C507.175 256.891 507.616 257.129 508.057 257.57L510.425 259.937L511.12 259.242L508.711 256.832C508.032 256.153 507.378 255.822 506.734 255.822ZM508.605 254.375L511.168 256.938C511.558 257.328 511.931 257.531 512.279 257.54C512.636 257.557 513.017 257.345 513.425 256.938L514.222 256.14L513.586 255.504L512.831 256.259C512.652 256.437 512.491 256.53 512.347 256.522C512.203 256.513 512.042 256.42 511.855 256.233L509.301 253.679L510.395 252.585L509.759 251.948L508.664 253.043L507.451 251.829L506.755 252.525L507.969 253.739L507.188 254.519L507.824 255.156L508.605 254.375Z" fill="#A2A2A2"/>
</g>
<g opacity="0.25">
<path d="M118 364.451L152.605 354.528L162.528 389.134L127.923 399.057L118 364.451Z" fill="#A2A2A2" fill-opacity="0.1"/>
<path d="M118 364.451L152.605 354.528M118 364.451L127.923 399.057M118 364.451L162.528 389.134M152.605 354.528L162.528 389.134M152.605 354.528L127.923 399.057M162.528 389.134L127.923 399.057" stroke="#A2A2A2" stroke-linecap="round" stroke-linejoin="round"/>
</g>
<path d="M257.736 364.451L292.341 354.528L302.264 389.134L267.659 399.057L257.736 364.451Z" fill="#A2A2A2" fill-opacity="0.1"/>
<path d="M257.736 364.451L292.341 354.528M257.736 364.451L267.659 399.057M257.736 364.451L302.264 389.134M292.341 354.528L302.264 389.134M292.341 354.528L267.659 399.057M302.264 389.134L267.659 399.057" stroke="#A2A2A2" stroke-linecap="round" stroke-linejoin="round"/>
<g opacity="0.25">
<path d="M397.472 364.451L432.077 354.528L442 389.134L407.395 399.057L397.472 364.451Z" fill="#A2A2A2" fill-opacity="0.1"/>
<path d="M397.472 364.451L432.077 354.528M397.472 364.451L407.395 399.057M397.472 364.451L442 389.134M432.077 354.528L442 389.134M432.077 354.528L407.395 399.057M442 389.134L407.395 399.057" stroke="#A2A2A2" stroke-linecap="round" stroke-linejoin="round"/>
</g>
<g opacity="0.25">
<path d="M23.3309 500.27L91.2132 432.388L116.669 457.844L48.7868 525.726L23.3309 500.27Z" fill="#A2A2A2" fill-opacity="0.1"/>
<path d="M23.3309 500.27L91.2132 432.388M23.3309 500.27L48.7868 525.726M23.3309 500.27L52.9852 486.791M91.2132 432.388L116.669 457.844M91.2132 432.388L77.734 462.042M116.669 457.844L48.7868 525.726M116.669 457.844L87.0147 471.323M48.7868 525.726L62.266 496.072" stroke="#A2A2A2" stroke-linecap="round" stroke-linejoin="round"/>
<path d="M53.7501 500.428C53.8095 499.825 53.6398 499.231 53.2494 498.654L52.5536 499.35C52.7743 499.706 52.8676 500.071 52.8167 500.445C52.7658 500.835 52.5791 501.174 52.2651 501.488C51.8494 501.904 51.3657 502.099 50.8142 502.057C50.2626 502.014 49.745 501.751 49.2698 501.276C48.8031 500.809 48.5486 500.3 48.5062 499.749C48.4722 499.206 48.6589 498.714 49.0747 498.298C49.3801 497.992 49.7196 497.823 50.1014 497.763C50.4832 497.721 50.8481 497.797 51.1875 498.001L51.8918 497.297C51.3318 496.906 50.7463 496.745 50.1438 496.804C49.5414 496.864 48.9898 497.144 48.4807 497.653C48.0564 498.077 47.7849 498.535 47.6492 499.044C47.5134 499.554 47.5134 500.063 47.6661 500.572C47.8273 501.089 48.1243 501.556 48.5571 501.989C48.9983 502.43 49.465 502.727 49.9826 502.888C50.4917 503.058 50.9924 503.067 51.5015 502.931C52.0021 502.803 52.4603 502.532 52.8846 502.108C53.3937 501.599 53.6822 501.039 53.7501 500.428ZM56.101 498.331C56.6101 498.195 57.0768 497.915 57.5011 497.491C57.9169 497.075 58.1969 496.609 58.3326 496.1C58.4684 495.59 58.4684 495.081 58.3157 494.555C58.1629 494.046 57.8744 493.571 57.4332 493.13C57.0005 492.697 56.5253 492.408 56.0077 492.247C55.4901 492.103 54.9725 492.095 54.4634 492.23C53.9542 492.366 53.4876 492.646 53.0718 493.062C52.6475 493.486 52.3675 493.953 52.2317 494.462C52.096 494.971 52.1045 495.489 52.2572 495.998C52.4099 496.524 52.7069 496.991 53.1397 497.423C53.5809 497.865 54.0476 498.161 54.5652 498.306C55.0828 498.467 55.5919 498.467 56.101 498.331ZM57.4247 495.921C57.3399 496.278 57.1617 496.592 56.8817 496.872C56.5932 497.16 56.2792 497.338 55.9228 497.423C55.5664 497.508 55.2186 497.483 54.8537 497.355C54.4973 497.237 54.1579 497.016 53.8524 496.711C53.547 496.405 53.3348 496.074 53.2075 495.709C53.0887 495.353 53.0548 494.996 53.1397 494.64C53.2245 494.284 53.4027 493.97 53.6912 493.681C53.9712 493.401 54.2852 493.223 54.6416 493.138C54.9979 493.053 55.3628 493.079 55.7192 493.198C56.0841 493.325 56.415 493.537 56.7204 493.842C57.0259 494.148 57.2465 494.487 57.3653 494.844C57.4926 495.209 57.5096 495.565 57.4247 495.921ZM62.4822 484.568C61.8713 484.568 61.3282 484.805 60.8446 485.289C60.1488 485.985 59.9281 486.765 60.1657 487.614C59.7754 487.461 59.3851 487.444 59.0117 487.546C58.6384 487.648 58.282 487.852 57.9765 488.157C57.442 488.692 57.2383 489.337 57.3571 490.066L56.6698 489.566L56.0673 490.168L60.3948 494.496L61.0906 493.8L58.8081 491.517C58.3753 491.085 58.1293 490.635 58.0614 490.16C57.9935 489.684 58.1378 489.269 58.4941 488.912C58.8251 488.581 59.1899 488.437 59.5972 488.471C59.996 488.513 60.4118 488.743 60.8276 489.158L63.2798 491.611L63.9756 490.915L61.6591 488.598C61.2179 488.157 60.9718 487.707 60.9209 487.249C60.87 486.791 61.0312 486.375 61.3961 486.01C61.7185 485.688 62.0834 485.544 62.4822 485.586C62.881 485.628 63.2968 485.858 63.7126 486.273L66.1648 488.726L66.8606 488.03L64.3659 485.535C63.7211 484.89 63.0932 484.568 62.4822 484.568ZM66.8877 479.772C66.404 479.916 65.9543 480.179 65.5555 480.578C64.9276 481.206 64.6815 481.961 64.8173 482.81L64.0281 482.207L63.4257 482.81L69.4502 488.834L70.146 488.139L67.7871 485.78C68.1435 485.864 68.5168 485.847 68.8987 485.72C69.272 485.601 69.6284 485.364 69.9848 485.007C70.3751 484.617 70.6382 484.167 70.7739 483.658C70.9012 483.158 70.8927 482.657 70.7315 482.139C70.5788 481.63 70.2903 481.155 69.849 480.714C69.3908 480.256 68.9072 479.959 68.3896 479.797C67.8804 479.645 67.3798 479.636 66.8877 479.772ZM69.8915 482.979C69.9254 483.539 69.7218 484.032 69.2975 484.456C69.0175 484.736 68.7035 484.914 68.3471 484.999C67.9908 485.084 67.6429 485.058 67.278 484.931C66.9131 484.804 66.5737 484.583 66.2598 484.269C65.9543 483.964 65.7422 483.633 65.6234 483.276C65.5046 482.92 65.4791 482.572 65.564 482.216C65.6488 481.859 65.827 481.545 66.107 481.265C66.5313 480.841 67.0319 480.646 67.5919 480.68C68.152 480.714 68.6696 480.96 69.1363 481.427C69.6114 481.902 69.8575 482.419 69.8915 482.979ZM73.4528 480.979C73.9619 480.844 74.4286 480.564 74.8528 480.139C75.2686 479.724 75.5486 479.257 75.6844 478.748C75.8202 478.239 75.8202 477.73 75.6674 477.204C75.5147 476.694 75.2262 476.219 74.7849 475.778C74.3522 475.345 73.877 475.057 73.3594 474.896C72.8418 474.751 72.3242 474.743 71.8151 474.879C71.306 475.014 70.8393 475.294 70.4235 475.71C69.9992 476.134 69.7192 476.601 69.5835 477.11C69.4477 477.619 69.4562 478.137 69.6089 478.646C69.7617 479.172 70.0586 479.639 70.4914 480.072C70.9326 480.513 71.3993 480.81 71.9169 480.954C72.4345 481.115 72.9436 481.115 73.4528 480.979ZM74.7765 478.57C74.6916 478.926 74.5134 479.24 74.2334 479.52C73.9449 479.808 73.6309 479.987 73.2746 480.072C72.9182 480.156 72.5703 480.131 72.2054 480.004C71.849 479.885 71.5096 479.664 71.2042 479.359C70.8987 479.053 70.6866 478.722 70.5593 478.358C70.4405 478.001 70.4065 477.645 70.4914 477.288C70.5762 476.932 70.7544 476.618 71.0429 476.33C71.323 476.05 71.6369 475.871 71.9933 475.786C72.3497 475.702 72.7145 475.727 73.0709 475.846C73.4358 475.973 73.7667 476.185 74.0722 476.491C74.3777 476.796 74.5983 477.136 74.7171 477.492C74.8443 477.857 74.8613 478.213 74.7765 478.57ZM77.229 469.855C76.5926 469.863 76.0156 470.118 75.4895 470.644C74.8616 471.272 74.5985 471.959 74.7004 472.706L74.0215 472.214L73.4191 472.816L77.7466 477.144L78.4424 476.448L76.2786 474.284C75.795 473.801 75.5234 473.309 75.4725 472.782C75.4216 472.273 75.5998 471.807 76.0071 471.399C76.3804 471.026 76.7877 470.856 77.229 470.89C77.6702 470.924 78.1114 471.162 78.5527 471.603L80.9201 473.97L81.6159 473.275L79.206 470.865C78.5272 470.186 77.8739 469.855 77.229 469.855ZM79.2786 468.959C79.4483 469.469 79.7453 469.935 80.1865 470.376C80.6277 470.818 81.0944 471.115 81.612 471.276C82.1296 471.437 82.6387 471.437 83.1479 471.301C83.657 471.166 84.1152 470.877 84.5479 470.444C85.0401 469.952 85.3201 469.401 85.3795 468.781C85.4389 468.162 85.2861 467.585 84.9298 467.059L84.2255 467.763C84.4291 468.119 84.5055 468.484 84.4376 468.858C84.3697 469.231 84.1831 469.57 83.8776 469.876C83.4703 470.283 83.0206 470.478 82.5199 470.47C82.0108 470.47 81.5441 470.258 81.1114 469.842L81.052 469.782L84.4122 466.422C84.2849 466.278 84.2 466.176 84.1321 466.108C83.6994 465.71 83.2412 465.438 82.7575 465.294C82.2739 465.166 81.7987 465.166 81.3235 465.302C80.8568 465.446 80.4156 465.718 80.0253 466.108C79.618 466.516 79.3549 466.965 79.2361 467.458C79.1089 467.958 79.1173 468.459 79.2786 468.959ZM83.1309 466.55L80.5174 469.163C80.2119 468.79 80.0677 468.374 80.1016 467.899C80.1356 467.441 80.3138 467.042 80.6447 466.711C81.0096 466.346 81.4169 466.142 81.8581 466.108C82.2993 466.074 82.7321 466.219 83.1309 466.55ZM86.7335 460.35C86.0971 460.359 85.5201 460.614 84.994 461.14C84.3661 461.768 84.103 462.455 84.2049 463.202L83.526 462.709L82.9236 463.312L87.2511 467.639L87.9469 466.944L85.7831 464.78C85.2995 464.296 85.0279 463.804 84.977 463.278C84.9261 462.769 85.1043 462.302 85.5116 461.895C85.885 461.521 86.2922 461.352 86.7335 461.386C87.1747 461.42 87.616 461.657 88.0572 462.098L90.4246 464.466L91.1204 463.77L88.7106 461.36C88.0317 460.681 87.3784 460.35 86.7335 460.35ZM88.6049 458.903L91.1674 461.466C91.5578 461.856 91.9311 462.06 92.279 462.068C92.6354 462.085 93.0172 461.873 93.4245 461.466L94.2221 460.668L93.5857 460.032L92.8306 460.787C92.6524 460.965 92.4911 461.059 92.3469 461.05C92.2026 461.042 92.0414 460.948 91.8547 460.762L89.3007 458.208L90.3953 457.113L89.7589 456.477L88.6643 457.571L87.4509 456.358L86.7551 457.054L87.9685 458.267L87.1878 459.048L87.8242 459.684L88.6049 458.903Z" fill="#A2A2A2"/>
</g>
<g opacity="0.5">
<path d="M163.331 500.27L231.213 432.388L256.669 457.844L188.787 525.726L163.331 500.27Z" fill="#A2A2A2" fill-opacity="0.1"/>
<path d="M163.331 500.27L231.213 432.388M163.331 500.27L188.787 525.726M163.331 500.27L192.985 486.791M231.213 432.388L256.669 457.844M231.213 432.388L217.734 462.042M256.669 457.844L188.787 525.726M256.669 457.844L227.015 471.323M188.787 525.726L202.266 496.072" stroke="#A2A2A2" stroke-linecap="round" stroke-linejoin="round"/>
<path d="M193.75 500.428C193.809 499.825 193.64 499.231 193.249 498.654L192.554 499.35C192.774 499.706 192.868 500.071 192.817 500.445C192.766 500.835 192.579 501.174 192.265 501.488C191.849 501.904 191.366 502.099 190.814 502.057C190.263 502.014 189.745 501.751 189.27 501.276C188.803 500.809 188.549 500.3 188.506 499.749C188.472 499.206 188.659 498.714 189.075 498.298C189.38 497.992 189.72 497.823 190.101 497.763C190.483 497.721 190.848 497.797 191.188 498.001L191.892 497.297C191.332 496.906 190.746 496.745 190.144 496.804C189.541 496.864 188.99 497.144 188.481 497.653C188.056 498.077 187.785 498.535 187.649 499.044C187.513 499.554 187.513 500.063 187.666 500.572C187.827 501.089 188.124 501.556 188.557 501.989C188.998 502.43 189.465 502.727 189.983 502.888C190.492 503.058 190.992 503.067 191.501 502.931C192.002 502.803 192.46 502.532 192.885 502.108C193.394 501.599 193.682 501.039 193.75 500.428ZM196.101 498.331C196.61 498.195 197.077 497.915 197.501 497.491C197.917 497.075 198.197 496.609 198.333 496.1C198.468 495.59 198.468 495.081 198.316 494.555C198.163 494.046 197.874 493.571 197.433 493.13C197 492.697 196.525 492.408 196.008 492.247C195.49 492.103 194.972 492.095 194.463 492.23C193.954 492.366 193.488 492.646 193.072 493.062C192.648 493.486 192.367 493.953 192.232 494.462C192.096 494.971 192.104 495.489 192.257 495.998C192.41 496.524 192.707 496.991 193.14 497.423C193.581 497.865 194.048 498.161 194.565 498.306C195.083 498.467 195.592 498.467 196.101 498.331ZM197.425 495.921C197.34 496.278 197.162 496.592 196.882 496.872C196.593 497.16 196.279 497.338 195.923 497.423C195.566 497.508 195.219 497.483 194.854 497.355C194.497 497.237 194.158 497.016 193.852 496.711C193.547 496.405 193.335 496.074 193.208 495.709C193.089 495.353 193.055 494.996 193.14 494.64C193.225 494.284 193.403 493.97 193.691 493.681C193.971 493.401 194.285 493.223 194.642 493.138C194.998 493.053 195.363 493.079 195.719 493.198C196.084 493.325 196.415 493.537 196.72 493.842C197.026 494.148 197.247 494.487 197.365 494.844C197.493 495.209 197.51 495.565 197.425 495.921ZM202.482 484.568C201.871 484.568 201.328 484.805 200.845 485.289C200.149 485.985 199.928 486.765 200.166 487.614C199.775 487.461 199.385 487.444 199.012 487.546C198.638 487.648 198.282 487.852 197.977 488.157C197.442 488.692 197.238 489.337 197.357 490.066L196.67 489.566L196.067 490.168L200.395 494.496L201.091 493.8L198.808 491.517C198.375 491.085 198.129 490.635 198.061 490.16C197.994 489.684 198.138 489.269 198.494 488.912C198.825 488.581 199.19 488.437 199.597 488.471C199.996 488.513 200.412 488.743 200.828 489.158L203.28 491.611L203.976 490.915L201.659 488.598C201.218 488.157 200.972 487.707 200.921 487.249C200.87 486.791 201.031 486.375 201.396 486.01C201.719 485.688 202.083 485.544 202.482 485.586C202.881 485.628 203.297 485.858 203.713 486.273L206.165 488.726L206.861 488.03L204.366 485.535C203.721 484.89 203.093 484.568 202.482 484.568ZM206.888 479.772C206.404 479.916 205.954 480.179 205.555 480.578C204.928 481.206 204.681 481.961 204.817 482.81L204.028 482.207L203.426 482.81L209.45 488.834L210.146 488.139L207.787 485.78C208.143 485.864 208.517 485.847 208.899 485.72C209.272 485.601 209.628 485.364 209.985 485.007C210.375 484.617 210.638 484.167 210.774 483.658C210.901 483.158 210.893 482.657 210.732 482.139C210.579 481.63 210.29 481.155 209.849 480.714C209.391 480.256 208.907 479.959 208.39 479.797C207.88 479.645 207.38 479.636 206.888 479.772ZM209.891 482.979C209.925 483.539 209.722 484.032 209.297 484.456C209.017 484.736 208.704 484.914 208.347 484.999C207.991 485.084 207.643 485.058 207.278 484.931C206.913 484.804 206.574 484.583 206.26 484.269C205.954 483.964 205.742 483.633 205.623 483.276C205.505 482.92 205.479 482.572 205.564 482.216C205.649 481.859 205.827 481.545 206.107 481.265C206.531 480.841 207.032 480.646 207.592 480.68C208.152 480.714 208.67 480.96 209.136 481.427C209.611 481.902 209.858 482.419 209.891 482.979ZM213.453 480.979C213.962 480.844 214.429 480.564 214.853 480.139C215.269 479.724 215.549 479.257 215.684 478.748C215.82 478.239 215.82 477.73 215.667 477.204C215.515 476.694 215.226 476.219 214.785 475.778C214.352 475.345 213.877 475.057 213.359 474.896C212.842 474.751 212.324 474.743 211.815 474.879C211.306 475.014 210.839 475.294 210.424 475.71C209.999 476.134 209.719 476.601 209.583 477.11C209.448 477.619 209.456 478.137 209.609 478.646C209.762 479.172 210.059 479.639 210.491 480.072C210.933 480.513 211.399 480.81 211.917 480.954C212.435 481.115 212.944 481.115 213.453 480.979ZM214.776 478.57C214.692 478.926 214.513 479.24 214.233 479.52C213.945 479.808 213.631 479.987 213.275 480.072C212.918 480.156 212.57 480.131 212.205 480.004C211.849 479.885 211.51 479.664 211.204 479.359C210.899 479.053 210.687 478.722 210.559 478.358C210.44 478.001 210.407 477.645 210.491 477.288C210.576 476.932 210.754 476.618 211.043 476.33C211.323 476.05 211.637 475.871 211.993 475.786C212.35 475.702 212.715 475.727 213.071 475.846C213.436 475.973 213.767 476.185 214.072 476.491C214.378 476.796 214.598 477.136 214.717 477.492C214.844 477.857 214.861 478.213 214.776 478.57ZM217.229 469.855C216.593 469.863 216.016 470.118 215.489 470.644C214.862 471.272 214.599 471.959 214.7 472.706L214.022 472.214L213.419 472.816L217.747 477.144L218.442 476.448L216.279 474.284C215.795 473.801 215.523 473.309 215.473 472.782C215.422 472.273 215.6 471.807 216.007 471.399C216.38 471.026 216.788 470.856 217.229 470.89C217.67 470.924 218.111 471.162 218.553 471.603L220.92 473.97L221.616 473.275L219.206 470.865C218.527 470.186 217.874 469.855 217.229 469.855ZM219.279 468.959C219.448 469.469 219.745 469.935 220.186 470.376C220.628 470.818 221.094 471.115 221.612 471.276C222.13 471.437 222.639 471.437 223.148 471.301C223.657 471.166 224.115 470.877 224.548 470.444C225.04 469.952 225.32 469.401 225.379 468.781C225.439 468.162 225.286 467.585 224.93 467.059L224.225 467.763C224.429 468.119 224.505 468.484 224.438 468.858C224.37 469.231 224.183 469.57 223.878 469.876C223.47 470.283 223.021 470.478 222.52 470.47C222.011 470.47 221.544 470.258 221.111 469.842L221.052 469.782L224.412 466.422C224.285 466.278 224.2 466.176 224.132 466.108C223.699 465.71 223.241 465.438 222.758 465.294C222.274 465.166 221.799 465.166 221.324 465.302C220.857 465.446 220.416 465.718 220.025 466.108C219.618 466.516 219.355 466.965 219.236 467.458C219.109 467.958 219.117 468.459 219.279 468.959ZM223.131 466.55L220.517 469.163C220.212 468.79 220.068 468.374 220.102 467.899C220.136 467.441 220.314 467.042 220.645 466.711C221.01 466.346 221.417 466.142 221.858 466.108C222.299 466.074 222.732 466.219 223.131 466.55ZM226.733 460.35C226.097 460.359 225.52 460.614 224.994 461.14C224.366 461.768 224.103 462.455 224.205 463.202L223.526 462.709L222.924 463.312L227.251 467.639L227.947 466.944L225.783 464.78C225.299 464.296 225.028 463.804 224.977 463.278C224.926 462.769 225.104 462.302 225.512 461.895C225.885 461.521 226.292 461.352 226.733 461.386C227.175 461.42 227.616 461.657 228.057 462.098L230.425 464.466L231.12 463.77L228.711 461.36C228.032 460.681 227.378 460.35 226.733 460.35ZM228.605 458.903L231.167 461.466C231.558 461.856 231.931 462.06 232.279 462.068C232.635 462.085 233.017 461.873 233.425 461.466L234.222 460.668L233.586 460.032L232.831 460.787C232.652 460.965 232.491 461.059 232.347 461.05C232.203 461.042 232.041 460.948 231.855 460.762L229.301 458.208L230.395 457.113L229.759 456.477L228.664 457.571L227.451 456.358L226.755 457.054L227.968 458.267L227.188 459.048L227.824 459.684L228.605 458.903Z" fill="#A2A2A2"/>
</g>
<g opacity="0.75">
<path d="M303.331 500.27L371.213 432.388L396.669 457.844L328.787 525.726L303.331 500.27Z" fill="#A2A2A2" fill-opacity="0.1"/>
<path d="M303.331 500.27L371.213 432.388M303.331 500.27L328.787 525.726M303.331 500.27L332.985 486.791M371.213 432.388L396.669 457.844M371.213 432.388L357.734 462.042M396.669 457.844L328.787 525.726M396.669 457.844L367.015 471.323M328.787 525.726L342.266 496.072" stroke="#A2A2A2" stroke-linecap="round" stroke-linejoin="round"/>
<path d="M333.75 500.428C333.809 499.825 333.64 499.231 333.249 498.654L332.554 499.35C332.774 499.706 332.868 500.071 332.817 500.445C332.766 500.835 332.579 501.174 332.265 501.488C331.849 501.904 331.366 502.099 330.814 502.057C330.263 502.014 329.745 501.751 329.27 501.276C328.803 500.809 328.549 500.3 328.506 499.749C328.472 499.206 328.659 498.714 329.075 498.298C329.38 497.992 329.72 497.823 330.101 497.763C330.483 497.721 330.848 497.797 331.188 498.001L331.892 497.297C331.332 496.906 330.746 496.745 330.144 496.804C329.541 496.864 328.99 497.144 328.481 497.653C328.056 498.077 327.785 498.535 327.649 499.044C327.513 499.554 327.513 500.063 327.666 500.572C327.827 501.089 328.124 501.556 328.557 501.989C328.998 502.43 329.465 502.727 329.983 502.888C330.492 503.058 330.992 503.067 331.501 502.931C332.002 502.803 332.46 502.532 332.885 502.108C333.394 501.599 333.682 501.039 333.75 500.428ZM336.101 498.331C336.61 498.195 337.077 497.915 337.501 497.491C337.917 497.075 338.197 496.609 338.333 496.1C338.468 495.59 338.468 495.081 338.316 494.555C338.163 494.046 337.874 493.571 337.433 493.13C337 492.697 336.525 492.408 336.008 492.247C335.49 492.103 334.972 492.095 334.463 492.23C333.954 492.366 333.488 492.646 333.072 493.062C332.648 493.486 332.367 493.953 332.232 494.462C332.096 494.971 332.104 495.489 332.257 495.998C332.41 496.524 332.707 496.991 333.14 497.423C333.581 497.865 334.048 498.161 334.565 498.306C335.083 498.467 335.592 498.467 336.101 498.331ZM337.425 495.921C337.34 496.278 337.162 496.592 336.882 496.872C336.593 497.16 336.279 497.338 335.923 497.423C335.566 497.508 335.219 497.483 334.854 497.355C334.497 497.237 334.158 497.016 333.852 496.711C333.547 496.405 333.335 496.074 333.208 495.709C333.089 495.353 333.055 494.996 333.14 494.64C333.225 494.284 333.403 493.97 333.691 493.681C333.971 493.401 334.285 493.223 334.642 493.138C334.998 493.053 335.363 493.079 335.719 493.198C336.084 493.325 336.415 493.537 336.72 493.842C337.026 494.148 337.247 494.487 337.365 494.844C337.493 495.209 337.51 495.565 337.425 495.921ZM342.482 484.568C341.871 484.568 341.328 484.805 340.845 485.289C340.149 485.985 339.928 486.765 340.166 487.614C339.775 487.461 339.385 487.444 339.012 487.546C338.638 487.648 338.282 487.852 337.977 488.157C337.442 488.692 337.238 489.337 337.357 490.066L336.67 489.566L336.067 490.168L340.395 494.496L341.091 493.8L338.808 491.517C338.375 491.085 338.129 490.635 338.061 490.16C337.994 489.684 338.138 489.269 338.494 488.912C338.825 488.581 339.19 488.437 339.597 488.471C339.996 488.513 340.412 488.743 340.828 489.158L343.28 491.611L343.976 490.915L341.659 488.598C341.218 488.157 340.972 487.707 340.921 487.249C340.87 486.791 341.031 486.375 341.396 486.01C341.719 485.688 342.083 485.544 342.482 485.586C342.881 485.628 343.297 485.858 343.713 486.273L346.165 488.726L346.861 488.03L344.366 485.535C343.721 484.89 343.093 484.568 342.482 484.568ZM346.888 479.772C346.404 479.916 345.954 480.179 345.555 480.578C344.928 481.206 344.681 481.961 344.817 482.81L344.028 482.207L343.426 482.81L349.45 488.834L350.146 488.139L347.787 485.78C348.143 485.864 348.517 485.847 348.899 485.72C349.272 485.601 349.628 485.364 349.985 485.007C350.375 484.617 350.638 484.167 350.774 483.658C350.901 483.158 350.893 482.657 350.732 482.139C350.579 481.63 350.29 481.155 349.849 480.714C349.391 480.256 348.907 479.959 348.39 479.797C347.88 479.645 347.38 479.636 346.888 479.772ZM349.891 482.979C349.925 483.539 349.722 484.032 349.297 484.456C349.017 484.736 348.704 484.914 348.347 484.999C347.991 485.084 347.643 485.058 347.278 484.931C346.913 484.804 346.574 484.583 346.26 484.269C345.954 483.964 345.742 483.633 345.623 483.276C345.505 482.92 345.479 482.572 345.564 482.216C345.649 481.859 345.827 481.545 346.107 481.265C346.531 480.841 347.032 480.646 347.592 480.68C348.152 480.714 348.67 480.96 349.136 481.427C349.611 481.902 349.858 482.419 349.891 482.979ZM353.453 480.979C353.962 480.844 354.429 480.564 354.853 480.139C355.269 479.724 355.549 479.257 355.684 478.748C355.82 478.239 355.82 477.73 355.667 477.204C355.515 476.694 355.226 476.219 354.785 475.778C354.352 475.345 353.877 475.057 353.359 474.896C352.842 474.751 352.324 474.743 351.815 474.879C351.306 475.014 350.839 475.294 350.424 475.71C349.999 476.134 349.719 476.601 349.583 477.11C349.448 477.619 349.456 478.137 349.609 478.646C349.762 479.172 350.059 479.639 350.491 480.072C350.933 480.513 351.399 480.81 351.917 480.954C352.435 481.115 352.944 481.115 353.453 480.979ZM354.776 478.57C354.692 478.926 354.513 479.24 354.233 479.52C353.945 479.808 353.631 479.987 353.275 480.072C352.918 480.156 352.57 480.131 352.205 480.004C351.849 479.885 351.51 479.664 351.204 479.359C350.899 479.053 350.687 478.722 350.559 478.358C350.44 478.001 350.407 477.645 350.491 477.288C350.576 476.932 350.754 476.618 351.043 476.33C351.323 476.05 351.637 475.871 351.993 475.786C352.35 475.702 352.715 475.727 353.071 475.846C353.436 475.973 353.767 476.185 354.072 476.491C354.378 476.796 354.598 477.136 354.717 477.492C354.844 477.857 354.861 478.213 354.776 478.57ZM357.229 469.855C356.593 469.863 356.016 470.118 355.489 470.644C354.862 471.272 354.599 471.959 354.7 472.706L354.022 472.214L353.419 472.816L357.747 477.144L358.442 476.448L356.279 474.284C355.795 473.801 355.523 473.309 355.473 472.782C355.422 472.273 355.6 471.807 356.007 471.399C356.38 471.026 356.788 470.856 357.229 470.89C357.67 470.924 358.111 471.162 358.553 471.603L360.92 473.97L361.616 473.275L359.206 470.865C358.527 470.186 357.874 469.855 357.229 469.855ZM359.279 468.959C359.448 469.469 359.745 469.935 360.186 470.376C360.628 470.818 361.094 471.115 361.612 471.276C362.13 471.437 362.639 471.437 363.148 471.301C363.657 471.166 364.115 470.877 364.548 470.444C365.04 469.952 365.32 469.401 365.379 468.781C365.439 468.162 365.286 467.585 364.93 467.059L364.225 467.763C364.429 468.119 364.505 468.484 364.438 468.858C364.37 469.231 364.183 469.57 363.878 469.876C363.47 470.283 363.021 470.478 362.52 470.47C362.011 470.47 361.544 470.258 361.111 469.842L361.052 469.782L364.412 466.422C364.285 466.278 364.2 466.176 364.132 466.108C363.699 465.71 363.241 465.438 362.758 465.294C362.274 465.166 361.799 465.166 361.324 465.302C360.857 465.446 360.416 465.718 360.025 466.108C359.618 466.516 359.355 466.965 359.236 467.458C359.109 467.958 359.117 468.459 359.279 468.959ZM363.131 466.55L360.517 469.163C360.212 468.79 360.068 468.374 360.102 467.899C360.136 467.441 360.314 467.042 360.645 466.711C361.01 466.346 361.417 466.142 361.858 466.108C362.299 466.074 362.732 466.219 363.131 466.55ZM366.733 460.35C366.097 460.359 365.52 460.614 364.994 461.14C364.366 461.768 364.103 462.455 364.205 463.202L363.526 462.709L362.924 463.312L367.251 467.639L367.947 466.944L365.783 464.78C365.299 464.296 365.028 463.804 364.977 463.278C364.926 462.769 365.104 462.302 365.512 461.895C365.885 461.521 366.292 461.352 366.733 461.386C367.175 461.42 367.616 461.657 368.057 462.098L370.425 464.466L371.12 463.77L368.711 461.36C368.032 460.681 367.378 460.35 366.733 460.35ZM368.605 458.903L371.167 461.466C371.558 461.856 371.931 462.06 372.279 462.068C372.635 462.085 373.017 461.873 373.425 461.466L374.222 460.668L373.586 460.032L372.831 460.787C372.652 460.965 372.491 461.059 372.347 461.05C372.203 461.042 372.041 460.948 371.855 460.762L369.301 458.208L370.395 457.113L369.759 456.477L368.664 457.571L367.451 456.358L366.755 457.054L367.968 458.267L367.188 459.048L367.824 459.684L368.605 458.903Z" fill="#A2A2A2"/>
</g>
<path d="M443.331 500.27L511.213 432.388L536.669 457.844L468.787 525.726L443.331 500.27Z" fill="#A2A2A2" fill-opacity="0.1"/>
<path d="M443.331 500.27L511.213 432.388M443.331 500.27L468.787 525.726M443.331 500.27L472.985 486.791M511.213 432.388L536.669 457.844M511.213 432.388L497.734 462.042M536.669 457.844L468.787 525.726M536.669 457.844L507.015 471.323M468.787 525.726L482.266 496.072" stroke="#A2A2A2" stroke-linecap="round" stroke-linejoin="round"/>
<path d="M473.75 500.428C473.81 499.825 473.64 499.231 473.25 498.654L472.554 499.35C472.774 499.706 472.868 500.071 472.817 500.445C472.766 500.835 472.579 501.174 472.265 501.488C471.849 501.904 471.366 502.099 470.814 502.057C470.263 502.014 469.745 501.751 469.27 501.276C468.803 500.809 468.549 500.3 468.506 499.749C468.472 499.206 468.659 498.714 469.075 498.298C469.38 497.992 469.72 497.823 470.102 497.763C470.483 497.721 470.848 497.797 471.188 498.001L471.892 497.297C471.332 496.906 470.746 496.745 470.144 496.804C469.541 496.864 468.99 497.144 468.481 497.653C468.057 498.077 467.785 498.535 467.649 499.044C467.514 499.554 467.514 500.063 467.666 500.572C467.827 501.089 468.124 501.556 468.557 501.989C468.998 502.43 469.465 502.727 469.983 502.888C470.492 503.058 470.992 503.067 471.502 502.931C472.002 502.803 472.46 502.532 472.885 502.108C473.394 501.599 473.682 501.039 473.75 500.428ZM476.101 498.331C476.61 498.195 477.077 497.915 477.501 497.491C477.917 497.075 478.197 496.609 478.333 496.1C478.469 495.59 478.469 495.081 478.316 494.555C478.163 494.046 477.875 493.571 477.433 493.13C477.001 492.697 476.525 492.408 476.008 492.247C475.49 492.103 474.973 492.095 474.463 492.23C473.954 492.366 473.488 492.646 473.072 493.062C472.648 493.486 472.368 493.953 472.232 494.462C472.096 494.971 472.105 495.489 472.257 495.998C472.41 496.524 472.707 496.991 473.14 497.423C473.581 497.865 474.048 498.161 474.565 498.306C475.083 498.467 475.592 498.467 476.101 498.331ZM477.425 495.921C477.34 496.278 477.162 496.592 476.882 496.872C476.593 497.16 476.279 497.338 475.923 497.423C475.567 497.508 475.219 497.483 474.854 497.355C474.497 497.237 474.158 497.016 473.853 496.711C473.547 496.405 473.335 496.074 473.208 495.709C473.089 495.353 473.055 494.996 473.14 494.64C473.225 494.284 473.403 493.97 473.691 493.681C473.971 493.401 474.285 493.223 474.642 493.138C474.998 493.053 475.363 493.079 475.719 493.198C476.084 493.325 476.415 493.537 476.721 493.842C477.026 494.148 477.247 494.487 477.365 494.844C477.493 495.209 477.51 495.565 477.425 495.921ZM482.482 484.568C481.871 484.568 481.328 484.805 480.845 485.289C480.149 485.985 479.928 486.765 480.166 487.614C479.776 487.461 479.385 487.444 479.012 487.546C478.639 487.648 478.282 487.852 477.977 488.157C477.442 488.692 477.238 489.337 477.357 490.066L476.67 489.566L476.067 490.168L480.395 494.496L481.091 493.8L478.808 491.517C478.375 491.085 478.129 490.635 478.062 490.16C477.994 489.684 478.138 489.269 478.494 488.912C478.825 488.581 479.19 488.437 479.597 488.471C479.996 488.513 480.412 488.743 480.828 489.158L483.28 491.611L483.976 490.915L481.659 488.598C481.218 488.157 480.972 487.707 480.921 487.249C480.87 486.791 481.031 486.375 481.396 486.01C481.719 485.688 482.084 485.544 482.482 485.586C482.881 485.628 483.297 485.858 483.713 486.273L486.165 488.726L486.861 488.03L484.366 485.535C483.721 484.89 483.093 484.568 482.482 484.568ZM486.888 479.772C486.404 479.916 485.954 480.179 485.556 480.578C484.928 481.206 484.682 481.961 484.817 482.81L484.028 482.207L483.426 482.81L489.45 488.834L490.146 488.139L487.787 485.78C488.144 485.864 488.517 485.847 488.899 485.72C489.272 485.601 489.629 485.364 489.985 485.007C490.375 484.617 490.638 484.167 490.774 483.658C490.901 483.158 490.893 482.657 490.732 482.139C490.579 481.63 490.29 481.155 489.849 480.714C489.391 480.256 488.907 479.959 488.39 479.797C487.881 479.645 487.38 479.636 486.888 479.772ZM489.892 482.979C489.926 483.539 489.722 484.032 489.298 484.456C489.018 484.736 488.704 484.914 488.347 484.999C487.991 485.084 487.643 485.058 487.278 484.931C486.913 484.804 486.574 484.583 486.26 484.269C485.954 483.964 485.742 483.633 485.623 483.276C485.505 482.92 485.479 482.572 485.564 482.216C485.649 481.859 485.827 481.545 486.107 481.265C486.531 480.841 487.032 480.646 487.592 480.68C488.152 480.714 488.67 480.96 489.136 481.427C489.612 481.902 489.858 482.419 489.892 482.979ZM493.453 480.979C493.962 480.844 494.429 480.564 494.853 480.139C495.269 479.724 495.549 479.257 495.685 478.748C495.82 478.239 495.82 477.73 495.668 477.204C495.515 476.694 495.226 476.219 494.785 475.778C494.352 475.345 493.877 475.057 493.36 474.896C492.842 474.751 492.324 474.743 491.815 474.879C491.306 475.014 490.839 475.294 490.424 475.71C489.999 476.134 489.719 476.601 489.584 477.11C489.448 477.619 489.456 478.137 489.609 478.646C489.762 479.172 490.059 479.639 490.492 480.072C490.933 480.513 491.399 480.81 491.917 480.954C492.435 481.115 492.944 481.115 493.453 480.979ZM494.777 478.57C494.692 478.926 494.514 479.24 494.234 479.52C493.945 479.808 493.631 479.987 493.275 480.072C492.918 480.156 492.57 480.131 492.206 480.004C491.849 479.885 491.51 479.664 491.204 479.359C490.899 479.053 490.687 478.722 490.559 478.358C490.441 478.001 490.407 477.645 490.492 477.288C490.576 476.932 490.755 476.618 491.043 476.33C491.323 476.05 491.637 475.871 491.993 475.786C492.35 475.702 492.715 475.727 493.071 475.846C493.436 475.973 493.767 476.185 494.072 476.491C494.378 476.796 494.598 477.136 494.717 477.492C494.844 477.857 494.861 478.213 494.777 478.57ZM497.229 469.855C496.593 469.863 496.016 470.118 495.49 470.644C494.862 471.272 494.599 471.959 494.7 472.706L494.022 472.214L493.419 472.816L497.747 477.144L498.442 476.448L496.279 474.284C495.795 473.801 495.524 473.309 495.473 472.782C495.422 472.273 495.6 471.807 496.007 471.399C496.381 471.026 496.788 470.856 497.229 470.89C497.67 470.924 498.112 471.162 498.553 471.603L500.92 473.97L501.616 473.275L499.206 470.865C498.527 470.186 497.874 469.855 497.229 469.855ZM499.279 468.959C499.448 469.469 499.745 469.935 500.187 470.376C500.628 470.818 501.095 471.115 501.612 471.276C502.13 471.437 502.639 471.437 503.148 471.301C503.657 471.166 504.115 470.877 504.548 470.444C505.04 469.952 505.32 469.401 505.38 468.781C505.439 468.162 505.286 467.585 504.93 467.059L504.226 467.763C504.429 468.119 504.506 468.484 504.438 468.858C504.37 469.231 504.183 469.57 503.878 469.876C503.47 470.283 503.021 470.478 502.52 470.47C502.011 470.47 501.544 470.258 501.112 469.842L501.052 469.782L504.412 466.422C504.285 466.278 504.2 466.176 504.132 466.108C503.7 465.71 503.241 465.438 502.758 465.294C502.274 465.166 501.799 465.166 501.324 465.302C500.857 465.446 500.416 465.718 500.025 466.108C499.618 466.516 499.355 466.965 499.236 467.458C499.109 467.958 499.117 468.459 499.279 468.959ZM503.131 466.55L500.518 469.163C500.212 468.79 500.068 468.374 500.102 467.899C500.136 467.441 500.314 467.042 500.645 466.711C501.01 466.346 501.417 466.142 501.858 466.108C502.299 466.074 502.732 466.219 503.131 466.55ZM506.734 460.35C506.097 460.359 505.52 460.614 504.994 461.14C504.366 461.768 504.103 462.455 504.205 463.202L503.526 462.709L502.924 463.312L507.251 467.639L507.947 466.944L505.783 464.78C505.3 464.296 505.028 463.804 504.977 463.278C504.926 462.769 505.104 462.302 505.512 461.895C505.885 461.521 506.292 461.352 506.734 461.386C507.175 461.42 507.616 461.657 508.057 462.098L510.425 464.466L511.12 463.77L508.711 461.36C508.032 460.681 507.378 460.35 506.734 460.35ZM508.605 458.903L511.168 461.466C511.558 461.856 511.931 462.06 512.279 462.068C512.636 462.085 513.017 461.873 513.425 461.466L514.222 460.668L513.586 460.032L512.831 460.787C512.652 460.965 512.491 461.059 512.347 461.05C512.203 461.042 512.042 460.948 511.855 460.762L509.301 458.208L510.395 457.113L509.759 456.477L508.664 457.571L507.451 456.358L506.755 457.054L507.969 458.267L507.188 459.048L507.824 459.684L508.605 458.903Z" fill="#A2A2A2"/>
<g opacity="0.25">
<path d="M118 568.98L152.605 559.057L162.528 593.662L127.923 603.585L118 568.98Z" fill="#A2A2A2" fill-opacity="0.1"/>
<path d="M118 568.98L152.605 559.057M118 568.98L127.923 603.585M118 568.98L162.528 593.662M152.605 559.057L162.528 593.662M152.605 559.057L127.923 603.585M162.528 593.662L127.923 603.585" stroke="#A2A2A2" stroke-linecap="round" stroke-linejoin="round"/>
</g>
<path d="M257.736 568.98L292.341 559.057L302.264 593.662L267.659 603.585L257.736 568.98Z" fill="#A2A2A2" fill-opacity="0.1"/>
<path d="M257.736 568.98L292.341 559.057M257.736 568.98L267.659 603.585M257.736 568.98L302.264 593.662M292.341 559.057L302.264 593.662M292.341 559.057L267.659 603.585M302.264 593.662L267.659 603.585" stroke="#A2A2A2" stroke-linecap="round" stroke-linejoin="round"/>
<g opacity="0.25">
<path d="M397.472 568.98L432.077 559.057L442 593.662L407.395 603.585L397.472 568.98Z" fill="#A2A2A2" fill-opacity="0.1"/>
<path d="M397.472 568.98L432.077 559.057M397.472 568.98L407.395 603.585M397.472 568.98L442 593.662M432.077 559.057L442 593.662M432.077 559.057L407.395 603.585M442 593.662L407.395 603.585" stroke="#A2A2A2" stroke-linecap="round" stroke-linejoin="round"/>
</g>
</svg>
