<svg width="218" height="76" viewBox="0 0 218 76" fill="none" xmlns="http://www.w3.org/2000/svg">
<g filter="url(#filter0_d_303_1428)">
<g clip-path="url(#clip0_303_1428)">
<g clip-path="url(#clip1_303_1428)">
<rect width="60" height="60" transform="translate(8 8)" fill="white"/>
<rect x="8" y="8" width="60" height="60" rx="13.2868" fill="white"/>
<path d="M24.9128 23.6697H26.4461V18.1062H26.4917L28.7148 23.6697H29.7979L32.0153 18.1062H32.0666V23.6697H33.6V15.4442H31.6106L29.2735 21.3554H29.2393L26.9022 15.4442H24.9128V23.6697ZM39.2626 23.8122C41.7081 23.8122 43.23 22.1762 43.23 19.5598V19.5484C43.23 16.9377 41.7024 15.3017 39.2626 15.3017C36.8286 15.3017 35.2952 16.932 35.2952 19.5484V19.5598C35.2952 22.1762 36.8172 23.8122 39.2626 23.8122ZM39.2626 22.3529C37.9117 22.3529 37.0509 21.2813 37.0509 19.5598V19.5484C37.0509 17.8269 37.9174 16.7609 39.2626 16.7609C40.6136 16.7609 41.4743 17.8326 41.4743 19.5484V19.5598C41.4743 21.2642 40.6307 22.3529 39.2626 22.3529ZM44.9253 23.6697H46.6411V18.2829H46.6753L50.4032 23.6697H51.8967V15.4442H50.1809V20.791H50.1467L46.4302 15.4442H44.9253V23.6697Z" fill="#FE3C3B"/>
<path d="M29.6482 57.9464C34.9198 57.9464 38.7869 54.6996 38.7869 50.3035V50.267C38.7869 46.5277 36.1784 44.1381 32.3479 43.8098V43.7368C35.6312 43.0437 37.9296 40.8183 37.9296 37.5714V37.5349C37.9296 33.5402 34.628 30.7493 29.6117 30.7493C24.6867 30.7493 21.2939 33.6131 20.8743 37.8997L20.8561 38.0821H24.0118L24.03 37.8997C24.3036 35.2366 26.5108 33.5949 29.6117 33.5949C32.8221 33.5949 34.628 35.1818 34.628 37.9362V37.9727C34.628 40.5994 32.4391 42.5329 29.3016 42.5329H26.146V45.3055H29.4476C33.1322 45.3055 35.4488 47.1114 35.4488 50.34V50.3765C35.4488 53.1673 33.0957 55.1009 29.6482 55.1009C26.146 55.1009 23.7746 53.3133 23.501 50.7231L23.4828 50.5407H20.3271L20.3454 50.7595C20.6919 54.9185 24.2124 57.9464 29.6482 57.9464ZM49.5203 57.5087H52.6943V31.1871H49.4839L42.4794 36.2216V39.5232L49.4474 34.6711H49.5203V57.5087Z" fill="#262626"/>
</g>
</g>
<rect x="8.5" y="8.5" width="59" height="59" rx="11.5" stroke="#1E2935" stroke-opacity="0.1" shape-rendering="crispEdges"/>
</g>
<path d="M85 24.9C85 23.5 86.2 22.3 87.6 22.3C89 22.3 90.2 23.4 90.2 24.8C90.2 26.2 89.1 27.4 87.7 27.4H87.6C86.2 27.5 85 26.3 85 24.9ZM85.4 30.7H89.9V52.7H85.4V30.7ZM94.2 37.6C94.2 28 99.7 22 108.1 22C115 22 120.2 26.2 121 32.5H116.3C115.5 28.6 112.2 26.1 108.1 26.1C102.6 26.1 99 30.6 99 37.6C99 44.6 102.5 49.1 108.1 49.1C112.3 49.1 115.3 46.9 116.3 43.3H121C119.8 49.5 115.1 53.2 108.1 53.2C99.6 53.2 94.2 47.2 94.2 37.6ZM124.9 22.5H129.4V52.7H124.9V22.5ZM143.6 30.4C137.2 30.4 133.1 34.8 133.1 41.7C133.1 48.6 137.2 53 143.6 53C150 53 154.1 48.7 154.1 41.7C154.1 34.8 150.1 30.4 143.6 30.4V30.4ZM143.6 49.2C139.9 49.2 137.7 46.4 137.7 41.6C137.7 36.9 139.9 34 143.6 34C147.3 34 149.5 36.8 149.5 41.6C149.5 46.4 147.3 49.2 143.6 49.2V49.2ZM176.6 52.7H172.2V48.9H172.1C170.8 51.5 168.6 52.9 165.2 52.9C160.4 52.9 157.4 49.8 157.4 44.8V30.7H161.9V43.9C161.9 47.2 163.5 49 166.6 49C169.9 49 171.9 46.7 171.9 43.3V30.7H176.4L176.6 52.7V52.7ZM196.4 22.5V34.3H196.3C195 31.9 192.5 30.4 189.4 30.4C183.9 30.4 180.1 34.8 180.1 41.6C180.1 48.4 183.9 52.8 189.4 52.8C192.6 52.8 195.1 51.3 196.4 48.8H196.5V52.5H200.9V22.5H196.4V22.5ZM190.6 49.1C187.1 49.1 184.7 46.2 184.7 41.7C184.7 37.2 187 34.3 190.6 34.3C194.1 34.3 196.4 37.2 196.4 41.7C196.5 46.2 194.1 49.1 190.6 49.1V49.1Z" fill="black"/>
<defs>
<filter id="filter0_d_303_1428" x="4" y="8" width="68" height="68" filterUnits="userSpaceOnUse" color-interpolation-filters="sRGB">
<feFlood flood-opacity="0" result="BackgroundImageFix"/>
<feColorMatrix in="SourceAlpha" type="matrix" values="0 0 0 0 0 0 0 0 0 0 0 0 0 0 0 0 0 0 127 0" result="hardAlpha"/>
<feOffset dy="4"/>
<feGaussianBlur stdDeviation="2"/>
<feComposite in2="hardAlpha" operator="out"/>
<feColorMatrix type="matrix" values="0 0 0 0 0 0 0 0 0 0 0 0 0 0 0 0 0 0 0.25 0"/>
<feBlend mode="normal" in2="BackgroundImageFix" result="effect1_dropShadow_303_1428"/>
<feBlend mode="normal" in="SourceGraphic" in2="effect1_dropShadow_303_1428" result="shape"/>
</filter>
<clipPath id="clip0_303_1428">
<rect x="8" y="8" width="60" height="60" rx="12" fill="white"/>
</clipPath>
<clipPath id="clip1_303_1428">
<rect width="60" height="60" fill="white" transform="translate(8 8)"/>
</clipPath>
</defs>
</svg>
