<svg width="165" height="76" viewBox="0 0 165 76" fill="none" xmlns="http://www.w3.org/2000/svg">
<g clip-path="url(#clip0_303_1471)">
<path d="M16 28.4542H23.8851L28.4624 40.1816L33.1065 28.4542H40.7911L29.2308 56.2524H21.5129L24.6869 48.9019L16 28.4542ZM48.7764 27.9865C42.8626 27.9865 39.1206 33.2988 39.1206 38.5778C39.1206 44.525 43.2302 49.236 48.6762 49.236C52.7524 49.236 54.2893 46.7636 54.2893 46.7636V48.7014H61.172V28.4542H54.2893V30.2918C54.2559 30.2918 52.5519 27.9865 48.7764 27.9865ZM50.2465 34.5016C52.9862 34.5016 54.3895 36.6734 54.3895 38.6112C54.3895 40.7161 52.886 42.7876 50.2465 42.7876C48.0748 42.7876 46.1035 41.0168 46.1035 38.7115C46.1035 36.3727 47.6738 34.5016 50.2465 34.5016ZM63.5108 48.7014V19.5H70.6942V30.3586C70.6942 30.3586 72.3982 27.9865 75.9732 27.9865C80.35 27.9865 82.9227 31.2608 82.9227 35.9049V48.7014H75.7727V37.6423C75.7727 36.072 75.0376 34.5351 73.3337 34.5351C71.5963 34.5351 70.6942 36.072 70.6942 37.6423V48.7014H63.5108ZM95.1846 27.9865C88.4021 27.9865 84.3594 33.1318 84.3594 38.678C84.3594 44.9594 89.2374 49.2694 95.218 49.2694C100.998 49.2694 106.043 45.1598 106.043 38.7783C106.043 31.7953 100.731 27.9865 95.1846 27.9865ZM95.2514 34.5351C97.657 34.5351 99.2942 36.5397 99.2942 38.6446C99.2942 40.4488 97.7573 42.6874 95.2514 42.6874C92.9461 42.6874 91.2421 40.8498 91.2421 38.6112C91.2421 36.5063 92.6454 34.5351 95.2514 34.5351ZM118.004 27.9865C111.222 27.9865 107.179 33.1318 107.179 38.678C107.179 44.9594 112.057 49.2694 118.038 49.2694C123.818 49.2694 128.863 45.1598 128.863 38.7783C128.863 31.7953 123.584 27.9865 118.004 27.9865ZM118.071 34.5351C120.477 34.5351 122.114 36.5397 122.114 38.6446C122.114 40.4488 120.577 42.6874 118.071 42.6874C115.766 42.6874 114.062 40.8498 114.062 38.6112C114.062 36.5063 115.499 34.5351 118.071 34.5351ZM134.543 39.5801C137.183 39.5801 139.321 41.7185 139.321 44.358C139.321 46.9974 137.183 49.1358 134.543 49.1358C131.904 49.1358 129.765 46.9974 129.765 44.358C129.765 41.7185 131.904 39.5801 134.543 39.5801ZM140.891 37.8428H132.304L139.922 19.5H148.476L140.891 37.8428Z" fill="#5F01D1"/>
</g>
<defs>
<clipPath id="clip0_303_1471">
<rect width="132.476" height="37" fill="white" transform="translate(16 19.5)"/>
</clipPath>
</defs>
</svg>
