<svg width="198" height="76" viewBox="0 0 198 76" fill="none" xmlns="http://www.w3.org/2000/svg">
<g filter="url(#filter0_d_303_1470)">
<g clip-path="url(#clip0_303_1470)">
<rect x="8" y="8" width="60" height="60" rx="13" fill="white"/>
<path d="M53.8784 19.28H47.8376V28.0808H56.6768V21.7616C56.6792 21.7616 56.24 19.52 53.8784 19.28Z" fill="#1967D2"/>
<path d="M47.84 56.6V56.6216V56.6408L56.6792 47.84H56.6L47.84 56.6Z" fill="#1967D2"/>
<path d="M56.6792 47.84V47.7608L56.6 47.84H56.6792Z" fill="#FBBC05"/>
<path d="M56.6792 28.0808H47.84V47.7608H56.6792V28.0808Z" fill="#FBBC05"/>
<path d="M56.6 47.84H47.84V56.6L56.6 47.84Z" fill="#EA4335"/>
<path d="M47.84 47.84H56.6L56.6792 47.7608H47.84V47.84Z" fill="#EA4335"/>
<path d="M47.8184 56.6216H47.84V56.6L47.8184 56.6216Z" fill="#34A853"/>
<path d="M28.16 47.7608V56.6216H47.8184L47.84 47.7608H28.16Z" fill="#34A853"/>
<path d="M47.84 47.84V47.7608L47.8184 56.6216L47.84 56.6V47.84Z" fill="#34A853"/>
<path d="M19.52 47.7608V53.9216C19.5992 55.9208 21.7496 56.6216 21.7496 56.6216H28.16V47.7608H19.52Z" fill="#188038"/>
<path d="M28.16 28.0808H47.84V19.28H21.9992C21.9992 19.28 19.6784 19.52 19.52 21.9992V47.7608H28.16V28.0808Z" fill="#4285F4"/>
<path d="M34.5985 43.7773C34.1482 43.7773 33.7141 43.7183 33.296 43.6004C32.8886 43.4825 32.5134 43.3056 32.1704 43.0698C31.8274 42.8232 31.5218 42.5177 31.2538 42.1532C30.9966 41.7887 30.7982 41.3653 30.6589 40.8829L32.6367 40.095C32.7761 40.631 33.0119 41.0383 33.3442 41.317C33.6766 41.585 34.0946 41.719 34.5985 41.719C34.8236 41.719 35.038 41.6869 35.2417 41.6226C35.4454 41.5475 35.6222 41.4457 35.7723 41.317C35.9224 41.1884 36.0403 41.0383 36.1261 40.8668C36.2226 40.6846 36.2708 40.4809 36.2708 40.2558C36.2708 39.7841 36.0939 39.4142 35.7402 39.1462C35.3971 38.8782 34.9201 38.7442 34.309 38.7442H33.3603V36.8307H34.2286C34.443 36.8307 34.6521 36.8039 34.8558 36.7503C35.0594 36.6967 35.2363 36.6163 35.3864 36.5091C35.5472 36.3912 35.6705 36.2465 35.7562 36.075C35.8527 35.8927 35.901 35.6837 35.901 35.4478C35.901 35.0834 35.7723 34.7886 35.515 34.5634C35.2578 34.3276 34.9094 34.2097 34.4698 34.2097C33.9982 34.2097 33.6337 34.3383 33.3764 34.5956C33.1298 34.8422 32.9583 35.1209 32.8618 35.4318L30.9322 34.6438C31.0287 34.3758 31.1734 34.1025 31.3664 33.8238C31.5594 33.5343 31.8006 33.277 32.09 33.0519C32.3902 32.8161 32.7386 32.6285 33.1352 32.4891C33.5318 32.339 33.9874 32.264 34.502 32.264C35.0273 32.264 35.5043 32.339 35.9331 32.4891C36.3726 32.6392 36.7478 32.8482 37.0587 33.1162C37.3696 33.3735 37.6108 33.6844 37.7823 34.0489C37.9538 34.4026 38.0396 34.7886 38.0396 35.2066C38.0396 35.5282 37.9967 35.8177 37.911 36.075C37.8359 36.3322 37.7341 36.5627 37.6054 36.7664C37.4768 36.9701 37.3267 37.147 37.1552 37.297C36.9944 37.4364 36.8282 37.549 36.6567 37.6347V37.7634C37.1713 37.967 37.5947 38.294 37.927 38.7442C38.2701 39.1945 38.4416 39.7626 38.4416 40.4487C38.4416 40.9311 38.3505 41.376 38.1682 41.7834C37.986 42.18 37.7234 42.5284 37.3803 42.8286C37.048 43.1287 36.646 43.3592 36.1743 43.52C35.7026 43.6915 35.1774 43.7773 34.5985 43.7773Z" fill="#4285F4"/>
<path d="M42.2816 43.52V34.9976L40.3359 35.8177L39.5641 34.0328L42.7961 32.5213H44.3881V43.52H42.2816Z" fill="#4285F4"/>
</g>
<rect x="8.5" y="8.5" width="59" height="59" rx="15.5" stroke="black" stroke-opacity="0.1" shape-rendering="crispEdges"/>
</g>
<path d="M124.79 38.9188C124.79 43.9542 120.825 47.6648 115.96 47.6648C111.095 47.6648 107.131 43.9542 107.131 38.9188C107.131 33.8478 111.095 30.1727 115.96 30.1727C120.825 30.1727 124.79 33.8478 124.79 38.9188ZM120.925 38.9188C120.925 35.7721 118.627 33.6191 115.96 33.6191C113.294 33.6191 110.996 35.7721 110.996 38.9188C110.996 42.0339 113.294 44.2184 115.96 44.2184C118.627 44.2184 120.925 42.03 120.925 38.9188Z" fill="#EA4335"/>
<path d="M143.837 38.9188C143.837 43.9542 139.873 47.6648 135.008 47.6648C130.143 47.6648 126.179 43.9542 126.179 38.9188C126.179 33.8517 130.143 30.1727 135.008 30.1727C139.873 30.1727 143.837 33.8478 143.837 38.9188ZM139.972 38.9188C139.972 35.7721 137.675 33.6191 135.008 33.6191C132.341 33.6191 130.044 35.7721 130.044 38.9188C130.044 42.0339 132.341 44.2184 135.008 44.2184C137.675 44.2184 139.972 42.03 139.972 38.9188Z" fill="#FBBC05"/>
<path d="M162.091 30.7011V46.403C162.091 52.862 158.258 55.5 153.726 55.5C149.46 55.5 146.893 52.6648 145.925 50.3462L149.29 48.9542C149.889 50.3777 151.357 52.0576 153.722 52.0576C156.623 52.0576 158.421 50.2792 158.421 46.9314V45.6735H158.286C157.421 46.7342 155.754 47.6609 153.651 47.6609C149.25 47.6609 145.218 43.8517 145.218 38.9503C145.218 34.0134 149.25 30.1727 153.651 30.1727C155.75 30.1727 157.417 31.0994 158.286 32.1285H158.421V30.705H162.091V30.7011ZM158.694 38.9503C158.694 35.8706 156.627 33.6191 153.996 33.6191C151.329 33.6191 149.095 35.8706 149.095 38.9503C149.095 41.9984 151.329 44.2184 153.996 44.2184C156.627 44.2184 158.694 41.9984 158.694 38.9503Z" fill="#4285F4"/>
<path d="M168.143 21.4976V47.1285H164.373V21.4976H168.143Z" fill="#34A853"/>
<path d="M182.833 41.7973L185.833 43.7847C184.865 45.2082 182.532 47.6609 178.5 47.6609C173.5 47.6609 169.766 43.8202 169.766 38.9148C169.766 33.7137 173.532 30.1688 178.067 30.1688C182.635 30.1688 184.869 33.7807 185.599 35.7326L186 36.7263L174.234 41.5686C175.135 43.3233 176.536 44.2184 178.5 44.2184C180.468 44.2184 181.833 43.2563 182.833 41.7973ZM173.599 38.6506L181.464 35.4054C181.032 34.3131 179.73 33.552 178.198 33.552C176.234 33.552 173.5 35.2752 173.599 38.6506V38.6506Z" fill="#EA4335"/>
<path d="M92.8611 36.6435V32.933H105.444C105.567 33.5797 105.631 34.3446 105.631 35.1727C105.631 37.9566 104.865 41.3991 102.397 43.8517C99.996 46.336 96.9286 47.6609 92.8651 47.6609C85.3333 47.6609 79 41.5647 79 34.0804C79 26.5962 85.3333 20.5 92.8651 20.5C97.0317 20.5 100 22.1246 102.23 24.2421L99.5952 26.8604C97.996 25.3699 95.8294 24.2106 92.8611 24.2106C87.3611 24.2106 83.0595 28.6151 83.0595 34.0804C83.0595 39.5457 87.3611 43.9503 92.8611 43.9503C96.4286 43.9503 98.4603 42.5268 99.7619 41.2334C100.817 40.1845 101.512 38.6861 101.786 36.6396L92.8611 36.6435Z" fill="#4285F4"/>
<defs>
<filter id="filter0_d_303_1470" x="4" y="8" width="68" height="68" filterUnits="userSpaceOnUse" color-interpolation-filters="sRGB">
<feFlood flood-opacity="0" result="BackgroundImageFix"/>
<feColorMatrix in="SourceAlpha" type="matrix" values="0 0 0 0 0 0 0 0 0 0 0 0 0 0 0 0 0 0 127 0" result="hardAlpha"/>
<feOffset dy="4"/>
<feGaussianBlur stdDeviation="2"/>
<feComposite in2="hardAlpha" operator="out"/>
<feColorMatrix type="matrix" values="0 0 0 0 0 0 0 0 0 0 0 0 0 0 0 0 0 0 0.25 0"/>
<feBlend mode="normal" in2="BackgroundImageFix" result="effect1_dropShadow_303_1470"/>
<feBlend mode="normal" in="SourceGraphic" in2="effect1_dropShadow_303_1470" result="shape"/>
</filter>
<clipPath id="clip0_303_1470">
<rect x="8" y="8" width="60" height="60" rx="16" fill="white"/>
</clipPath>
</defs>
</svg>
