<svg width="260" height="260" viewBox="0 0 260 260" fill="none" xmlns="http://www.w3.org/2000/svg">
<rect x="5" y="5" width="250" height="250" rx="13" fill="white"/>
<rect x="2.5" y="2.5" width="255" height="255" rx="18.5" stroke="#E8E8E8" stroke-width="5"/>
<path d="M40 193C40 199.63 45.3 205 51.83 205H52C45.37 205 40 199.63 40 193Z" fill="#FBBC05"/>
<path d="M141.66 100V131.33L182.99 97.26V67C182.99 60.37 177.69 55 171.16 55H81.62L81.54 100H141.66Z" fill="#FBBC05"/>
<path d="M141.66 162.67H81.44L81.37 205H171.16C177.7 205 182.99 199.63 182.99 193V165.68L141.66 131.34V162.67Z" fill="#34A853"/>
<path d="M81.62 55L40 100H81.55L81.62 55Z" fill="#EA4335"/>
<path d="M40 162.67V193C40 199.63 45.37 205 52 205H81.37L81.44 162.67H40Z" fill="#1967D2"/>
<path d="M81.55 100H40V162.67H81.44L81.55 100Z" fill="#4285F4"/>
<path d="M219.33 182.33V79.33C217 65.66 202.33 81.33 202.33 81.33L183 97.26V165.67L210.67 188.66C220.66 190 219.33 182.33 219.33 182.33Z" fill="#34A853"/>
<path d="M141.66 131.33L183 165.68V97.27L141.66 131.33Z" fill="#188038"/>
</svg>
